<svg viewBox="0 0 249.99999 250" class="img-title-logo" version="1.1" id="svg62" sodipodi:docname="logo.svg" width="250" height="250" inkscape:version="1.1.2 (0a00cf5339, 2022-02-04)" xmlns:inkscape="http://www.inkscape.org/namespaces/inkscape" xmlns:sodipodi="http://sodipodi.sourceforge.net/DTD/sodipodi-0.dtd" xmlns="http://www.w3.org/2000/svg" xmlns:svg="http://www.w3.org/2000/svg" xmlns:rdf="http://www.w3.org/1999/02/22-rdf-syntax-ns#" xmlns:cc="http://creativecommons.org/ns#" xmlns:dc="http://purl.org/dc/elements/1.1/">
  <defs id="defs66"></defs>
  <sodipodi:namedview id="namedview64" pagecolor="#ffffff" bordercolor="#666666" borderopacity="1.0" inkscape:pageshadow="2" inkscape:pageopacity="0.0" inkscape:pagecheckerboard="0" showgrid="false" width="250px" inkscape:zoom="2.8182816" inkscape:cx="89.238774" inkscape:cy="172.26809" inkscape:window-width="1835" inkscape:window-height="1129" inkscape:window-x="85" inkscape:window-y="34" inkscape:window-maximized="1" inkscape:current-layer="svg62"></sodipodi:namedview>
  <title id="title2">Logo Les Bateaux Bordelais</title>
  <g id="g24" transform="matrix(1.0833346,0,0,1.0833346,-19.583522,42.594096)">
    <path class="cls-1" d="M 58.95,83.64 V 70.82 c 0,-0.12 0.06,-0.19 0.19,-0.19 h 1.43 c 0.13,0 0.19,0.06 0.19,0.19 v 11.37 c 0,0 0.02,0.07 0.07,0.07 h 6.5 c 0.12,0 0.19,0.06 0.19,0.19 v 1.19 c 0,0.12 -0.06,0.19 -0.19,0.19 h -8.2 c -0.13,0 -0.19,-0.06 -0.19,-0.19 z" id="path4"></path>
    <path class="cls-1" d="m 82.04,72.19 h -6.69 c 0,0 -0.07,0.02 -0.07,0.07 v 4.05 c 0,0.05 0.02,0.08 0.07,0.08 h 4.6 c 0.13,0 0.19,0.06 0.19,0.19 v 1.19 c 0,0.13 -0.06,0.19 -0.19,0.19 h -4.6 c 0,0 -0.07,0.02 -0.07,0.07 v 4.15 c 0,0 0.02,0.07 0.07,0.07 h 6.69 c 0.12,0 0.19,0.06 0.19,0.19 v 1.19 c 0,0.12 -0.06,0.19 -0.19,0.19 h -8.39 c -0.12,0 -0.19,-0.06 -0.19,-0.19 V 70.81 c 0,-0.12 0.06,-0.19 0.19,-0.19 h 8.39 c 0.12,0 0.19,0.06 0.19,0.19 V 72 c 0,0.13 -0.06,0.19 -0.19,0.19 z" id="path6"></path>
    <path class="cls-1" d="m 90.07,83.52 c -0.71,-0.3 -1.26,-0.73 -1.64,-1.28 -0.38,-0.55 -0.57,-1.2 -0.57,-1.94 v -0.55 c 0,-0.12 0.06,-0.19 0.19,-0.19 h 1.38 c 0.12,0 0.19,0.06 0.19,0.19 v 0.45 c 0,0.64 0.28,1.17 0.83,1.58 0.55,0.41 1.31,0.62 2.28,0.62 0.87,0 1.52,-0.18 1.96,-0.55 0.44,-0.36 0.66,-0.84 0.66,-1.43 0,-0.39 -0.11,-0.72 -0.34,-1 -0.23,-0.28 -0.56,-0.53 -0.99,-0.76 -0.43,-0.23 -1.07,-0.51 -1.9,-0.84 -0.92,-0.35 -1.64,-0.67 -2.18,-0.96 -0.54,-0.29 -0.98,-0.67 -1.33,-1.14 -0.35,-0.47 -0.53,-1.07 -0.53,-1.78 0,-1.08 0.39,-1.93 1.16,-2.54 0.77,-0.62 1.82,-0.92 3.14,-0.92 0.93,0 1.75,0.16 2.45,0.47 0.7,0.31 1.25,0.75 1.63,1.32 0.38,0.57 0.58,1.22 0.58,1.96 v 0.38 c 0,0.12 -0.06,0.19 -0.19,0.19 h -1.41 c -0.13,0 -0.19,-0.06 -0.19,-0.19 v -0.28 c 0,-0.65 -0.26,-1.2 -0.78,-1.63 -0.52,-0.43 -1.24,-0.65 -2.16,-0.65 -0.78,0 -1.38,0.16 -1.81,0.48 -0.43,0.32 -0.64,0.78 -0.64,1.38 0,0.42 0.11,0.75 0.32,1.02 0.21,0.26 0.53,0.5 0.95,0.71 0.42,0.21 1.07,0.47 1.93,0.8 0.89,0.35 1.62,0.68 2.17,0.97 0.55,0.29 1.01,0.69 1.38,1.17 0.36,0.48 0.55,1.09 0.55,1.8 0,1.11 -0.41,1.98 -1.22,2.63 -0.81,0.65 -1.93,0.97 -3.35,0.97 -0.97,0 -1.81,-0.15 -2.52,-0.45 z" id="path8"></path>
    <path class="cls-1" d="m 117.94,77.05 c 1.33,0.57 2,1.62 2,3.15 0,1.16 -0.38,2.05 -1.15,2.68 -0.77,0.63 -1.77,0.94 -3,0.94 h -4.7 c -0.12,0 -0.19,-0.06 -0.19,-0.19 V 70.81 c 0,-0.12 0.06,-0.19 0.19,-0.19 h 4.54 c 1.31,0 2.32,0.3 3.04,0.9 0.72,0.6 1.09,1.47 1.09,2.61 0,1.36 -0.61,2.29 -1.83,2.81 -0.06,0.04 -0.06,0.08 0,0.11 z m -5.22,-4.79 v 3.98 c 0,0 0.02,0.07 0.07,0.07 h 2.85 c 0.73,0 1.3,-0.18 1.73,-0.55 0.42,-0.37 0.63,-0.86 0.63,-1.49 0,-0.63 -0.21,-1.15 -0.63,-1.53 -0.42,-0.38 -1,-0.57 -1.73,-0.57 h -2.85 c 0,0 -0.07,0.02 -0.07,0.07 z m 4.78,9.38 c 0.42,-0.4 0.63,-0.93 0.63,-1.61 0,-0.68 -0.21,-1.22 -0.64,-1.61 -0.43,-0.39 -1.01,-0.59 -1.75,-0.59 h -2.94 c 0,0 -0.07,0.02 -0.07,0.07 v 4.26 c 0,0.05 0.02,0.08 0.07,0.08 h 3 c 0.72,0 1.28,-0.2 1.71,-0.59 z" id="path10"></path>
    <path class="cls-1" d="M 133.68,83.67 133,81.46 c 0,0 -0.04,-0.06 -0.07,-0.06 h -5.3 c 0,0 -0.06,0.02 -0.07,0.06 l -0.68,2.21 c -0.04,0.1 -0.11,0.15 -0.23,0.15 h -1.53 c -0.14,0 -0.19,-0.07 -0.15,-0.21 l 4.13,-12.84 c 0.04,-0.1 0.11,-0.15 0.23,-0.15 h 1.89 c 0.11,0 0.19,0.05 0.23,0.15 l 4.17,12.84 0.02,0.08 c 0,0.09 -0.06,0.13 -0.17,0.13 h -1.55 c -0.11,0 -0.19,-0.05 -0.23,-0.15 z m -5.65,-3.72 c 0,0 0.04,0.03 0.07,0.03 h 4.34 c 0,0 0.05,0 0.07,-0.03 0.02,-0.03 0.02,-0.04 0,-0.07 l -2.19,-7 c 0,0 -0.03,-0.04 -0.06,-0.04 -0.03,0 -0.04,0.01 -0.06,0.04 l -2.19,7 c 0,0 0,0.05 0,0.07 z" id="path12"></path>
    <path class="cls-1" d="m 148.77,70.81 v 1.21 c 0,0.12 -0.06,0.19 -0.19,0.19 h -3.62 c 0,0 -0.08,0.02 -0.08,0.07 v 11.35 c 0,0.12 -0.06,0.19 -0.19,0.19 h -1.43 c -0.13,0 -0.19,-0.06 -0.19,-0.19 V 72.28 c 0,0 -0.02,-0.07 -0.07,-0.07 h -3.45 c -0.12,0 -0.19,-0.06 -0.19,-0.19 v -1.21 c 0,-0.12 0.06,-0.19 0.19,-0.19 h 9.03 c 0.13,0 0.19,0.06 0.19,0.19 z" id="path14"></path>
    <path class="cls-1" d="m 163.36,72.19 h -6.69 c 0,0 -0.07,0.02 -0.07,0.07 v 4.05 c 0,0.05 0.02,0.08 0.07,0.08 h 4.6 c 0.13,0 0.19,0.06 0.19,0.19 v 1.19 c 0,0.13 -0.06,0.19 -0.19,0.19 h -4.6 c 0,0 -0.07,0.02 -0.07,0.07 v 4.15 c 0,0 0.02,0.07 0.07,0.07 h 6.69 c 0.12,0 0.19,0.06 0.19,0.19 v 1.19 c 0,0.12 -0.06,0.19 -0.19,0.19 h -8.39 c -0.12,0 -0.19,-0.06 -0.19,-0.19 V 70.81 c 0,-0.12 0.06,-0.19 0.19,-0.19 h 8.39 c 0.12,0 0.19,0.06 0.19,0.19 V 72 c 0,0.13 -0.06,0.19 -0.19,0.19 z" id="path16"></path>
    <path class="cls-1" d="m 177.61,83.67 -0.68,-2.21 c 0,0 -0.04,-0.06 -0.07,-0.06 h -5.3 c 0,0 -0.06,0.02 -0.08,0.06 l -0.68,2.21 c -0.04,0.1 -0.11,0.15 -0.23,0.15 h -1.53 c -0.14,0 -0.19,-0.07 -0.15,-0.21 l 4.13,-12.84 c 0.04,-0.1 0.11,-0.15 0.23,-0.15 h 1.89 c 0.11,0 0.19,0.05 0.23,0.15 l 4.17,12.84 0.02,0.08 c 0,0.09 -0.06,0.13 -0.17,0.13 h -1.55 c -0.11,0 -0.19,-0.05 -0.23,-0.15 z m -5.65,-3.72 c 0,0 0.04,0.03 0.07,0.03 h 4.34 c 0,0 0.05,0 0.07,-0.03 0.02,-0.02 0.02,-0.04 0,-0.07 l -2.19,-7 c 0,0 -0.03,-0.04 -0.06,-0.04 -0.03,0 -0.04,0.01 -0.06,0.04 l -2.19,7 c 0,0 0,0.05 0,0.07 z" id="path18"></path>
    <path class="cls-1" d="m 187.39,83.44 c -0.7,-0.36 -1.24,-0.87 -1.63,-1.53 -0.39,-0.66 -0.59,-1.42 -0.59,-2.27 v -8.82 c 0,-0.12 0.06,-0.19 0.19,-0.19 h 1.43 c 0.13,0 0.19,0.06 0.19,0.19 v 8.86 c 0,0.82 0.26,1.48 0.78,1.98 0.52,0.5 1.2,0.75 2.05,0.75 0.85,0 1.52,-0.25 2.04,-0.75 0.52,-0.5 0.77,-1.16 0.77,-1.98 v -8.86 c 0,-0.12 0.06,-0.19 0.19,-0.19 h 1.43 c 0.12,0 0.19,0.06 0.19,0.19 v 8.82 c 0,0.85 -0.19,1.61 -0.57,2.27 -0.38,0.66 -0.92,1.17 -1.62,1.53 -0.7,0.36 -1.5,0.54 -2.42,0.54 -0.92,0 -1.73,-0.18 -2.42,-0.54 z" id="path20"></path>
    <path class="cls-1" d="m 200.28,83.76 c 0,0 -0.02,-0.1 0.02,-0.16 l 3.88,-6.32 c 0,0 0.02,-0.07 0,-0.11 l -3.88,-6.32 c 0,0 -0.04,-0.09 -0.04,-0.11 0,-0.08 0.06,-0.11 0.17,-0.11 H 202 c 0.09,0 0.16,0.04 0.23,0.13 l 3.04,5 c 0,0 0.03,0.02 0.06,0.02 0.03,0 0.04,0 0.06,-0.02 l 3.04,-5 c 0.06,-0.09 0.14,-0.13 0.23,-0.13 h 1.55 c 0.07,0 0.12,0.02 0.15,0.07 0.02,0.04 0.02,0.1 -0.02,0.16 l -3.87,6.34 c 0,0 -0.01,0.07 0,0.11 l 3.87,6.3 c 0,0 0.04,0.09 0.04,0.11 0,0.07 -0.06,0.11 -0.17,0.11 h -1.55 c -0.09,0 -0.16,-0.04 -0.23,-0.13 l -3.04,-4.98 c 0,0 -0.03,-0.04 -0.06,-0.04 -0.03,0 -0.04,0.01 -0.06,0.04 l -3.04,4.98 c -0.06,0.09 -0.14,0.13 -0.23,0.13 h -1.57 c -0.07,0 -0.12,-0.02 -0.15,-0.07 z" id="path22"></path>
  </g>
  <g id="g44" transform="translate(-8,54)">
    <path class="cls-2" d="m 48.06,100.1 c 1.88,0.97 2.81,2.58 2.81,4.83 0,1.91 -0.65,3.36 -1.96,4.34 -1.3,0.98 -3.01,1.47 -5.13,1.47 h -7.67 c -0.1,0 -0.18,-0.03 -0.25,-0.1 -0.07,-0.07 -0.1,-0.15 -0.1,-0.25 V 90.36 c 0,-0.1 0.03,-0.18 0.1,-0.25 0.07,-0.07 0.15,-0.1 0.25,-0.1 h 7.44 c 4.68,0 7.02,1.9 7.02,5.69 0,1.98 -0.84,3.39 -2.52,4.24 -0.12,0.06 -0.12,0.12 0,0.18 z m -8.12,-6.37 v 4.62 c 0,0.1 0.05,0.15 0.15,0.15 h 3.47 c 0.93,0 1.65,-0.22 2.16,-0.65 0.51,-0.43 0.77,-1.03 0.77,-1.78 0,-0.75 -0.26,-1.38 -0.77,-1.82 -0.51,-0.44 -1.23,-0.67 -2.16,-0.67 h -3.47 c -0.1,0 -0.15,0.05 -0.15,0.15 z m 5.99,12.7 c 0.51,-0.46 0.77,-1.1 0.77,-1.91 0,-0.81 -0.26,-1.45 -0.77,-1.91 -0.51,-0.46 -1.23,-0.7 -2.16,-0.7 H 40.1 c -0.1,0 -0.15,0.05 -0.15,0.15 v 4.92 c 0,0.1 0.05,0.15 0.15,0.15 h 3.7 c 0.91,0 1.62,-0.23 2.13,-0.7 z" id="path26"></path>
    <path class="cls-2" d="m 63.33,110.12 c -1.17,-0.63 -2.09,-1.52 -2.74,-2.65 -0.65,-1.14 -0.98,-2.44 -0.98,-3.93 V 97.2 c 0,-1.46 0.33,-2.76 0.98,-3.88 0.65,-1.13 1.57,-2 2.74,-2.62 1.18,-0.62 2.53,-0.93 4.07,-0.93 1.54,0 2.93,0.31 4.1,0.93 1.17,0.62 2.09,1.5 2.74,2.62 0.65,1.13 0.98,2.42 0.98,3.88 v 6.34 c 0,1.48 -0.32,2.79 -0.98,3.94 -0.66,1.15 -1.57,2.03 -2.74,2.65 -1.18,0.62 -2.54,0.93 -4.1,0.93 -1.56,0 -2.9,-0.32 -4.07,-0.95 z m 6.71,-3.67 c 0.67,-0.69 1.01,-1.61 1.01,-2.76 v -6.52 c 0,-1.15 -0.33,-2.07 -0.99,-2.77 -0.66,-0.7 -1.55,-1.05 -2.65,-1.05 -1.1,0 -1.96,0.35 -2.62,1.05 -0.66,0.7 -0.99,1.62 -0.99,2.77 v 6.52 c 0,1.15 0.33,2.06 0.99,2.76 0.66,0.69 1.54,1.04 2.62,1.04 1.08,0 1.96,-0.35 2.64,-1.04 z" id="path28"></path>
    <path class="cls-2" d="m 95.32,110.47 -3.7,-8.21 c -0.04,-0.08 -0.1,-0.12 -0.18,-0.12 h -2.76 c -0.1,0 -0.15,0.05 -0.15,0.15 v 8.09 c 0,0.1 -0.03,0.18 -0.1,0.25 -0.07,0.07 -0.15,0.1 -0.25,0.1 h -3.47 c -0.1,0 -0.18,-0.03 -0.25,-0.1 -0.07,-0.07 -0.1,-0.15 -0.1,-0.25 V 90.35 c 0,-0.1 0.04,-0.18 0.1,-0.25 0.07,-0.07 0.15,-0.1 0.25,-0.1 h 8.47 c 1.26,0 2.38,0.26 3.33,0.77 0.96,0.51 1.7,1.24 2.22,2.19 0.52,0.95 0.79,2.05 0.79,3.29 0,1.34 -0.34,2.49 -1.01,3.45 -0.67,0.96 -1.61,1.63 -2.81,2.03 -0.1,0.04 -0.13,0.11 -0.09,0.21 l 4.03,8.39 c 0.04,0.08 0.06,0.14 0.06,0.18 0,0.16 -0.11,0.24 -0.33,0.24 h -3.64 c -0.2,0 -0.34,-0.09 -0.41,-0.27 z M 88.54,93.73 v 5.07 c 0,0.1 0.05,0.15 0.15,0.15 h 3.88 c 0.83,0 1.51,-0.25 2.03,-0.74 0.52,-0.49 0.79,-1.14 0.79,-1.93 0,-0.79 -0.26,-1.44 -0.79,-1.94 -0.53,-0.5 -1.2,-0.76 -2.03,-0.76 h -3.88 c -0.1,0 -0.15,0.05 -0.15,0.15 z" id="path30"></path>
    <path class="cls-2" d="m 108.57,110.64 c -0.07,-0.07 -0.1,-0.15 -0.1,-0.25 V 90.36 c 0,-0.1 0.04,-0.18 0.1,-0.25 0.07,-0.07 0.15,-0.1 0.25,-0.1 h 7.41 c 1.48,0 2.78,0.26 3.9,0.79 1.12,0.52 1.98,1.26 2.59,2.21 0.61,0.95 0.92,2.04 0.92,3.29 v 8.18 c 0,1.24 -0.31,2.34 -0.92,3.29 -0.61,0.95 -1.48,1.68 -2.59,2.21 -1.12,0.52 -2.41,0.79 -3.9,0.79 h -7.41 c -0.1,0 -0.18,-0.03 -0.25,-0.1 z m 4.22,-3.48 h 3.58 c 0.91,0 1.65,-0.31 2.21,-0.92 0.56,-0.61 0.85,-1.43 0.87,-2.46 v -6.82 c 0,-1.03 -0.28,-1.85 -0.84,-2.46 -0.56,-0.61 -1.32,-0.92 -2.27,-0.92 h -3.55 c -0.1,0 -0.15,0.05 -0.15,0.15 V 107 c 0,0.1 0.05,0.15 0.15,0.15 z" id="path32"></path>
    <path class="cls-2" d="m 147,93.48 c -0.07,0.07 -0.15,0.1 -0.25,0.1 h -9.72 c -0.1,0 -0.15,0.05 -0.15,0.15 v 4.59 c 0,0.1 0.05,0.15 0.15,0.15 h 6.37 c 0.1,0 0.18,0.04 0.25,0.1 0.07,0.07 0.1,0.15 0.1,0.25 v 2.87 c 0,0.1 -0.03,0.18 -0.1,0.25 -0.07,0.07 -0.15,0.1 -0.25,0.1 h -6.37 c -0.1,0 -0.15,0.05 -0.15,0.15 v 4.8 c 0,0.1 0.05,0.15 0.15,0.15 h 9.72 c 0.1,0 0.18,0.04 0.25,0.1 0.07,0.07 0.1,0.15 0.1,0.25 v 2.87 c 0,0.1 -0.03,0.18 -0.1,0.25 -0.07,0.07 -0.15,0.1 -0.25,0.1 h -13.69 c -0.1,0 -0.18,-0.03 -0.25,-0.1 -0.07,-0.07 -0.1,-0.15 -0.1,-0.25 V 90.33 c 0,-0.1 0.04,-0.18 0.1,-0.25 0.07,-0.07 0.15,-0.1 0.25,-0.1 h 13.69 c 0.1,0 0.18,0.04 0.25,0.1 0.07,0.07 0.1,0.15 0.1,0.25 v 2.87 c 0,0.1 -0.03,0.18 -0.1,0.25 z" id="path34"></path>
    <path class="cls-2" d="m 156.04,110.64 c -0.07,-0.07 -0.1,-0.15 -0.1,-0.25 V 90.36 c 0,-0.1 0.03,-0.18 0.1,-0.25 0.07,-0.07 0.15,-0.1 0.25,-0.1 h 3.47 c 0.1,0 0.18,0.04 0.25,0.1 0.07,0.07 0.1,0.15 0.1,0.25 v 16.65 c 0,0.1 0.05,0.15 0.15,0.15 h 9.69 c 0.1,0 0.18,0.04 0.25,0.1 0.07,0.07 0.1,0.15 0.1,0.25 v 2.87 c 0,0.1 -0.03,0.18 -0.1,0.25 -0.07,0.07 -0.15,0.1 -0.25,0.1 h -13.66 c -0.1,0 -0.18,-0.03 -0.25,-0.1 z" id="path36"></path>
    <path class="cls-2" d="m 192.11,110.45 -0.89,-2.9 c -0.04,-0.08 -0.09,-0.12 -0.15,-0.12 h -7.29 c -0.06,0 -0.11,0.04 -0.15,0.12 l -0.86,2.9 c -0.06,0.2 -0.19,0.3 -0.39,0.3 h -3.76 c -0.12,0 -0.21,-0.03 -0.27,-0.1 -0.06,-0.07 -0.07,-0.17 -0.03,-0.31 l 6.4,-20.03 c 0.06,-0.2 0.19,-0.3 0.39,-0.3 h 4.65 c 0.2,0 0.33,0.1 0.39,0.3 l 6.4,20.03 c 0,0 0.03,0.09 0.03,0.15 0,0.18 -0.11,0.27 -0.33,0.27 h -3.76 c -0.2,0 -0.32,-0.1 -0.38,-0.3 z m -7.29,-6.25 h 5.21 c 0.12,0 0.16,-0.06 0.12,-0.18 l -2.67,-8.8 c -0.02,-0.08 -0.05,-0.11 -0.09,-0.1 -0.04,0.01 -0.07,0.04 -0.09,0.1 l -2.61,8.8 c -0.02,0.12 0.02,0.18 0.12,0.18 z" id="path38"></path>
    <path class="cls-2" d="m 205.22,110.64 c -0.07,-0.07 -0.1,-0.15 -0.1,-0.25 V 90.36 c 0,-0.1 0.03,-0.18 0.1,-0.25 0.07,-0.07 0.15,-0.1 0.25,-0.1 h 3.47 c 0.1,0 0.18,0.04 0.25,0.1 0.07,0.07 0.1,0.15 0.1,0.25 v 20.03 c 0,0.1 -0.03,0.18 -0.1,0.25 -0.07,0.07 -0.15,0.1 -0.25,0.1 h -3.47 c -0.1,0 -0.18,-0.03 -0.25,-0.1 z" id="path40"></path>
    <path class="cls-2" d="m 221.8,110.22 c -1.18,-0.5 -2.1,-1.22 -2.74,-2.16 -0.64,-0.94 -0.96,-2.03 -0.96,-3.27 v -0.65 c 0,-0.1 0.03,-0.18 0.1,-0.25 0.07,-0.07 0.15,-0.1 0.25,-0.1 h 3.38 c 0.1,0 0.18,0.03 0.25,0.1 0.07,0.07 0.1,0.15 0.1,0.25 v 0.44 c 0,0.79 0.37,1.46 1.1,2 0.73,0.54 1.72,0.81 2.96,0.81 1.05,0 1.83,-0.22 2.34,-0.67 0.51,-0.44 0.77,-0.99 0.77,-1.64 0,-0.47 -0.16,-0.87 -0.47,-1.2 -0.32,-0.33 -0.75,-0.61 -1.29,-0.86 -0.54,-0.25 -1.41,-0.59 -2.59,-1.02 -1.32,-0.45 -2.44,-0.92 -3.36,-1.39 -0.92,-0.47 -1.69,-1.12 -2.31,-1.94 -0.62,-0.82 -0.93,-1.83 -0.93,-3.04 0,-1.21 0.31,-2.22 0.92,-3.11 0.61,-0.89 1.46,-1.57 2.55,-2.04 1.09,-0.47 2.34,-0.71 3.76,-0.71 1.5,0 2.84,0.27 4.02,0.8 1.17,0.53 2.09,1.28 2.76,2.24 0.66,0.96 0.99,2.07 0.99,3.33 v 0.44 c 0,0.1 -0.04,0.18 -0.1,0.25 -0.06,0.07 -0.15,0.1 -0.25,0.1 h -3.41 c -0.1,0 -0.18,-0.03 -0.25,-0.1 -0.07,-0.07 -0.1,-0.15 -0.1,-0.25 v -0.24 c 0,-0.83 -0.34,-1.53 -1.02,-2.12 -0.68,-0.59 -1.62,-0.87 -2.8,-0.87 -0.93,0 -1.65,0.2 -2.18,0.59 -0.52,0.39 -0.79,0.94 -0.79,1.63 0,0.49 0.15,0.91 0.46,1.24 0.31,0.34 0.76,0.64 1.36,0.9 0.6,0.26 1.53,0.63 2.8,1.08 1.4,0.51 2.5,0.97 3.3,1.36 0.8,0.39 1.52,0.98 2.16,1.76 0.64,0.78 0.96,1.79 0.96,3.04 0,1.86 -0.68,3.32 -2.04,4.4 -1.36,1.08 -3.21,1.62 -5.54,1.62 -1.58,0 -2.96,-0.25 -4.15,-0.75 z" id="path42"></path>
  </g>
  <g id="g60" transform="matrix(1.3022878,0,0,1.3964587,-48.703056,27.263148)">
    <path class="cls-2" d="m 152.18,35.4 c -0.16,-0.14 -16.2,-12.55 -19.32,-18.26 l -0.34,-0.65 -0.35,0.65 c -3.03,5.6 -18.25,18.14 -18.4,18.26 l -0.23,0.19 5.26,12.28 1.25,2.91 0.05,0.12 0.3,-0.03 c 0.13,-0.01 14.57,-1.65 25.44,0.1 l 0.31,0.05 0.03,-0.07 1.09,-2.68 5.14,-12.7 z m -3.42,7.1 c -1.45,-0.76 -13.95,-7.34 -15.89,-11.15 l -0.35,-0.68 -0.35,0.66 c -1.95,3.62 -12.35,10.26 -14.6,11.68 l -3.07,-7.18 c 1.93,-1.6 14.51,-12.12 18.02,-17.74 3.62,5.71 16.92,16.18 18.95,17.74 z" id="path46"></path>
    <path class="cls-2" d="m 146.6,53.84 c -0.18,0.04 -0.37,0.13 -0.54,0.1 -0.95,-0.21 -1.96,-0.29 -2.82,-0.7 -2.21,-1.03 -4.33,-1.06 -6.52,0 -2.06,1 -4.18,1.01 -6.24,0 -2.17,-1.07 -4.3,-1.09 -6.45,0 -1.46,0.74 -3,0.85 -4.58,0.59 -0.3,-0.05 -0.58,-0.23 -0.87,-0.34 0.02,-0.06 0.04,-0.13 0.06,-0.19 0.43,0.08 0.87,0.16 1.3,0.23 1.33,0.22 2.61,0.03 3.81,-0.57 2.32,-1.17 4.62,-1.16 6.96,-0.02 1.99,0.97 4,0.9 5.97,-0.08 1.63,-0.81 3.32,-0.99 5.08,-0.56 0.4,0.1 0.8,0.23 1.16,0.42 1.08,0.55 2.22,0.88 3.44,0.9 0.08,0 0.15,0.04 0.22,0.06 0,0.05 0,0.1 0.01,0.15 z" id="path48"></path>
    <path class="cls-2" d="m 159.15,55.26 c -0.17,0.02 -0.36,0.09 -0.5,0.04 -0.68,-0.23 -1.35,-0.48 -2.01,-0.76 -1.86,-0.8 -3.75,-0.87 -5.57,0.02 -2.43,1.19 -4.77,1.17 -7.2,-0.02 -1.82,-0.89 -3.72,-0.83 -5.56,0.04 -1.16,0.55 -2.34,0.94 -3.64,0.86 -0.21,-0.01 -0.42,-0.08 -0.62,-0.12 v -0.18 c 0.16,-0.01 0.32,-0.04 0.47,-0.04 1.18,0.04 2.29,-0.2 3.35,-0.73 2.12,-1.06 4.28,-1.1 6.41,-0.07 2.17,1.06 4.29,1.06 6.46,0 2.08,-1.02 4.19,-0.97 6.3,0 0.67,0.31 1.37,0.54 2.06,0.8 0.02,0.05 0.04,0.09 0.06,0.14 z" id="path50"></path>
    <path class="cls-2" d="m 110.14,55.47 c 2.09,-1.17 4.08,-1.81 6.29,-1.28 0.5,0.12 1.01,0.29 1.47,0.52 2.16,1.09 4.3,1.12 6.46,0.03 1.59,-0.8 3.26,-0.9 4.96,-0.51 0.48,0.11 0.94,0.32 1.41,0.49 0,0.06 0,0.13 0,0.19 -0.14,0.02 -0.31,0.1 -0.42,0.05 -2.11,-0.88 -4.12,-0.69 -6.17,0.29 -1.99,0.95 -4.07,0.91 -6.06,-0.06 -2.14,-1.04 -4.25,-1.11 -6.4,-0.05 -0.41,0.2 -0.83,0.52 -1.53,0.33 z" id="path52"></path>
    <path class="cls-2" d="m 140.12,56.1 c -0.19,0.07 -0.37,0.15 -0.57,0.2 -0.97,0.28 -1.99,0.46 -2.91,0.86 -1.99,0.86 -3.98,0.97 -5.93,0.04 -1.5,-0.72 -3.02,-1.07 -4.67,-0.83 -0.17,0.03 -0.36,-0.05 -0.53,-0.17 1.2,-0.34 2.41,-0.36 3.6,-0.03 0.52,0.15 1.02,0.37 1.52,0.6 2.03,0.93 4.04,0.92 6.04,-0.06 1.08,-0.53 2.2,-0.87 3.45,-0.62 z" id="path54"></path>
    <polygon class="cls-2" points="113.43,24.7 113.34,33.09 114.2,33.09 114.11,25.03 122.69,24.93 122.69,24.46 113.77,24.36 113.44,24.35 " id="polygon56"></polygon>
    <polygon class="cls-2" points="151.97,24.36 142.53,24.5 142.53,24.89 151.63,25.03 151.5,32.27 152.44,32.27 152.31,24.7 152.3,24.35 " id="polygon58"></polygon>
  </g>
  <metadata id="metadata883">
    <rdf:rdf>
      <cc:work rdf:about="">
        <dc:title>Logo Les Bateaux Bordelais</dc:title>
      </cc:work>
    </rdf:rdf>
  </metadata>
</svg>