<svg xmlns="http://www.w3.org/2000/svg" xmlns:xlink="http://www.w3.org/1999/xlink" id="Calque_1" x="0px" y="0px" viewBox="0 0 672.5 332.9" style="enable-background:new 0 0 672.5 332.9;" xml:space="preserve"><style type="text/css">	.st0{fill:#61514C;}	.st1{fill:#857363;}</style><g>	<g>		<g>			<g>				<path class="st0" d="M269.2,9.3l-7.9,5.7l3,9.3l-7.9-5.8l-7.9,5.8l3-9.3l-7.9-5.7h9.7l3-9.3l3,9.3H269.2z"></path>			</g>			<g>				<path class="st0" d="M322,9.3l-7.9,5.7l3,9.3l-7.9-5.8l-7.9,5.8l3-9.3l-7.9-5.7h9.7l3-9.3l3,9.3H322z"></path>			</g>			<g>				<path class="st0" d="M374.8,9.3l-7.9,5.7l3,9.3l-7.9-5.8l-7.9,5.8l3-9.3l-7.9-5.7h9.7l3-9.3l3,9.3H374.8z"></path>			</g>			<g>				<path class="st0" d="M427.6,9.3l-7.9,5.7l3,9.3l-7.9-5.8l-7.9,5.8l3-9.3l-7.9-5.7h9.7l3-9.3l3,9.3H427.6z"></path>			</g>		</g>		<g>			<path class="st1" d="M199.1,72.2c0,0,0.1,0,0.1,0.1c0.2,0.6,0.5,1.1,0.7,1.7c0.1,0.4,1.2,1.2,1.6,0.6c0.1-0.1,0.2-0.2,0.3-0.3    c0.1,0,0.1,0,0.2-0.1c0.1-0.1,0.1-0.1,0.2-0.2c0.3-0.2,0.7-0.2,1-0.2c0.3,0,0.6-0.1,0.5-0.5c-0.3-1.9-3.6-3.9-5-2.1    C198.3,71.5,198.8,72,199.1,72.2z"></path>			<path class="st1" d="M195.4,69.1c0.2,0.6,1.1,1.3,1.6,0.8c0.5-0.4,1.1-0.6,1.6-1c0.2-0.1,0.2-0.4,0.1-0.6    c-0.5-0.9-1.4-1.7-2.4-1.9c-0.3-0.2-0.6-0.2-0.8-0.1C193.7,66,195,68.3,195.4,69.1C195.4,69.1,195.4,69.1,195.4,69.1z"></path>			<path class="st1" d="M191,69.3c0.3,0.1,0.4,0,0.6-0.3c0.2-0.3,0.5-0.4,0.8-0.5c0.4-0.2,0.8-0.5,0.5-1c-0.7-1-2.7-2.2-3.8-1.2    c0,0-0.1,0-0.1,0.1c0,0,0,0,0,0c0,0,0,0-0.1,0.1c0,0,0,0.1,0,0.1C188.5,67.7,190.1,69.2,191,69.3z"></path>			<path class="st1" d="M190.7,72.5c-0.3,1.2,0.6,2.2,1.3,3c0.3,0.4,0.7,0.4,1,0.3c0.2,0.1,0.4,0.1,0.5,0.1c0.9-0.2,2.8-0.8,2.6-2    c-0.1-1.2-1.2-2.3-2.4-2.5C192.8,71.2,191,71.3,190.7,72.5z"></path>			<path class="st1" d="M194.7,84.4c1-0.3,1.6-1.2,2.7-1.5c1.5-0.4,0.9-3.4,0.2-4.2c-0.4-0.5-0.6-1-1.3-1.4    c-0.3-0.2-0.6-0.3-0.9-0.3c-0.8-0.6-1.6-0.8-2.5-0.3c-0.9,0.6-0.8,2.5-0.6,3.3c0.3,1.4,1,2.5,1.6,3.7    C194,84,194.4,84.5,194.7,84.4z"></path>			<path class="st1" d="M183.2,69.5C183.2,69.5,183.1,69.6,183.2,69.5c-0.3,0.5,1.3,1.5,1.5,1.2c0.4-0.7,1.4-0.5,2-0.8    c0.7-0.4,0.2-1.1-0.2-1.5c-0.7-0.7-2.1-1.7-3.2-1.3c-1.4,0.6-0.7,1.4-0.1,2.3C183.1,69.4,183.1,69.5,183.2,69.5z"></path>			<path class="st1" d="M202.6,76.6c-2.4,0.7-1.1,3.4,0.1,4.6c0.3,0.3,0.8,0.6,1.2,0.4c0.1,0,0.1-0.1,0.1-0.1c1,0.2,2.2-0.5,2.9-1    c0.2-0.1,0.2-0.3,0.1-0.6C206.4,78.5,204.4,76,202.6,76.6z"></path>			<path class="st1" d="M178.6,72.6c0.2,0.1,0.4,0.1,0.5-0.1c0.1-0.3,0.3-0.4,0.6-0.5c0.2-0.1,0.1-0.4,0.1-0.5    c-0.5-0.8-1.4-1.4-2.3-1.5c-0.4,0-0.7,0.1-0.8,0.5c-0.1,0.4,0.5,0.7,0.5,1.1C177,72.2,178.4,72.9,178.6,72.6z"></path>			<path class="st1" d="M183.3,77.1c0.1,0.3,0.5,0.5,0.9,0.7c0.3,0.1,0.5,0.2,0.7,0.1c0.8-0.5,1.7-0.9,2.6-1.1    c0.2,0,0.4-0.2,0.3-0.4c-0.5-2.4-4.9-5-6.1-1.9c-0.1,0.2,0.2,0.6,0.3,0.7C182.6,75.7,183,76.4,183.3,77.1z"></path>			<path class="st1" d="M172.9,79c0,0.1,0.1,0.2,0.2,0.2c0.2,0.4,1,1,1.4,0.9c0.9-0.3,1.6-0.8,2.5-1c0.5-0.1,1.1-0.2,1.5-0.5    c0.6,0.1,0.9-0.4,0.4-0.8c0-0.6-0.4-1.3-0.9-1.8c-0.2-0.4-0.5-0.8-0.9-1.1c-1-0.8-2.4-1.4-3.7-1.2c-1,0.1-2.6,0.5-2.8,1.7    c-0.1,0.5,0.3,1,0.6,1.4C171.9,77.4,172.4,78.2,172.9,79z"></path>			<path class="st1" d="M182.5,84.8c0.3,0.6,0.6,1.2,0.9,1.7c0.3,0.3,0.7,0.7,1.2,0.6c0.1,0,0.2-0.1,0.3-0.2c0,0,0,0,0,0    c0.6,0.1,1.1-0.4,1.6-0.7c0.6-0.5,1.2-0.3,1.8-0.6c0.9-0.5,1-1.4,0.6-2.3c-1-2-3.2-4-5.6-2.8c-0.8,0.4-2.2,1.3-1.8,2.4    C181.8,83.6,182.2,84.2,182.5,84.8z"></path>			<path class="st1" d="M203.5,84.9c-0.7,0.3-2.3,0.8-2.5,1.7c-0.2,0.9,0.4,1.4,1,1.9c0.6,0.4,1.1,1,1.8,1.6    c0.3,0.3,0.7,0.6,1.1,0.8c0.3,0.3,0.7,0.4,0.9,0.3c0.1-0.1,0.2-0.1,0.3-0.2c0.1,0,0.2,0,0.2,0c0.1,0,0.1-0.1,0-0.2    c0.5-0.4,1-0.8,1.5-1c0.4-0.2,0.8-0.4,1.1-0.6c0.7-0.6,0.6-1.4,0.1-2.1C207.7,85.2,205.8,84,203.5,84.9z"></path>			<path class="st1" d="M205.9,93.8c-0.1-0.1-0.2-0.1-0.3-0.1c-0.2-0.1-0.4-0.2-0.7-0.2c-1.5,0-3.5,1.2-4.3,2.3    c-1.7,2.1,1.4,4.4,2.6,5.9c0.2,0.3,1.2,1,1.5,0.4c0.5-1.1,1.1-1.6,2.3-1.9c0.6-0.1,1.2-0.2,1.8-0.5c0.7-0.4,1.1-1,0.9-1.8    C209.2,96.1,207.5,94.6,205.9,93.8z"></path>			<path class="st1" d="M190.7,90.7c0.9,1.6,1.8,2.9,3,4.2c0.1,0.2,1.1,1,1.3,0.6c0.8-1.3,1.9-1.9,3.2-2.6c0.6-0.3,1.4-0.7,1.5-1.4    c0.1,0,0.2-0.1,0.1-0.2c0,0,0,0,0-0.1c0-0.6-0.5-1.1-1.1-1.6c-1.5-1.7-3.7-3.1-5.8-2.4C191.5,87.8,189.8,89.1,190.7,90.7z"></path>			<path class="st1" d="M182.9,89.5c-1.5-0.2-5.1,0.1-5.7,1.9c-0.3,0.9,0.2,1.6,0.7,2.3c0.8,1.1,1.7,2.3,1.8,3.7c0,0.5,0.8,1,1.3,1    c0.1,0,0.2,0.1,0.4,0.1c0.2,0,0.5-0.1,0.6-0.2c0.6-0.5,1-0.9,1.8-1.1c2-0.6,4.4-0.8,3.1-3.5C186.1,92.2,184.7,89.8,182.9,89.5z"></path>			<path class="st1" d="M170.5,89.3c0.1,0.4,1,1.1,1.4,0.7c1.1-1,2.5-1.2,3.8-1.5c0.8-0.2,1.6-0.4,1.8-1.3c0.2-1.4-2.1-3.5-3.1-4.2    c-0.8-0.5-1.7-0.7-2.7-0.6c-1,0.1-2.6,0.4-3.4,1.1c-1.3,1.1,0.8,3.5,1.7,4.9C170.3,88.6,170.4,88.9,170.5,89.3z"></path>			<path class="st1" d="M163.2,83.7c0.6-1,1.7-0.9,2.7-1.2c0.5-0.2,1.8-0.4,1.8-1.2c0,0,0,0,0,0c0,0,0,0,0,0c0-0.4-0.5-0.8-0.9-1.1    c-0.6-0.6-1.5-1.1-2.2-0.8c-1.2,0.5-2.6,2-2.9,3.3C161.6,83,163,84.1,163.2,83.7z"></path>			<path class="st1" d="M162.1,94.5c0.8,0.1,1.4-0.5,2.3-0.8c0.9-0.4,3.2-0.6,3-2.1c-0.1-1-0.8-1.8-1.6-2.5    c-0.9-0.9-1.9-1.7-3.2-1.9c-1.1-0.2-3-0.2-3.7,0.8c-1.3,1.7,1.1,4.2,1.6,5.8C160.6,94.2,162.1,95,162.1,94.5z"></path>			<path class="st1" d="M210.8,102.2C210.8,102.2,210.7,102.2,210.8,102.2c-0.3-0.4-0.8-0.6-1.2-0.5c-1.4,0.4-3.9,2-3.1,3.8    c0.7,1.7,2.4,2.8,3.8,3.7c0.4,0.2,1.1,0.4,1.3-0.2c0.4-1.2,0.2-2.7,0.2-3.9C211.7,104.3,211.8,102.7,210.8,102.2z"></path>			<path class="st1" d="M202.5,113.8c1.9-1.2,4.5-2.2,3.2-4.2c-1.4-2.2-5.4-2.9-7.8-2.6c-1.5,0.2-4.2,0.8-3.9,2.8    c0.2,1.9,1.9,3.1,3,4.4c0.6,0.7,1.9,2.4,3.2,2.3c0.3,0.1,0.5,0,0.5-0.1c0.7-0.4,0.6-1.4,1.1-1.9    C202.1,114.2,202.3,114,202.5,113.8z"></path>			<path class="st1" d="M190,106.2c0.2,0.5,0.7,0.9,1.3,0.8c1.6-0.3,3.1-1.2,4.6-1.7c0.8-0.3,1.9-0.8,1.8-1.8    c-0.1-1.8-1.2-3.3-2.6-4.3c-1.7-1.6-4.3-1.6-6.7-0.6C184.8,99.9,189.1,104.2,190,106.2z"></path>			<path class="st1" d="M173.5,97c-1.7-1.5-4-2.6-6.3-2c-1.6-0.1-3.4,0.3-2.9,2.2c0.3,1.3,1.1,2.4,1.6,3.6c0.4,0.9,0.6,1.8,1.4,2.5    c0.6,0.5,1.3,0.8,2,0.3c1.3-0.9,2.5-1.3,3.9-2c1-0.5,2.1-1.1,2-2.4C175.1,98.3,174.1,97.5,173.5,97z"></path>			<path class="st1" d="M154.1,100.4c1.3-1.6,3.3-1.5,4.9-2.6c1.1-0.8,0.8-2.2,0-3c-0.7-0.7-4.1-3.5-5.3-2.3c-0.3,0-0.5,0.1-0.7,0.3    c-1.8,1.6-1,5.1-0.5,7.1C152.6,100.4,153.6,101,154.1,100.4z"></path>			<path class="st1" d="M208.6,115c-0.7-0.2-1.5-0.2-2.2,0.2c-1.7,0.7-4.8,2.6-4.7,4.7c0.1,1.2,1,2.1,2.1,2.6c0.6,0.2,1.3,0.4,2,0.4    c0.6,0.1,1.5,0,2,0.4c0.3,0.2,1,0.5,1.2,0c0.3-1.2,0.6-2.5,1.1-3.6c0.3-0.8,0.7-1.6,0.9-2.6C211.1,115.9,209.8,114.8,208.6,115z"></path>			<path class="st1" d="M206.4,124.9c0,0-0.1,0-0.1,0c-0.3,0-0.7,0-1,0.2c-0.1,0-0.3,0.1-0.4,0.1c-0.7,0.2-1.6,0.4-2.2,0.8    c-2.5,1.7,0.5,3.9,1.4,5.5c0,0.1,0.1,0.1,0.2,0.2c0,0.1,0.1,0.1,0.1,0.2c0.1,0.6,1.3,1.5,1.7,0.7c0.9-2.3,2.8-4.6,1.9-7.1    C207.7,125,206.6,124.6,206.4,124.9z"></path>			<path class="st1" d="M194.4,119.4c-0.1,0-0.2,0.1-0.3,0.1c-2.4,0.4-6,1.6-6,3.9c0,1.4,1.8,2.3,2.7,2.9c1.1,0.7,1.5,1.6,2.2,2.6    c0.2,0.3,0.5,0.5,0.8,0.6c0.2,0.1,0.5,0.1,0.7-0.1c0,0,0,0,0-0.1c0.1,0,0.1-0.1,0.2-0.1c1.5-2.3,5.9-2.2,6.4-5.3    c0.1-0.9-0.1-1.6-0.6-2.3C199.3,119.8,196.4,119,194.4,119.4z"></path>			<path class="st1" d="M187.6,121.1c1.6-2.8,8.2-2.1,5.7-6.6c-0.8-1.4-2-2.3-3.5-2.8c-1.8-0.9-4-1-6,0.3c-3,1.9,1.5,6.3,2.2,8.2    C186.1,120.6,187.2,121.8,187.6,121.1z"></path>			<path class="st1" d="M174,106.6c0.6,1.1,1,2.3,1.5,3.5c0.1,0.4,0.2,0.9,0.4,1.3c0.1,0.4,1,1.2,1.5,1.1c1.6-0.4,2.9-1.5,4.5-2    c1-0.3,2.7-0.8,2.9-2c0.3-2.2-1.7-4.5-3.7-5.4c-1.2-0.6-2.4-0.8-3.8-0.5c-1,0.1-2.6,0.1-3.3,0.8    C172.8,104.1,173.4,105.5,174,106.6z"></path>			<path class="st1" d="M161.3,101.6c-1.7-0.4-5.4-0.4-5.5,2.2c-0.1,2.3,1.8,4.1,2.5,6.1c0.2,0.4,0.7,0.7,1.1,0.7    c0.2,0.1,0.3,0.1,0.4,0.1c1.2-0.2,2.4-1.4,3.5-1.9c1-0.4,2.4-1.1,2.3-2.4C165.6,104.2,163.3,102,161.3,101.6z"></path>			<path class="st1" d="M149,110.2c0.2-2.8,5.5-1.7,4.9-4.7c-0.2-0.9-1.2-2.8-2.4-3.2c-0.5-0.4-1.2-0.7-1.7-0.5    c-0.3,0.1-0.6,0.3-0.9,0.5c-0.7,0.3-1.2,0.9-1.5,1.7c-0.7,1.8-0.4,3.6,0,5.4C147.6,109.6,149,110.6,149,110.2z"></path>			<path class="st1" d="M150.2,111.3c-0.3,2.2,1.3,4.1,2.2,6c0.1,0.3,0.5,0.5,0.9,0.6c0.2,0.1,0.4,0.2,0.7,0.1    c1.4-0.5,2.6-1.3,3.8-2c0.9-0.5,1.5-1.1,1.4-2.2c-0.1-0.9-0.9-1.9-1.5-2.6c-0.6-0.7-1.4-1.7-2.4-1.9    C154.1,109.1,150.5,109.6,150.2,111.3z"></path>			<path class="st1" d="M168.1,118.5c1.7-1.3,3.8-1.8,5.7-2.7c1.2-0.5,1.9-1,1.4-2.3c-0.1-0.3-0.3-0.7-0.6-1.1c-0.6-1-1.4-1.9-2-2.4    c-1.6-1.3-3.4-2-5.5-1.4c-1.3,0.4-3.9,1-3.5,2.9c0.5,2.2,2,4.3,3,6.2C166.8,118.1,167.7,118.8,168.1,118.5z"></path>			<path class="st1" d="M174.6,126.8c0.7,1.1,1.6,1.2,2.6,0.5c2.4-1.4,8.6-3,5.2-6.8c-2.6-2.9-6.6-5-10.2-2.3    c-1.3,0.9-1.3,2.1-0.6,3.5c0.8,1.5,1.7,3,2.6,4.4C174.4,126.4,174.5,126.6,174.6,126.8z"></path>			<path class="st1" d="M183.6,136.7c0.7-0.9,2.1-1.8,3.4-2.7c0,0,0,0,0,0c0.6-0.4,1.7-0.8,2.1-1.5c0.1-0.1,0.1-0.2,0.1-0.3    c0.2-0.1,0.3-0.2,0.2-0.5c0-0.6-0.3-1.2-0.5-1.7c0,0,0,0,0,0c-1.2-2.4-4.3-4.4-6.7-3.4c-1.7,0.7-4.1,2-3.8,4.1    c0.1,0.8,0.6,1.4,1.1,2c0.9,1.2,1.7,2.5,2.6,3.7C182.4,136.7,183.2,137.2,183.6,136.7z"></path>			<path class="st1" d="M197.5,136.3c1-0.5,1.9-1.2,2.7-1.8c0.4-0.3,1-0.7,1.3-1.2c0,0,0,0,0.1,0c0.2,0,0.4-0.3,0.4-0.5    c-0.3-2.5-3.1-4.8-5.6-3.7c-3.4,1.5-1.4,4.5-0.1,6.8C196.4,136.2,197.1,136.6,197.5,136.3z"></path>			<path class="st1" d="M202.6,134.6c-0.4-0.3-0.6-0.3-0.7-0.1c-1.4-0.3-3.7,1.3-4.2,2.6c-0.6,1.7,0.2,3,0.8,4.6    c0.1,0.3,1.3,1.4,1.6,0.9c0.6-1.1,1.3-2.3,2.1-3.2c0.5-0.6,1.1-1.2,1.4-1.9C204.2,136.1,203.7,135.4,202.6,134.6z"></path>			<path class="st1" d="M190.1,143.5c0.7-1.8,2.2-2.5,3.5-3.9c0.7-0.8,1.2-1.7,0.9-2.8c-0.6-1.8-2.3-3.2-4.2-3.6    c-0.4-0.1-0.6,0-0.7,0.1c-1.9-0.1-4.5,2.5-4.2,4.4c0.3,2.2,2.2,3.5,3,5.4C188.7,143.6,189.7,144.3,190.1,143.5z"></path>			<path class="st1" d="M195.2,139.9c-1.5-0.7-2.6,0.7-3.4,1.8c-1.1,1.5-1.9,3.3-1.2,5.1c0.1,0.1,0.3,0.3,0.5,0.5    c1.4,1.5,4.6-0.8,5.7-1.7c0.8-0.6,2.1-1.6,1.5-2.7C197.9,141.8,196.4,140.5,195.2,139.9z"></path>			<path class="st1" d="M186.6,143.5c-1,0.3-2,1.4-2.7,2.1c-1.1,1-2,2.1-2.7,3.3c-0.4,0.7,0.6,1.4,1.3,1.3c2.3-0.3,5.2-0.4,7.2-1.6    c0.4-0.2,0.6-0.5,0.7-0.7c0.3,0,0.5-0.2,0.3-0.6C189.9,145.7,188.9,142.8,186.6,143.5z"></path>			<path class="st1" d="M184.5,144.8c0.7-0.7,2-1.9,1.8-3.1c-0.2-1.1-1.1-2.4-2.2-3.1c-0.7-0.7-1.5-1.1-2.4-1.1    c-1.3,0.1-2.4,1-3.6,1.5c-0.8,0.4-2.3,0.9-2.3,2.1c0,1.1,0.8,1.8,1.5,2.6c1,1.2,2,2.4,2.5,4c0.1,0.5,1.3,1.3,1.6,0.6    C182.1,146.8,183.3,145.9,184.5,144.8z"></path>			<path class="st1" d="M170.7,143.9c-0.7,1.8-0.8,4.2,1,5.5c2.3,1.7,6.2,1.5,8.8,1.1c0.2,0,0.2-0.1,0.3-0.2c0.1,0,0.1-0.2,0-0.4    C179.3,147.5,173.3,137.2,170.7,143.9z"></path>			<path class="st1" d="M169.8,146.4c0-0.1,0-0.2,0-0.2c0.1-0.3,0.1-0.7,0.1-1c0-0.1,0-0.3,0-0.4c0-0.1-0.1-0.3-0.3-0.4c0,0,0,0,0,0    c-0.4-0.4-1-0.9-1.5-1.1c-2.2-0.6-5.3,1.3-7.2,2.2c-0.3,0.1,0.3,0.6,0.4,0.6c2.7,2.1,5.8,2.9,9.2,3.5c0,0,0,0,0,0    c0.2,0.1,0.3,0,0.1-0.2C170,148.5,169.8,147.4,169.8,146.4z"></path>			<path class="st1" d="M174,140.6c0.9-2.3,4.6-1.7,5.4-3.9c0.2-0.4,0.2-0.7,0.1-1.1c0,0,0,0,0,0c0,0,0,0,0,0    c-0.1-0.4-0.2-0.7-0.5-1c-1.5-2.9-5.2-4.8-8.3-3.3c-3.3,1.6,0.5,6.8,1.8,8.5C172.7,140,173.8,141.1,174,140.6z"></path>			<path class="st1" d="M165.9,132.9c0.3,0.3,1,0.6,1.3,0.2c0.8-1,1.9-1.5,3.1-1.9c0.6-0.2,1.3-0.4,1.8-0.8c0.7-0.6,1.2-1.4,0.9-2.3    c-0.4-1.3-1.4-2.3-2.6-3c-1-0.8-2.2-1.3-3.1-1.3c-1.4,0-4.8,0.4-4.4,2.6c0.2,1.3,0.9,2.4,1.4,3.6    C164.7,131,165.1,132,165.9,132.9z"></path>			<path class="st1" d="M161,116.2c-1.3,0.1-4.5,0.5-4.2,2.5c0.3,2.1,1.3,4.2,2.4,6c0.1,0.3,1.2,1.2,1.5,0.7    c1.1-1.7,2.9-1.7,4.6-2.5c1-0.4,1.7-0.9,1.2-2c-0.4-1.1-1.8-3.2-3.2-3.8C162.6,116.6,161.8,116.2,161,116.2z"></path>			<path class="st1" d="M146.8,122.1c0.2,0.5,1.1,1.1,1.6,0.6c0.6-0.5,1.3-1.1,2.1-1.4c0.5-0.2,1.1-0.3,1.5-0.6    c0.7-0.4,1-0.8,0.9-1.6c-0.2-1.7-2-3.4-3.2-4.4c-0.1-0.1-0.3-0.2-0.4-0.2c-0.2-0.2-0.4-0.3-0.6-0.4c-1.2-0.6-3.4,0.9-3.8,2    c-0.3,0.7,0.4,1.9,0.6,2.5C145.9,119.7,146.2,120.9,146.8,122.1z"></path>			<path class="st1" d="M144.9,123.4c0.7-0.3,1.5-1.3,1.2-2.1c-0.3-1-1.1-1.8-1.2-2.8c0,0,0-0.1,0-0.1c0-0.2,0.1-0.4,0.1-0.6    c0.1-0.5-1.5-1.3-1.6-1.1c-0.4,1.8-1,4.1-0.1,5.8C143.6,122.7,144.4,123.5,144.9,123.4z"></path>			<path class="st1" d="M149.4,123.1c-0.4,0.8,0.2,2.1,0.5,2.9c0.5,1.1,1,2.2,1.5,3.3c0.2,0.4,0.9,1,1.4,0.7c0.9-0.5,1.8-1,2.8-1.4    c0.8-0.3,1.7-0.6,2.4-1.2c0.6-0.5,0.2-1.8,0-2.4c-0.7-1.8-2.6-4.5-4.9-3.9c0,0-0.1,0-0.1,0.1C151.6,121.2,150,122,149.4,123.1z"></path>			<path class="st1" d="M156.6,136.1C156.6,136.1,156.6,136.2,156.6,136.1c0.1,0.5,1.1,1.3,1.6,0.9c1.2-1.2,2.7-1.5,4.2-2.2    c0.9-0.5,1.5-1,1.2-2.1c-0.3-1-1.1-2.1-1.7-2.9c-0.5-0.7-1.2-1.4-2.1-1.6c-1.4-0.3-5,0.5-5.5,2.1c-0.4,1.1,0.5,2.3,0.9,3.3    C155.6,134.4,156,135.4,156.6,136.1z"></path>			<path class="st1" d="M162.1,142.8c0.1,0.5,0.8,1,1.3,1c1.6-0.2,3-1.4,4.6-1.2c0.8,0.1,2.4,0.6,3-0.2c0.2-0.2,0.3-0.5,0.3-0.7    c0.2,0,0.3,0,0.2-0.3c-1-2.6-3.5-7.1-6.9-6.7c-0.9,0.1-4.9,0.9-4.9,2.2c0,0.8,0.5,1.5,0.8,2.2    C161.1,140.2,161.7,141.4,162.1,142.8z"></path>			<path class="st1" d="M162,142.8c-0.4-1.1-3.6-6.6-5.3-4.9c0,0,0,0,0,0c-1.3,0-2.6,1.1-3.6,2c-0.2,0.1,0,0.5,0.1,0.6    c1.6,1.9,4,3.5,6.4,4.4C161.1,145.6,162.7,144.4,162,142.8z"></path>			<path class="st1" d="M154.4,133.6c-0.2-0.4-0.5-0.7-0.8-1.1c-0.4-0.7-1-1.4-1.8-1.7c-1.2-0.5-2.9,0.2-3.9,0.9    c-1.3,0.9-0.7,2.2,0.1,3.2c1,1.3,1.8,2.9,3.2,3.8c1.5,0.9,2.7,0.1,3.8-0.9C156.7,136.5,155.2,134.8,154.4,133.6z"></path>			<path class="st1" d="M149.6,130.5c2.1-1.6,0-4.5-1.2-6.1c-0.3-0.4-0.6-0.7-1.1-0.8c0,0,0,0-0.1,0c-0.4-0.3-0.9-0.4-1.4-0.4    c-0.6,0.1-2.6,0.2-2.5,1.2c0.1,1.3,0.9,2.7,1.4,4c0.5,1.3,0.7,2.5,2.1,3.1C147.9,132,149,131,149.6,130.5z"></path>			<path class="st1" d="M110.5,82.9c-3.5-3.6-8.3-6.5-14.3-8.8c-6-2.2-13.8-3.3-23.2-3.3H56.6v75.5H70c7.6,0,14.1-0.8,19.4-2.3    c5.3-1.5,10-3.6,13.9-6.1c4.8-3.4,8.7-7.7,11.7-12.6c3-5,4.5-10.6,4.5-16.7c0-4.4-0.6-9-1.9-13.4C116.4,90.6,114,86.5,110.5,82.9    z M64.2,73h7.5c6.7,0,12.6,0.9,17.7,2.6c5,1.7,9.3,4.1,12.7,7.2c3.4,3.1,6,6.8,7.7,11c1.7,4.3,2.6,9,2.6,14.1v0.6    c-0.1,4.8-1.2,9.5-3.2,13.8c-2.1,4.3-5,8.2-8.7,11.4c-3.7,3.2-8.2,5.8-13.4,7.7c-5.2,1.9-10.9,2.9-17.2,2.9h-5.8V73z"></path>			<path class="st1" d="M322.4,71c-0.2,0.4-1,1.6-2.2,3.9c-1.3,2.2-2.8,5-4.7,8.3c-1.9,3.3-4,7-6.3,11.2c-2.3,4.1-4.7,8.3-7.1,12.6    l-18.6,32.7l-38.7-68.9h-4.1v75.5h9l-0.6-0.8c-2.2-2.9-3.7-6.8-4.5-11.5c-0.8-4.8-1.3-10.1-1.4-15.8V81.8c0.3,0.5,0.6,1.1,1,1.8    c1.2,2,2.6,4.6,4.4,7.8c1.8,3.2,3.8,6.7,6,10.7c2.2,4,4.4,8,6.7,12.2l18.4,32.8h2.3l36-63.7v63h7.6V70.8h-3.2L322.4,71z"></path>			<path class="st1" d="M386.7,77.1c-1.4-2.7-2.4-4.9-3.2-6.5l-0.5-0.9l-36,76.6h8.9l-0.2-0.6c-0.2-0.8-0.3-1.7-0.3-2.7    c0-1.2,0.2-2.8,0.6-5c0.4-2.2,1.1-4.7,2.1-7.7c1-3,2.1-6.1,3.4-9c1.2-2.8,2.3-5.3,3.3-7.6h31.5c1.8,4,3.7,7.9,5.5,11.7    c1.8,3.8,3.5,7.3,4.9,10.6l4.9,10.4h8.5l-29-59.8C389.6,83.2,388.1,80,386.7,77.1z M395.2,111.6h-29.4l14.7-31.1L395.2,111.6z"></path>			<rect x="441.3" y="70.8" class="st1" width="7.6" height="75.5"></rect>			<path class="st1" d="M530.7,71.6c1.2,1.7,2.3,3.7,3,5.9c0.8,2.3,1.4,4.9,1.8,7.6c0.5,2.7,0.8,5.7,0.9,8.8    c0.1,3.1,0.2,6.4,0.2,9.7v35.1L481.2,71l-0.2-0.2h-4.3v75.5h9l-0.6-0.8c-2-2.8-3.5-6.4-4.3-10.7c-0.9-4.4-1.4-9.3-1.5-14.6V78.3    l55.4,67.8l0.2,0.2h4.3V70.8h-9L530.7,71.6z"></path>			<path class="st1" d="M613.9,138.1c-1.9,1.5-4.1,2.6-6.7,3.3c-2.6,0.8-5.4,1.4-8.2,1.7c-2.8,0.4-5.7,0.6-8.7,0.7    c-2.9,0.1-5.6,0.2-8,0.3h-8.8v-32.7h39.9v-2.2h-39.9V73h8.8c2.5,0,5.2,0,8,0.1c2.9,0.1,5.8,0.3,8.6,0.7c2.9,0.4,5.6,1,8.2,1.9    c2.6,0.8,4.8,1.9,6.7,3.4l1.1,0.8l-1.7-9.1h-47.3v75.5h47.3l1.7-9L613.9,138.1z"></path>		</g>		<g>			<path class="st1" d="M53.9,193.9c-3.5-3.6-8.3-6.5-14.3-8.8c-6-2.2-13.8-3.3-23.2-3.3H0v75.5h13.4c7.6,0,14.1-0.8,19.4-2.3    c5.3-1.5,10-3.6,13.9-6.1c4.8-3.4,8.7-7.7,11.7-12.6c3-5,4.5-10.6,4.5-16.7c0-4.4-0.6-9-1.9-13.4    C59.8,201.6,57.4,197.5,53.9,193.9z M13.4,255.3H7.6V184h7.5c6.7,0,12.6,0.9,17.7,2.6c5,1.7,9.3,4.1,12.7,7.2    c3.4,3.1,6,6.8,7.7,11c1.7,4.3,2.6,9,2.6,14.1v0.6c-0.1,4.8-1.1,9.5-3.2,13.8c-2.1,4.3-5,8.2-8.7,11.4c-3.7,3.2-8.2,5.8-13.4,7.7    C25.4,254.3,19.7,255.3,13.4,255.3z"></path>			<path class="st1" d="M144.9,183.7c-1.5-1.2-3.1-1.9-4.8-2l-0.6-0.1v8.5h0.8c1.2,0,2.2,0.3,3,1c0.9,0.6,1.8,1.6,2.5,3.1    c0.7,1.5,1.2,3.8,1.3,6.9v30.6c0,4.2-0.7,7.8-2.1,10.9c-1.4,3-3.3,5.6-5.6,7.6c-2.3,2-5,3.5-8,4.4c-3,1-6.1,1.5-9.3,1.5h-0.9    c-8,0-14.3-2.1-18.6-6.2c-4.3-4.1-6.5-10.1-6.5-17.9v-45.1c0-1.6-0.5-2.9-1.6-3.9c-1.1-1-2.3-1.5-3.8-1.5h-7.1v2.2h0.5    c1.3,0,2.3,0.4,3.2,1.2c0.8,0.8,1.2,1.9,1.2,3.2v43.9c0,2.3,0.3,5,1,8.1c0.7,3.1,2.2,6,4.4,8.8c2.2,2.7,5.4,5,9.5,6.9    c4.1,1.9,9.6,2.8,16.4,2.8c4.5,0,8.4-0.5,11.6-1.5c3.2-1,5.9-2.3,8.2-3.9c2.2-1.6,4-3.4,5.3-5.4c1.3-1.9,2.3-3.9,3-5.9    c0.7-2,1.1-3.9,1.4-5.7c0.2-1.8,0.3-3.3,0.3-4.5v-32.5c-0.1-4.5-0.6-8-1.6-10.4C147.2,186.6,146.1,184.8,144.9,183.7z"></path>			<path class="st1" d="M226.2,181.8v75.5h7.6v-40.5h30.1v-2.2h-30.1V184h8.9c2.6,0,5.3,0.1,8.1,0.2c2.9,0.1,5.8,0.4,8.7,0.7    c2.8,0.4,5.6,1,8.2,1.8c2.6,0.8,4.8,1.9,6.7,3.4l1.1,0.8l-1.8-9.1H226.2z"></path>			<path class="st1" d="M341.5,252.5c-2.6,0.8-5.4,1.4-8.2,1.7c-2.8,0.4-5.7,0.6-8.7,0.7c-2.9,0.1-5.6,0.2-8,0.3h-8.8v-32.7h39.9    v-2.2h-39.9V184h8.8c2.5,0,5.2,0,8,0.1c2.9,0.1,5.8,0.3,8.6,0.7c2.8,0.4,5.6,1,8.2,1.8c2.6,0.8,4.8,1.9,6.7,3.4l1.1,0.8l-1.7-9.1    h-47.3v75.5h47.3l1.7-9l-1.1,0.8C346.3,250.7,344.1,251.8,341.5,252.5z"></path>			<path class="st1" d="M431.8,256l-0.5-0.7c-0.3-0.3-0.7-0.8-1-1.3c-0.4-0.6-0.9-1.2-1.4-1.8c-1.1-1.6-2.5-3.4-4.2-5.6    c-1.6-2.2-3.4-4.5-5.3-7c-1.9-2.5-3.9-5.1-6-7.7c-1.9-2.5-3.8-4.9-5.6-7.2c4-0.9,7.2-2.2,9.7-3.9c2.6-1.8,4.7-3.7,6.1-5.7    c1.4-2,2.3-4.1,2.7-6.2c0.4-2,0.7-3.8,0.7-5.3c0-2.8-0.5-5.6-1.4-8.2c-0.9-2.6-2.7-5-5.3-7c-2.6-2-6.3-3.6-11-4.8    c-4.7-1.2-10.8-1.8-18.2-1.8h-13.4v75.5h7.6V184h4.8c4.4,0,8.4,0.4,12.1,1.1c3.6,0.7,6.8,1.8,9.4,3.4c2.6,1.6,4.6,3.6,6.1,6.1    c1.4,2.5,2.2,5.5,2.2,9c0,3.1-0.6,5.9-1.7,8.3c-1.1,2.4-2.6,4.5-4.6,6.2c-1.9,1.7-4.2,3-6.7,4c-2.5,0.9-5.3,1.5-8.2,1.7l-0.9,0.1    l0.6,0.7c0.7,0.9,1.5,1.9,2.2,2.9l7.3,9.2c1.6,2.1,3.2,4.1,4.7,6c1.5,1.9,2.8,3.6,3.9,5.1l7.5,9.6h9l-0.9-0.9    C431.9,256.3,431.8,256.1,431.8,256z"></path>			<path class="st1" d="M513.5,256l-0.5-0.7c-0.3-0.3-0.7-0.8-1-1.3c-0.4-0.6-0.8-1.2-1.4-1.8c-1.1-1.6-2.5-3.4-4.2-5.6    c-1.6-2.2-3.4-4.5-5.3-7l-6-7.7c-1.9-2.5-3.8-4.9-5.6-7.2c4-0.9,7.2-2.2,9.7-3.9c2.6-1.8,4.7-3.7,6.1-5.7c1.4-2,2.3-4.1,2.7-6.2    c0.4-2,0.7-3.8,0.7-5.3c0-2.8-0.5-5.6-1.4-8.2c-0.9-2.6-2.7-5-5.3-7c-2.6-2-6.3-3.6-11-4.8c-4.7-1.2-10.8-1.8-18.2-1.8h-13.4    v75.5h7.6V184h4.8c4.4,0,8.4,0.4,12.1,1.1c3.6,0.7,6.8,1.8,9.4,3.4c2.6,1.6,4.6,3.6,6.1,6.1c1.4,2.5,2.2,5.5,2.2,9    c0,3.1-0.6,5.9-1.7,8.3c-1.1,2.4-2.6,4.5-4.6,6.2c-1.9,1.7-4.2,3-6.7,4c-2.5,0.9-5.3,1.5-8.2,1.7l-0.9,0.1l0.6,0.7    c0.7,0.9,1.5,1.9,2.2,2.9l7.3,9.2c1.6,2.1,3.2,4.1,4.7,6c1.5,1.9,2.8,3.6,3.9,5.1l7.5,9.6h9l-0.9-0.9    C513.6,256.3,513.5,256.1,513.5,256z"></path>			<path class="st1" d="M581.3,252.5c-2.6,0.8-5.4,1.4-8.2,1.7c-2.8,0.4-5.7,0.6-8.7,0.7c-2.9,0.1-5.6,0.2-8,0.3h-8.8v-32.7h39.9    v-2.2h-39.9V184h8.8c2.5,0,5.2,0,8,0.1c2.9,0.1,5.8,0.3,8.6,0.7c2.8,0.4,5.6,1,8.2,1.8c2.6,0.8,4.8,1.9,6.7,3.4l1.1,0.8l-1.7-9.1    H540v75.5h47.3l1.7-9l-1.1,0.8C586,250.7,583.8,251.8,581.3,252.5z"></path>			<path class="st1" d="M611,181.7v9l0.8-0.6c1.7-1.2,3.7-2.3,5.8-3.1c2.1-0.8,4.3-1.5,6.6-2c2.3-0.5,4.6-0.8,6.9-1    c2.2-0.2,4.3-0.2,6.3-0.3v73.6h7.6v-73.6c5.5,0.2,10.4,0.7,14.6,1.6c4.2,0.9,7.9,2.5,10.9,4.7l0.8,0.6v-9H611z"></path>		</g>	</g>	<g>		<path class="st0" d="M1.7,312.4h8.7c2.5,0,4.5,0.8,5.8,2c1,1,1.6,2.4,1.6,4v0.1c0,3.4-2.3,5.3-5.5,5.9l6.2,8.3h-2.8l-5.9-7.9H4   v7.9H1.7V312.4z M10.3,322.8c3.1,0,5.2-1.6,5.2-4.2v-0.1c0-2.5-1.9-4-5.2-4H4v8.3H10.3z"></path>		<path class="st0" d="M22.6,312.4h14.7v2.1H24.9v6.9H36v2.1H24.9v7.1h12.6v2.1H22.6V312.4z M32,306.9l2.3,1l-3.3,2.7h-1.9L32,306.9   z"></path>		<path class="st0" d="M40.7,329.8l1.4-1.7c2.1,1.9,4.2,2.9,7,2.9c2.7,0,4.5-1.5,4.5-3.5v-0.1c0-1.9-1-3-5.3-3.9   c-4.7-1-6.8-2.5-6.8-5.9v-0.1c0-3.2,2.8-5.6,6.7-5.6c3,0,5.1,0.8,7.2,2.5l-1.3,1.8c-1.9-1.5-3.8-2.2-5.9-2.2   c-2.6,0-4.3,1.5-4.3,3.3v0.1c0,1.9,1,3,5.5,4c4.5,1,6.6,2.6,6.6,5.8v0.1c0,3.5-2.9,5.8-6.9,5.8C45.7,333,43.1,332,40.7,329.8z"></path>		<path class="st0" d="M60.7,312.4H63v20.3h-2.3V312.4z"></path>		<path class="st0" d="M68.8,312.4h7.1c6.4,0,10.8,4.4,10.8,10.1v0.1c0,5.7-4.4,10.2-10.8,10.2h-7.1V312.4z M75.9,330.6   c5.1,0,8.4-3.5,8.4-8v-0.1c0-4.5-3.3-8.1-8.4-8.1h-4.8v16.1H75.9z"></path>		<path class="st0" d="M91.4,312.4h14.7v2.1H93.7v6.9h11.1v2.1H93.7v7.1h12.6v2.1H91.4V312.4z"></path>		<path class="st0" d="M110.8,312.4h2.2l12.8,16.3v-16.3h2.2v20.3h-1.8L113,316.1v16.7h-2.2V312.4z"></path>		<path class="st0" d="M132.7,322.6L132.7,322.6c0-5.8,4.3-10.6,10.3-10.6c3.7,0,5.9,1.3,7.9,3.2l-1.6,1.7c-1.7-1.6-3.6-2.8-6.4-2.8   c-4.5,0-7.9,3.7-7.9,8.3v0.1c0,4.7,3.4,8.4,7.9,8.4c2.8,0,4.6-1.1,6.6-2.9l1.5,1.5c-2.1,2.2-4.4,3.6-8.1,3.6   C137.1,333.1,132.7,328.5,132.7,322.6z"></path>		<path class="st0" d="M155,312.4h14.7v2.1h-12.4v6.9h11.1v2.1h-11.1v7.1h12.6v2.1H155V312.4z"></path>		<path class="st0" d="M182.9,312.4h2.3v9H197v-9h2.3v20.3H197v-9.2h-11.7v9.2h-2.3V312.4z"></path>		<path class="st0" d="M204,322.6L204,322.6c0-5.7,4.2-10.6,10.4-10.6c6.2,0,10.3,4.9,10.3,10.5v0.1c0,5.6-4.2,10.5-10.4,10.5   C208.1,333.1,204,328.2,204,322.6z M222.4,322.6L222.4,322.6c0-4.7-3.4-8.5-8-8.5s-8,3.7-8,8.3v0.1c0,4.6,3.4,8.4,8,8.4   S222.4,327.3,222.4,322.6z M213.3,306.9h2.1l3.2,3.4h-2.1l-2.2-1.7l-2.2,1.7h-2L213.3,306.9z"></path>		<path class="st0" d="M233.5,314.5h-6.8v-2.1h16v2.1h-6.8v18.2h-2.3V314.5z"></path>		<path class="st0" d="M246.8,312.4h14.7v2.1h-12.4v6.9h11.1v2.1h-11.1v7.1h12.6v2.1h-14.9V312.4z"></path>		<path class="st0" d="M266.1,312.4h2.3v18.2h11.5v2.1h-13.7V312.4z"></path>		<path class="st0" d="M284.2,312.4h2.3v20.3h-2.3V312.4z"></path>		<path class="st0" d="M292.4,312.4h14.7v2.1h-12.4v6.9h11.1v2.1h-11.1v7.1h12.6v2.1h-14.9V312.4z M300.7,310.6h-1.9l-3.3-2.7l2.3-1   L300.7,310.6z"></path>		<path class="st0" d="M311.7,312.4h8.7c2.5,0,4.5,0.8,5.8,2c1,1,1.6,2.4,1.6,4v0.1c0,3.4-2.3,5.3-5.5,5.9l6.2,8.3h-2.8l-5.9-7.9   H314v7.9h-2.3V312.4z M320.3,322.8c3.1,0,5.2-1.6,5.2-4.2v-0.1c0-2.5-1.9-4-5.2-4H314v8.3H320.3z"></path>		<path class="st0" d="M332.6,312.4h14.7v2.1h-12.4v6.9H346v2.1h-11.1v7.1h12.6v2.1h-14.9V312.4z"></path>		<path class="st0" d="M360.8,322.5L360.8,322.5c0-2.2,1.8-3.8,3.8-3.8c2,0,3.8,1.7,3.8,3.8v0.1c0,2.1-1.7,3.8-3.8,3.8   C362.5,326.3,360.8,324.6,360.8,322.5z"></path>		<path class="st0" d="M382.9,312.4h8.7c2.5,0,4.5,0.8,5.8,2c1,1,1.6,2.4,1.6,4v0.1c0,3.4-2.3,5.3-5.5,5.9l6.2,8.3h-2.8l-5.9-7.9   h-5.8v7.9h-2.3V312.4z M391.5,322.8c3.1,0,5.2-1.6,5.2-4.2v-0.1c0-2.5-1.9-4-5.2-4h-6.3v8.3H391.5z"></path>		<path class="st0" d="M403.8,312.4h14.7v2.1h-12.4v6.9h11.1v2.1h-11.1v7.1h12.6v2.1h-14.9V312.4z"></path>		<path class="st0" d="M421.8,329.8l1.4-1.7c2.1,1.9,4.2,2.9,7,2.9c2.7,0,4.5-1.5,4.5-3.5v-0.1c0-1.9-1-3-5.3-3.9   c-4.7-1-6.8-2.5-6.8-5.9v-0.1c0-3.2,2.8-5.6,6.7-5.6c3,0,5.1,0.8,7.2,2.5l-1.3,1.8c-1.9-1.5-3.8-2.2-5.9-2.2   c-2.6,0-4.3,1.5-4.3,3.3v0.1c0,1.9,1,3,5.5,4c4.5,1,6.6,2.6,6.6,5.8v0.1c0,3.5-2.9,5.8-6.9,5.8C426.9,333,424.3,332,421.8,329.8z"></path>		<path class="st0" d="M446.6,314.5h-6.8v-2.1h16v2.1h-6.8v18.2h-2.3V314.5z"></path>		<path class="st0" d="M464.9,312.3h2.2l9.3,20.5h-2.5l-2.4-5.4h-11.1l-2.4,5.4h-2.4L464.9,312.3z M470.5,325.3l-4.6-10.4l-4.7,10.4   H470.5z"></path>		<path class="st0" d="M479.1,324.2v-11.8h2.3v11.7c0,4.4,2.3,6.9,6.2,6.9c3.8,0,6.1-2.3,6.1-6.7v-11.8h2.3v11.7c0,5.9-3.4,9-8.5,9   C482.6,333.1,479.1,330,479.1,324.2z"></path>		<path class="st0" d="M501.4,312.4h8.7c2.5,0,4.5,0.8,5.8,2c1,1,1.6,2.4,1.6,4v0.1c0,3.4-2.3,5.3-5.5,5.9l6.2,8.3h-2.8l-5.9-7.9   h-5.8v7.9h-2.3V312.4z M509.9,322.8c3.1,0,5.2-1.6,5.2-4.2v-0.1c0-2.5-1.9-4-5.2-4h-6.3v8.3H509.9z"></path>		<path class="st0" d="M529.8,312.3h2.2l9.3,20.5h-2.5l-2.4-5.4h-11.1l-2.4,5.4h-2.4L529.8,312.3z M535.5,325.3l-4.6-10.4l-4.7,10.4   H535.5z"></path>		<path class="st0" d="M545.1,312.4h2.2l12.8,16.3v-16.3h2.2v20.3h-1.8l-13.1-16.7v16.7h-2.2V312.4z"></path>		<path class="st0" d="M573.3,314.5h-6.8v-2.1h16v2.1h-6.8v18.2h-2.3V314.5z"></path>		<path class="st0" d="M595.5,322.5L595.5,322.5c0-2.2,1.8-3.8,3.8-3.8c2,0,3.8,1.7,3.8,3.8v0.1c0,2.1-1.7,3.8-3.8,3.8   S595.5,324.6,595.5,322.5z"></path>		<path class="st0" d="M616.3,329.8l1.4-1.7c2.1,1.9,4.2,2.9,7,2.9c2.7,0,4.5-1.5,4.5-3.5v-0.1c0-1.9-1-3-5.3-3.9   c-4.7-1-6.8-2.5-6.8-5.9v-0.1c0-3.2,2.8-5.6,6.7-5.6c3,0,5.1,0.8,7.2,2.5l-1.3,1.8c-1.9-1.5-3.8-2.2-5.9-2.2   c-2.6,0-4.3,1.5-4.3,3.3v0.1c0,1.9,1,3,5.5,4c4.5,1,6.6,2.6,6.6,5.8v0.1c0,3.5-2.9,5.8-6.9,5.8C621.4,333,618.8,332,616.3,329.8z"></path>		<path class="st0" d="M636.1,312.4h7.6c4.6,0,7.6,2.4,7.6,6.5v0.1c0,4.4-3.7,6.7-8,6.7h-4.9v7.2h-2.3V312.4z M643.5,323.5   c3.4,0,5.6-1.8,5.6-4.5v-0.1c0-2.9-2.2-4.4-5.5-4.4h-5.1v9H643.5z"></path>		<path class="st0" d="M660.9,312.3h2.2l9.3,20.5h-2.5l-2.4-5.4h-11.1l-2.4,5.4h-2.4L660.9,312.3z M666.6,325.3l-4.6-10.4l-4.7,10.4   H666.6z"></path>	</g></g></svg>