<svg class="logo" x="0px" y="0px" viewBox="0 0 1206.1 175" xmlns="http://www.w3.org/2000/svg">
  <path d="M825.3,69H776c-3.8,0-5.3-2.7-3.4-5.9l24.6-42.6c1.1-1.8,0.4-4.2-1.4-5.3L770.5,0.5c-1.8-1.1-4.2-0.4-5.3,1.4l-24.6,42.6
    c-1.9,3.2-5,3.2-6.8,0L709.1,1.9c-1.1-1.8-3.4-2.5-5.3-1.4l-25.4,14.7c-1.8,1.1-2.5,3.4-1.4,5.3l24.6,42.6
    c1.9,3.3,0.3,5.9-3.4,5.9h-49.2c-2.1,0-3.9,1.7-3.9,3.9v29.3c0,2.1,1.7,3.9,3.9,3.9h49.2c3.8,0,5.3,2.7,3.4,5.9l-24.6,42.6
    c-1.1,1.8-0.4,4.2,1.4,5.3l25.4,14.6c1.8,1.1,4.2,0.4,5.3-1.4l24.6-42.6c1.9-3.2,5-3.2,6.8,0l24.6,42.6c1.1,1.8,3.4,2.5,5.3,1.4
    l25.4-14.6c1.8-1.1,2.5-3.4,1.4-5.3l-24.6-42.6c-1.9-3.2-0.3-5.9,3.4-5.9h49.2c2.1,0,3.9-1.7,3.9-3.9V72.8
    C829.1,70.7,827.4,69,825.3,69z M735.1,84.4h-11.6c1.6,6.6,5.9,10.7,11.6,13.3c-0.1,1.4-2,2.9-2.9,4.3c-5.1-2.6-9-6.4-11.3-11.8
    c-2.7,5.1-6.2,9.4-11.3,12.1c-1.4-1-2-2.8-3.4-3.9c5.4-3,9.9-7,11.6-13.7c-3.4-0.6-7.8-0.1-11.6-0.2v-4.1h12.3v-7.5h4.6v7.5h12.1
    L735.1,84.4L735.1,84.4z M743.6,101.7h-4.3V73.5h9.6c0.7,0.9,1.4,1.8,1.9,2.9c0,2.7-2.7,4.3-2.7,7.2c0,1.8,1.8,3.5,1.7,5.6
    c-0.1,2.7-1.5,3.8-4.1,5.3c-0.9-0.9-1.5-2-1.9-3.4C743.2,94.2,743.7,98.3,743.6,101.7z M765.7,102c-2.1-1-4-2.3-5.3-4.1
    c-1.5,1.7-3.4,3.1-5.3,4.3c-1.7-0.6-2.2-2.5-3.6-3.4c2.2-1.3,4.3-2.6,6-4.3c-0.9-1.6-2.1-3-2.4-5.3c-1.5,4.9-3.4,9.3-6.5,12.5
    c-1.6-0.8-2.8-2.1-3.9-3.4c6.6-3.9,6.9-14,6.5-24.8h16.4v4.1h-11.8c-0.6,0.8-0.1,2.6-0.2,3.9H766c0.2,5.4-0.8,9.5-2.9,12.5
    c1.1,1.8,3,2.8,5.1,3.6C767.7,99.4,766.7,100.6,765.7,102z"></path>
  <path d="M743.8,90.4c3-0.9,1.1-4.9,0-6.5c0.8-2,1.6-4,2.4-6h-2.7C743.7,81.9,743.2,86.7,743.8,90.4z"></path>
  <path d="M760.2,90.6c0.8-1.4,1.4-3.1,1.5-5.3h-3.4C758.4,87.6,759.2,89.2,760.2,90.6z"></path>
  <path d="M1016.5,69.5H950c9.4,38.1,33.7,61.4,66.4,76.1c-0.5,8-11.6,16.9-16.6,24.9c-29.4-14.9-51.9-36.7-65.1-67.8
    c-15.3,29.5-35.7,53.8-65.1,69.2c-8-5.8-11.5-16.1-19.4-22.1c31-17.5,56.9-40,66.4-78.9c-19.4-3.2-44.8-0.5-66.4-1.4V46h70.6V3.1
    h26.3V46h69.2L1016.5,69.5L1016.5,69.5z"></path>
  <path d="M1077.4,127.6c15-8.6,22.9-14.9,23.5-30.4c0.5-11.9-9.6-21.4-9.7-31.8c-0.2-16.8,14.9-26,15.2-41.5
    c-3.1-6.2-7.2-11.3-11.1-16.6H1040v161.9h24.9c0.9-19.8-1.8-43.4,1.4-60.9C1068.8,115.9,1072.4,122.5,1077.4,127.6z M1064.9,32.1
    h15.2c-4.6,11.5-9.2,23.1-13.8,34.6c6.2,9.2,17.3,32,0,37.4C1063.1,82.9,1065.8,55.7,1064.9,32.1z"></path>
  <path d="M1177,124.9c12.3-17.3,18.1-41,16.6-72h-59.5c0.9-6.9-1.8-17.5,1.4-22.1h67.8V7.2h-94.1c2.3,62.3,0.4,120.3-37.4,142.6
    c6.3,7.5,12.7,15,22.2,19.4c17.8-18.7,29.1-43.8,37.4-72c1.6,13.1,8.5,21,13.8,30.4c-10.2,9.7-22.3,17.4-34.6,24.9
    c8.4,5,10.9,15.9,20.8,19.4c11.2-7.3,21.8-15.1,30.5-24.9c7.5,10.5,18.2,17.8,30.4,23.5c5.4-7.5,11.1-14.7,13.8-24.9
    C1194.4,140.7,1183.3,135.3,1177,124.9z M1160.4,105.5c-5.5-8.4-10.1-17.6-11.1-30.4h19.4C1168.6,87.8,1165.1,97.3,1160.4,105.5z
    "></path>
  <path d="M542.5,6.7l-34.5,161h39.9l4.5-23h33.5l4.5,23h39.9L595.7,6.7L542.5,6.7L542.5,6.7z M559.3,110.2l9.9-49.9l9.9,49.9H559.3
    z M428.2,6.7v64.5l26.5-64.5h40l-33.2,80.5l33.2,80.5h-40l-26.5-64.3v64.3h-40V6.7H428.2z M287.2,6.7l-34.5,161h39.9l4.5-23h33.5
    l4.5,23H375L340.5,6.7L287.2,6.7L287.2,6.7z M304,110.2l9.9-49.9l9.9,49.9H304z M212.8,167.7h-53.2l-26.6-23v-23h40v11.6h26.5
    v-28.7h-39.9l-26.6-23V29.7l26.6-23h53.2l26.6,23v23h-40V41.3H173V70h39.9l26.6,22.9v51.8L212.8,167.7z M79.9,167.7l26.6-23v-115
    l-26.6-23H26.6L0,29.7v115l26.6,23H79.9z M40,41.3h26.5v92H40C40,133.3,40,41.3,40,41.3z"></path>
  </svg>