<svg width="236" height="64" viewBox="0 0 236 64" fill="none" xmlns="http://www.w3.org/2000/svg">
<path d="M235.95 0H0V64H235.95V0Z" fill="#862633"/>
<path d="M28.1554 24.999L25.0663 33.4565H31.2307L28.1538 24.999H28.1554ZM29.4098 23.3345L35.5271 40.1646H33.6697L31.7273 34.8082H24.5728L22.6304 40.1646H20.7852L26.9495 23.3345H29.4113H29.4098Z" fill="white"/>
<path d="M38.8091 27.8829H40.5951V29.7767C40.8442 29.3986 41.1236 29.0751 41.4334 28.8063C41.7432 28.536 42.0652 28.3158 42.3993 28.1426C42.7334 27.9695 43.0691 27.8435 43.4062 27.763C43.7434 27.6825 44.0653 27.6415 44.3721 27.6415C44.9826 27.6415 45.5582 27.8085 46.0973 28.1426C46.6365 28.4767 47.13 29.0538 47.5811 29.8739C47.815 29.4806 48.0868 29.1419 48.3951 28.861C48.7049 28.58 49.033 28.3477 49.3777 28.1669C49.724 27.9862 50.0778 27.8526 50.4393 27.769C50.8007 27.684 51.1546 27.643 51.5008 27.643C52.0551 27.643 52.5639 27.7356 53.0271 27.9209C53.4903 28.1062 53.8897 28.3613 54.2269 28.6863C54.564 29.0113 54.8283 29.4001 55.0166 29.8512C55.2049 30.3022 55.3006 30.7882 55.3006 31.3106V40.1661H53.5146V31.8179C53.5146 31.3106 53.4432 30.893 53.3035 30.5634C53.1638 30.2339 52.98 29.9711 52.7553 29.7737C52.5305 29.5763 52.2738 29.4396 51.9898 29.3637C51.7043 29.2862 51.4203 29.2498 51.1394 29.2498C50.7703 29.2498 50.3967 29.3318 50.0231 29.4973C49.6495 29.6613 49.3109 29.8906 49.0102 30.1853C48.708 30.4784 48.4634 30.8246 48.2751 31.2225C48.0868 31.6204 47.9911 32.0533 47.9911 32.5195V40.1691H46.2052V31.8209C46.2052 31.3137 46.1323 30.893 45.988 30.5604C45.8437 30.2263 45.6599 29.9635 45.4397 29.7707C45.218 29.5778 44.975 29.4411 44.7092 29.3606C44.4435 29.2801 44.1899 29.2406 43.9484 29.2406C43.473 29.2406 43.0341 29.35 42.6271 29.5656C42.2216 29.7828 41.8663 30.0607 41.5656 30.3979C41.2633 30.7366 41.0264 31.1056 40.8533 31.508C40.6802 31.9105 40.5936 32.2917 40.5936 32.6547V40.1707H38.8076V27.889L38.8091 27.8829Z" fill="white"/>
<path d="M60.7054 34.1324C60.7054 34.7839 60.7783 35.3929 60.9225 35.9609C61.0668 36.5274 61.2809 37.024 61.5619 37.4507C61.8444 37.8775 62.1876 38.2131 62.5931 38.4576C62.9986 38.7021 63.4633 38.8251 63.9872 38.8251C64.5112 38.8251 64.9881 38.7021 65.3996 38.4576C65.8097 38.2116 66.1574 37.879 66.443 37.4568C66.7285 37.0346 66.9441 36.5395 67.0884 35.973C67.2327 35.4066 67.3056 34.796 67.3056 34.1445C67.3056 33.493 67.2327 32.8719 67.0884 32.2811C66.9441 31.6903 66.7285 31.1694 66.443 30.7184C66.1574 30.2673 65.8097 29.9089 65.3996 29.6386C64.9896 29.3683 64.5188 29.2346 63.9872 29.2346C63.4557 29.2346 63.0244 29.3607 62.6174 29.6143C62.2119 29.8679 61.8656 30.205 61.5801 30.6272C61.2946 31.0494 61.0774 31.5309 60.9286 32.0685C60.7798 32.6076 60.7054 33.1665 60.7054 33.7451V34.1309V34.1324ZM58.9209 23.2495H60.7069V29.6204C60.9164 29.3303 61.1549 29.066 61.4252 28.8246C61.6955 28.5831 61.9795 28.3735 62.2817 28.1973C62.584 28.0212 62.8907 27.883 63.2051 27.7873C63.5195 27.6901 63.8202 27.643 64.1103 27.643C64.9379 27.643 65.6654 27.8177 66.2881 28.1685C66.9107 28.5178 67.4301 28.9901 67.8447 29.5854C68.2593 30.1808 68.5706 30.8702 68.7802 31.6539C68.9898 32.4375 69.0946 33.2637 69.0946 34.1339C69.0946 35.0041 68.9883 35.8181 68.7757 36.5835C68.5631 37.3474 68.2441 38.0126 67.8219 38.5806C67.3997 39.1471 66.8743 39.5936 66.2471 39.9201C65.6198 40.2451 64.8924 40.4091 64.0632 40.4091C63.4284 40.4091 62.8103 40.2345 62.2119 39.8837C61.6135 39.5344 61.1124 39.0134 60.7099 38.3209V40.1661H58.9239V23.251L58.9209 23.2495Z" fill="white"/>
<path d="M73.6507 40.1646H71.8647V27.883H73.6507V40.1646ZM73.6507 25.3376H71.8647V23.251H73.6507V25.3376Z" fill="white"/>
<path d="M84.2924 33.3366C84.0433 33.6024 83.7198 33.8211 83.3219 33.9942C82.924 34.1673 82.4973 34.3222 82.0432 34.4589C81.5891 34.5956 81.132 34.7292 80.6733 34.8568C80.2147 34.9859 79.7986 35.1393 79.425 35.3155C79.0514 35.4916 78.7476 35.7073 78.5137 35.9609C78.2799 36.2145 78.1645 36.5334 78.1645 36.9207C78.1645 37.267 78.2252 37.5601 78.3452 37.8016C78.4667 38.043 78.6231 38.242 78.816 38.3984C79.0088 38.5548 79.2306 38.6702 79.4796 38.7416C79.7287 38.8145 79.9823 38.851 80.2405 38.851C80.9801 38.851 81.706 38.6262 82.4183 38.1751C83.1306 37.7241 83.7563 37.0331 84.2939 36.1006V33.3381L84.2924 33.3366ZM87.2007 40.2618C87.0883 40.3013 86.941 40.3362 86.7602 40.3651C86.5795 40.3924 86.4292 40.4076 86.3077 40.4076C85.8095 40.4076 85.3889 40.2163 85.0472 39.8351C84.7054 39.4539 84.5141 38.8677 84.4746 38.0795C84.0889 38.5776 83.7092 38.9801 83.3341 39.2853C82.9605 39.5906 82.5884 39.826 82.2178 39.9915C81.8488 40.1555 81.4767 40.2664 81.1016 40.3241C80.728 40.3803 80.3468 40.4076 79.9611 40.4076C79.4629 40.4076 78.9952 40.3271 78.5608 40.1662C78.1265 40.0052 77.7468 39.7758 77.4203 39.4782C77.0953 39.1805 76.8402 38.8221 76.6549 38.4045C76.4696 37.9868 76.377 37.5191 76.377 37.0058C76.377 36.4924 76.4893 36.0505 76.7141 35.6845C76.9389 35.3185 77.2396 35.0026 77.6132 34.7368C77.9868 34.4711 78.409 34.2478 78.8798 34.0671C79.3506 33.8864 79.8335 33.7254 80.3271 33.5841C80.8222 33.4429 81.3066 33.3093 81.7805 33.1802C82.2558 33.0511 82.6795 32.9083 83.0531 32.7519C83.4267 32.5955 83.7274 32.4148 83.9522 32.2097C84.1769 32.0047 84.2893 31.7496 84.2893 31.4443C84.2893 31.0905 84.221 30.7761 84.0843 30.5027C83.9476 30.2294 83.7547 29.9985 83.5057 29.8087C83.2566 29.6204 82.9544 29.4776 82.6005 29.3804C82.2467 29.2832 81.8564 29.2361 81.4296 29.2361C81.0682 29.2361 80.725 29.2832 80.4045 29.3743C80.0826 29.467 79.794 29.6021 79.5358 29.7783C79.2777 29.9545 79.065 30.1716 78.8965 30.4298C78.7279 30.688 78.6185 30.9841 78.5715 31.3228H76.702C76.743 30.7275 76.9024 30.2005 77.1849 29.7419C77.4674 29.2832 77.8243 28.899 78.2586 28.5892C78.693 28.2794 79.185 28.044 79.7363 27.883C80.2876 27.722 80.8525 27.6415 81.4312 27.6415C82.0584 27.6415 82.6522 27.719 83.2111 27.8708C83.7699 28.0242 84.262 28.2566 84.6887 28.571C85.1155 28.8853 85.4526 29.2817 85.7017 29.7601C85.9508 30.2385 86.0753 30.7989 86.0753 31.4428V37.8016C86.0753 38.1159 86.1543 38.3665 86.3107 38.5548C86.4671 38.7431 86.663 38.8388 86.8954 38.8388C87.0002 38.8388 87.1004 38.8221 87.1976 38.7902V40.2618H87.2007Z" fill="white"/>
<path d="M89.6973 27.883H91.4832V29.6933C92.1105 28.9688 92.7863 28.4464 93.5107 28.1245C94.2351 27.8025 94.9777 27.6415 95.7432 27.6415C96.3142 27.6415 96.8245 27.7266 97.2755 27.8951C97.7266 28.0637 98.1078 28.3052 98.4221 28.6195C98.7365 28.9339 98.9749 29.3136 99.1405 29.7601C99.3045 30.2066 99.388 30.7077 99.388 31.2621V40.1661H97.602V31.4914C97.602 31.0737 97.5519 30.7214 97.4517 30.4359C97.3515 30.1504 97.2057 29.9195 97.0173 29.7419C96.829 29.5657 96.5967 29.4366 96.3233 29.3561C96.0499 29.2756 95.7447 29.2361 95.406 29.2361C94.8593 29.2361 94.349 29.3333 93.8737 29.5262C93.3983 29.7191 92.9852 29.9742 92.6314 30.2916C92.2775 30.609 91.9981 30.975 91.7931 31.3896C91.588 31.8042 91.4848 32.2325 91.4848 32.6744V40.1661H89.6988V27.8845L89.6973 27.883Z" fill="white"/>
<path d="M110.449 31.5748C110.2 30.7228 109.834 30.1183 109.351 29.7645C108.868 29.4106 108.233 29.233 107.445 29.233C106.89 29.233 106.395 29.3575 105.961 29.6066C105.527 29.8556 105.162 30.1897 104.869 30.6074C104.576 31.025 104.35 31.508 104.193 32.0547C104.037 32.6014 103.958 33.1724 103.958 33.7678C103.958 34.3631 104.037 34.9994 104.193 35.6069C104.35 36.2144 104.577 36.755 104.875 37.2304C105.173 37.7057 105.534 38.0884 105.961 38.3831C106.388 38.6762 106.871 38.8235 107.408 38.8235C107.843 38.8235 108.23 38.7445 108.573 38.5881C108.915 38.4317 109.208 38.2206 109.454 37.9548C109.7 37.689 109.902 37.3792 110.063 37.0254C110.224 36.6715 110.341 36.2933 110.412 35.8909H112.379C112.291 36.591 112.112 37.2197 111.841 37.7786C111.571 38.3375 111.222 38.8113 110.792 39.2016C110.362 39.5919 109.855 39.8896 109.272 40.0946C108.689 40.2997 108.043 40.4029 107.335 40.4029C106.74 40.4029 106.196 40.3103 105.706 40.125C105.215 39.9397 104.779 39.6891 104.397 39.3717C104.016 39.0543 103.683 38.6792 103.402 38.2494C103.12 37.8196 102.889 37.358 102.708 36.8674C102.527 36.3769 102.392 35.8681 102.304 35.3411C102.216 34.8141 102.172 34.2902 102.172 33.7662C102.172 32.9219 102.296 32.1276 102.545 31.3834C102.795 30.6393 103.15 29.9893 103.613 29.4349C104.076 28.8806 104.632 28.4417 105.284 28.1198C105.935 27.7978 106.667 27.6368 107.48 27.6368C108.187 27.6368 108.818 27.7355 109.367 27.933C109.919 28.1304 110.394 28.4037 110.797 28.753C111.199 29.1023 111.529 29.5185 111.787 30.0014C112.045 30.4844 112.229 31.0068 112.341 31.5702H110.447L110.449 31.5748Z" fill="white"/>
<path d="M123.323 32.9492C123.306 32.4344 123.212 31.9515 123.039 31.5019C122.866 31.0509 122.624 30.6575 122.315 30.3189C122.005 29.9817 121.628 29.716 121.186 29.5231C120.744 29.3302 120.249 29.233 119.702 29.233C119.203 29.233 118.741 29.3378 118.314 29.5474C117.888 29.757 117.519 30.0334 117.204 30.3796C116.89 30.7259 116.644 31.1223 116.461 31.5672C116.281 32.0137 116.185 32.4739 116.178 32.9492H123.32H123.323ZM116.181 34.3252C116.188 34.8886 116.287 35.4414 116.477 35.9836C116.665 36.5258 116.923 37.0087 117.25 37.4309C117.575 37.8531 117.959 38.1948 118.402 38.456C118.844 38.7172 119.324 38.8478 119.838 38.8478C121.575 38.8478 122.729 38.0399 123.3 36.4225H124.928C124.792 37.0497 124.562 37.6116 124.24 38.1052C123.918 38.6003 123.528 39.0179 123.069 39.3596C122.611 39.7013 122.103 39.961 121.549 40.1372C120.995 40.3134 120.422 40.403 119.836 40.403C118.992 40.403 118.229 40.2223 117.55 39.8608C116.87 39.4994 116.29 39.0164 115.807 38.4135C115.324 37.8106 114.955 37.112 114.697 36.3207C114.439 35.528 114.311 34.6988 114.311 33.8286C114.311 33.0161 114.44 32.2355 114.697 31.4883C114.955 30.7395 115.322 30.0804 115.801 29.5094C116.279 28.9384 116.858 28.4843 117.538 28.1456C118.219 27.8085 118.979 27.6384 119.824 27.6384C120.668 27.6384 121.382 27.7903 122.038 28.097C122.694 28.4023 123.255 28.8245 123.721 29.3636C124.187 29.9027 124.545 30.5345 124.795 31.2574C125.044 31.9818 125.168 32.7655 125.168 33.6099V34.3221H116.181V34.3252Z" fill="white"/>
<path d="M135.297 30.4525C135.715 30.2353 136.105 30.0105 136.468 29.7767C136.83 29.5428 137.146 29.2922 137.416 29.0219C137.686 28.7515 137.896 28.4554 138.049 28.1289C138.201 27.8039 138.279 27.4424 138.279 27.0491C138.279 26.6558 138.228 26.3186 138.128 26.0179C138.028 25.7157 137.891 25.459 137.718 25.2449C137.545 25.0323 137.345 24.8698 137.115 24.7559C136.886 24.6435 136.638 24.5873 136.373 24.5873C136.075 24.5873 135.802 24.6647 135.553 24.8166C135.304 24.97 135.088 25.169 134.907 25.4135C134.726 25.6595 134.584 25.9329 134.479 26.2336C134.374 26.5358 134.322 26.835 134.322 27.1326C134.322 27.6156 134.409 28.1456 134.582 28.7257C134.755 29.3043 134.994 29.8799 135.3 30.451M133.56 32.2263C133.158 32.4602 132.786 32.7168 132.444 32.9978C132.102 33.2803 131.806 33.5779 131.557 33.8969C131.308 34.2143 131.112 34.5499 130.972 34.9038C130.831 35.2576 130.761 35.6282 130.761 36.0139C130.761 36.4483 130.831 36.8538 130.972 37.2319C131.113 37.6101 131.312 37.9381 131.569 38.2145C131.827 38.4924 132.142 38.7111 132.517 38.8721C132.89 39.0331 133.311 39.1136 133.777 39.1136C134.412 39.1136 135.018 38.9723 135.592 38.6914C136.168 38.4089 136.716 38.0641 137.24 37.6541C136.878 37.2608 136.529 36.8416 136.196 36.3997C135.862 35.9577 135.543 35.5052 135.238 35.042C134.933 34.5788 134.641 34.108 134.363 33.6296C134.086 33.1512 133.818 32.6819 133.562 32.2248M142.308 31.5383C142.21 32.1094 142.092 32.6196 141.952 33.0707C141.811 33.5217 141.643 33.9455 141.445 34.3434C141.248 34.7413 141.018 35.1285 140.757 35.5082C140.496 35.8863 140.2 36.2842 139.87 36.7019C140.49 37.3291 141.075 37.8257 141.626 38.1917C142.177 38.5577 142.686 38.74 143.152 38.74C143.755 38.74 144.27 38.6215 144.697 38.3846C145.123 38.1477 145.465 37.727 145.722 37.1241L146.18 37.2927C146.076 37.8151 145.905 38.2783 145.667 38.6792C145.43 39.0817 145.139 39.4219 144.792 39.6983C144.446 39.9762 144.053 40.1842 143.611 40.3255C143.169 40.4667 142.689 40.5366 142.176 40.5366C141.516 40.5366 140.838 40.3498 140.142 39.9762C139.446 39.6026 138.765 39.1014 138.096 38.4742C137.308 39.0847 136.45 39.5828 135.521 39.964C134.591 40.3452 133.589 40.5366 132.511 40.5366C131.754 40.5366 131.11 40.4515 130.58 40.283C130.049 40.1144 129.615 39.8775 129.277 39.5707C128.94 39.2654 128.693 38.8994 128.535 38.4727C128.378 38.0459 128.299 37.5751 128.299 37.0618C128.299 36.3298 128.438 35.6798 128.715 35.1133C128.993 34.5469 129.359 34.0381 129.813 33.5871C130.268 33.136 130.784 32.7366 131.364 32.3873C131.943 32.038 132.538 31.713 133.15 31.4168C132.813 30.7091 132.546 30.0576 132.348 29.4623C132.151 28.867 132.052 28.3643 132.052 27.9542C132.052 27.4227 132.139 26.9094 132.312 26.4097C132.485 25.9116 132.746 25.4681 133.095 25.0824C133.445 24.6966 133.882 24.3868 134.404 24.1529C134.927 23.9191 135.534 23.8036 136.227 23.8036C136.742 23.8036 137.226 23.8781 137.68 24.0269C138.134 24.1757 138.531 24.3929 138.869 24.6784C139.207 24.9639 139.474 25.3132 139.671 25.7278C139.869 26.1424 139.967 26.6102 139.967 27.1326C139.967 27.655 139.843 28.1137 139.594 28.5086C139.345 28.9019 139.02 29.2573 138.617 29.5701C138.215 29.883 137.759 30.1685 137.247 30.4267C136.737 30.6848 136.221 30.9369 135.697 31.186C136.114 31.9818 136.62 32.773 137.211 33.5567C137.802 34.3403 138.44 35.1118 139.123 35.8666C139.919 34.966 140.517 34.1338 140.915 33.3699C141.313 32.606 141.577 31.9378 141.705 31.3667L142.308 31.5353V31.5383Z" fill="white"/>
<path d="M153.823 39.5252C154.216 39.5252 154.606 39.4705 154.994 39.3627C155.379 39.2533 155.726 39.0924 156.031 38.8797C156.336 38.6671 156.582 38.4044 156.767 38.0961C156.953 37.7863 157.045 37.4263 157.045 37.0163C157.045 36.5258 156.919 36.0884 156.666 35.7072C156.412 35.326 156.081 34.9752 155.671 34.6578C155.261 34.3404 154.792 34.0412 154.266 33.7587C153.739 33.4762 153.203 33.1953 152.655 32.9143C152.108 32.6334 151.57 32.3372 151.043 32.0274C150.516 31.7176 150.049 31.3713 149.639 30.9901C149.229 30.609 148.896 30.1822 148.644 29.7114C148.39 29.2406 148.264 28.7 148.264 28.0894C148.264 27.4789 148.378 26.9109 148.607 26.3885C148.837 25.8661 149.172 25.4135 149.614 25.0308C150.056 24.6496 150.601 24.3489 151.248 24.1317C151.895 23.9146 152.638 23.8052 153.475 23.8052C154.231 23.8052 154.907 23.8857 155.502 24.0467C156.098 24.2077 156.62 24.4446 157.071 24.759C157.522 25.0733 157.903 25.4591 158.218 25.9177C158.532 26.3764 158.784 26.9064 158.979 27.5108L157.603 28.138C157.442 27.6475 157.237 27.1995 156.988 26.7925C156.739 26.387 156.441 26.0392 156.095 25.7491C155.748 25.4591 155.349 25.2358 154.895 25.0794C154.441 24.923 153.927 24.844 153.356 24.844C152.849 24.844 152.407 24.9154 152.029 25.0551C151.651 25.1963 151.335 25.3801 151.081 25.6094C150.828 25.8387 150.639 26.0954 150.515 26.3809C150.39 26.6664 150.328 26.958 150.328 27.2557C150.328 27.6733 150.457 28.0576 150.714 28.4084C150.972 28.7577 151.312 29.0887 151.739 29.397C152.166 29.7068 152.65 30.006 153.192 30.2961C153.735 30.5862 154.289 30.8793 154.851 31.1769C155.414 31.4746 155.967 31.7844 156.509 32.1064C157.051 32.4283 157.537 32.7807 157.963 33.1619C158.389 33.5431 158.731 33.9622 158.988 34.4163C159.246 34.8704 159.373 35.3792 159.373 35.9426C159.373 36.5774 159.252 37.1742 159.012 37.7346C158.771 38.2935 158.409 38.7795 157.926 39.1941C157.443 39.6087 156.845 39.9367 156.128 40.1767C155.413 40.4182 154.58 40.5381 153.631 40.5381C152.86 40.5381 152.172 40.4531 151.569 40.2845C150.966 40.116 150.433 39.8699 149.97 39.548C149.507 39.226 149.112 38.8342 148.781 38.371C148.451 37.9078 148.182 37.3793 147.973 36.7839L149.408 36.1932C149.576 36.7156 149.804 37.1818 150.09 37.5919C150.375 38.0019 150.706 38.3497 151.084 38.6352C151.463 38.9207 151.883 39.1394 152.345 39.2928C152.808 39.4462 153.3 39.5221 153.823 39.5221" fill="white"/>
<path d="M165.694 23.6123H166.394V27.8115H169.145V28.8609H166.394V37.56C166.394 37.7453 166.429 37.9184 166.498 38.0794C166.566 38.2404 166.659 38.3816 166.776 38.5016C166.893 38.6215 167.031 38.7172 167.192 38.7856C167.354 38.8539 167.529 38.8888 167.723 38.8888C167.997 38.8888 168.247 38.8205 168.47 38.6838C168.697 38.5471 168.893 38.3786 169.061 38.1766L169.676 38.5866C169.339 39.1576 168.9 39.6072 168.361 39.9383C167.824 40.2678 167.155 40.4333 166.358 40.4333C165.948 40.4333 165.591 40.362 165.284 40.2222C164.979 40.081 164.728 39.8851 164.529 39.6315C164.334 39.3779 164.186 39.0772 164.089 38.7263C163.992 38.377 163.945 37.9883 163.945 37.5615V28.8624H161.797V28.4038L163.945 27.813V24.3018L165.694 23.6139V23.6123Z" fill="white"/>
<path d="M172.51 43.0849C172.607 43.1244 172.713 43.1776 172.829 43.2414C172.946 43.3051 173.075 43.3674 173.215 43.4281C173.356 43.4889 173.511 43.539 173.679 43.5785C173.848 43.618 174.038 43.6392 174.246 43.6392C174.504 43.6392 174.745 43.5663 174.97 43.4221C175.195 43.2778 175.4 43.0956 175.585 42.8799C175.771 42.6627 175.935 42.4243 176.08 42.1676C176.225 41.9095 176.346 41.6695 176.442 41.4432L177.274 39.5859L170.964 27.8115H173.751L178.504 36.7398L182.401 27.8115H183.716L177.406 42.3377C177.14 42.9407 176.837 43.4631 176.495 43.9065C176.153 44.3485 175.789 44.7145 175.403 45.0046C175.017 45.2946 174.619 45.5088 174.209 45.65C173.799 45.7912 173.401 45.8611 173.016 45.8611C172.726 45.8611 172.445 45.817 172.171 45.729C171.898 45.6409 171.669 45.5239 171.483 45.3797L172.508 43.088L172.51 43.0849Z" fill="white"/>
<path d="M188.568 40.1644H186.106V22.212L187.856 21.5119H188.568V40.1644Z" fill="white"/>
<path d="M200.56 31.792C200.56 31.3258 200.478 30.8914 200.312 30.489C200.148 30.0865 199.921 29.7388 199.63 29.4456C199.34 29.151 199.003 28.9202 198.617 28.7516C198.232 28.583 197.817 28.498 197.375 28.498C197.006 28.498 196.651 28.58 196.314 28.7455C195.976 28.9095 195.674 29.1389 195.408 29.4335C195.143 29.7266 194.924 30.0744 194.751 30.4768C194.578 30.8793 194.476 31.3136 194.444 31.7799L200.561 31.792H200.56ZM198.124 40.4303C197.287 40.4303 196.502 40.2739 195.765 39.9595C195.03 39.6452 194.388 39.2199 193.841 38.6808C193.294 38.1417 192.862 37.5084 192.544 36.7809C192.227 36.0535 192.067 35.2789 192.067 34.4588C192.067 33.4702 192.212 32.5544 192.502 31.7146C192.792 30.8747 193.202 30.1488 193.732 29.5368C194.262 28.9263 194.9 28.4463 195.644 28.1016C196.388 27.7553 197.219 27.5822 198.136 27.5822C198.939 27.5822 199.681 27.725 200.356 28.0105C201.032 28.296 201.612 28.6787 202.1 29.1571C202.587 29.6355 202.964 30.1883 203.234 30.8155C203.505 31.4427 203.638 32.0988 203.638 32.7822H194.433C194.433 33.6099 194.54 34.3784 194.752 35.0861C194.965 35.7938 195.266 36.4058 195.651 36.9206C196.037 37.4355 196.496 37.8379 197.027 38.1265C197.559 38.4165 198.142 38.5608 198.777 38.5608C199.308 38.5608 199.819 38.4743 200.309 38.3011C200.8 38.128 201.245 37.9017 201.643 37.6192C202.041 37.3368 202.381 37.0163 202.662 36.6533C202.943 36.2919 203.14 35.9168 203.253 35.531L203.965 35.8454C203.789 36.4802 203.502 37.0755 203.108 37.6314C202.715 38.1857 202.253 38.6702 201.726 39.0848C201.199 39.4994 200.627 39.8274 200.007 40.0674C199.387 40.3088 198.76 40.4288 198.125 40.4288" fill="white"/>
<path d="M211.177 39.5739C211.507 39.5739 211.812 39.5238 212.095 39.4236C212.375 39.3233 212.62 39.1882 212.825 39.0196C213.03 38.851 213.19 38.6551 213.302 38.4349C213.414 38.2132 213.47 37.9869 213.47 37.753C213.47 37.3749 213.376 37.0453 213.186 36.7643C212.998 36.4819 212.748 36.2313 212.439 36.0111C212.129 35.7893 211.777 35.5874 211.384 35.4021C210.99 35.2168 210.588 35.0254 210.178 34.8295C209.768 34.6321 209.365 34.424 208.972 34.2023C208.579 33.9806 208.226 33.7224 207.917 33.4247C207.607 33.1271 207.358 32.7839 207.169 32.3935C206.981 32.0032 206.885 31.5476 206.885 31.0237C206.885 30.5332 206.99 30.076 207.2 29.6538C207.409 29.2316 207.701 28.8672 208.075 28.5619C208.448 28.2566 208.893 28.0167 209.408 27.8436C209.923 27.6704 210.486 27.5839 211.097 27.5839C211.507 27.5839 211.89 27.6127 212.243 27.6689C212.597 27.7251 212.945 27.8329 213.287 27.9939C213.628 28.1549 213.969 28.3857 214.306 28.6879C214.643 28.9902 215.001 29.382 215.379 29.8649L214.474 30.6729C214.008 29.909 213.487 29.3395 212.912 28.9659C212.338 28.5923 211.722 28.4055 211.071 28.4055C210.717 28.4055 210.395 28.448 210.105 28.5315C209.815 28.6166 209.569 28.732 209.362 28.8808C209.157 29.0297 208.996 29.2043 208.879 29.4063C208.763 29.6068 208.705 29.8209 208.705 30.0457C208.705 30.4162 208.808 30.7382 209.013 31.0115C209.218 31.2849 209.49 31.5325 209.827 31.7542C210.164 31.9759 210.549 32.1779 210.98 32.3632C211.41 32.5485 211.849 32.7368 212.295 32.9296C212.741 33.1225 213.18 33.3321 213.61 33.5569C214.04 33.7816 214.424 34.0413 214.763 34.3344C215.1 34.6275 215.372 34.9677 215.577 35.3535C215.782 35.7392 215.885 36.1903 215.885 36.7051C215.885 37.2199 215.788 37.7166 215.595 38.1706C215.402 38.6247 215.111 39.0196 214.72 39.3522C214.33 39.6863 213.841 39.949 213.255 40.1419C212.669 40.3348 211.976 40.432 211.18 40.432C210.819 40.432 210.447 40.4031 210.064 40.3469C209.683 40.2907 209.299 40.1799 208.911 40.0159C208.526 39.8503 208.14 39.6195 207.753 39.3218C207.367 39.0241 206.989 38.6338 206.618 38.1509L207.619 37.2458C207.917 37.6634 208.202 38.0203 208.476 38.3134C208.749 38.6065 209.028 38.848 209.314 39.0378C209.599 39.2261 209.892 39.3643 210.195 39.4479C210.497 39.5329 210.823 39.5739 211.179 39.5739" fill="white"/>
</svg>
