<?xml version="1.0" encoding="utf-8"?>
<!-- Generator: Adobe Illustrator 16.0.0, SVG Export Plug-In . SVG Version: 6.00 Build 0)  -->
<!DOCTYPE svg PUBLIC "-//W3C//DTD SVG 1.1//EN" "http://www.w3.org/Graphics/SVG/1.1/DTD/svg11.dtd">
<svg version="1.1" id="Calque_1" xmlns="http://www.w3.org/2000/svg" xmlns:xlink="http://www.w3.org/1999/xlink" x="0px" y="0px"
	 width="400px" height="170.5px" viewBox="0 0 400 170.5" enable-background="new 0 0 400 170.5" xml:space="preserve">
<g>
	<rect x="1" y="93.335" fill="#150C26" width="46.313" height="76.63"/>
	<polygon fill="#150C26" points="47.313,0.426 1,0.426 1,57.05 47.313,50.781 	"/>
	<polygon fill="#150C26" points="47.313,52.135 1,58.215 1,62.879 47.313,57.564 	"/>
	<polygon fill="#150C26" points="47.313,72.593 1,75.735 1,80.42 47.313,78.096 	"/>
	<polygon fill="#150C26" points="47.313,79.475 1,81.593 1,86.286 47.313,85.002 	"/>
	<polygon fill="#150C26" points="47.313,86.389 1,87.46 1,92.16 47.313,91.945 	"/>
	<polygon fill="#150C26" points="47.313,58.925 1,64.047 1,68.717 47.313,64.377 	"/>
	<polygon fill="#150C26" points="47.313,65.744 1,69.886 1,74.565 47.313,71.221 	"/>
	<rect x="59.449" y="93.335" fill="#150C26" width="46.313" height="76.63"/>
	<polygon fill="#150C26" points="105.763,0.426 59.449,0.426 59.449,49.139 105.763,42.869 	"/>
	<polygon fill="#150C26" points="105.763,50.857 105.763,44.462 59.449,50.542 59.449,56.172 	"/>
	<polygon fill="#150C26" points="105.763,76.801 59.449,78.92 59.449,84.667 105.763,83.385 	"/>
	<polygon fill="#150C26" points="105.763,60.515 59.449,64.659 59.449,70.345 105.763,67.001 	"/>
	<polygon fill="#150C26" points="105.763,68.629 59.449,71.77 59.449,77.487 105.763,75.162 	"/>
	<polygon fill="#150C26" points="59.45,86.108 59.45,91.888 105.763,91.671 105.763,85.036 	"/>
	<polygon fill="#150C26" points="105.763,52.461 59.449,57.583 59.449,63.24 105.763,58.9 	"/>
	<rect x="117.898" y="93.335" fill="#150C26" width="46.313" height="76.63"/>
	<polygon fill="#150C26" points="164.212,64.664 117.898,67.806 117.898,74.554 164.212,72.229 	"/>
	<polygon fill="#150C26" points="164.212,55.288 117.898,59.431 117.898,66.125 164.212,62.782 	"/>
	<polygon fill="#150C26" points="117.898,76.247 117.898,83.048 164.212,81.766 164.212,74.128 	"/>
	<polygon fill="#150C26" points="164.212,0.426 117.898,0.426 117.898,41.227 164.212,34.958 	"/>
	<polygon fill="#150C26" points="117.898,84.756 117.898,91.614 164.212,91.397 164.212,83.685 	"/>
	<polygon fill="#150C26" points="164.212,53.423 164.212,45.997 117.898,51.119 117.898,57.763 	"/>
	<polygon fill="#150C26" points="164.212,44.148 164.212,36.789 117.898,42.869 117.898,49.464 	"/>
	<rect x="176.349" y="93.335" fill="#150C26" width="46.313" height="76.63"/>
	<polygon fill="#150C26" points="222.662,0.426 176.349,0.426 176.349,33.315 222.662,27.046 	"/>
	<polygon fill="#150C26" points="222.662,37.441 222.662,29.116 176.349,35.196 176.349,42.756 	"/>
	<polygon fill="#150C26" points="176.35,63.84 176.35,71.619 222.662,69.295 222.662,60.699 	"/>
	<polygon fill="#150C26" points="222.662,47.945 222.662,39.533 176.349,44.655 176.349,52.286 	"/>
	<polygon fill="#150C26" points="222.662,58.562 222.662,50.06 176.349,54.203 176.349,61.906 	"/>
	<polygon fill="#150C26" points="176.35,73.574 176.35,81.431 222.662,80.148 222.662,71.456 	"/>
	<polygon fill="#150C26" points="176.35,83.404 176.35,91.341 222.662,91.125 222.662,82.333 	"/>
	<rect x="234.798" y="93.335" fill="#150C26" width="46.313" height="76.63"/>
	<polygon fill="#150C26" points="234.798,70.901 234.798,79.812 281.111,78.53 281.111,68.783 	"/>
	<polygon fill="#150C26" points="281.11,42.468 281.11,33.069 234.798,38.19 234.798,46.809 	"/>
	<polygon fill="#150C26" points="234.798,59.876 234.798,68.685 281.111,66.361 281.111,56.735 	"/>
	<polygon fill="#150C26" points="281.11,54.342 281.11,44.831 234.798,48.974 234.798,57.686 	"/>
	<polygon fill="#150C26" points="281.11,30.733 281.11,21.442 234.798,27.523 234.798,36.048 	"/>
	<polygon fill="#150C26" points="281.11,0.426 234.798,0.426 234.798,25.402 281.11,19.133 	"/>
	<polygon fill="#150C26" points="234.798,82.052 234.798,91.069 281.111,90.852 281.111,80.981 	"/>
	<rect x="293.248" y="93.335" fill="#150C26" width="46.313" height="76.63"/>
	<polygon fill="#150C26" points="293.248,80.701 293.248,90.795 339.562,90.581 339.562,79.63 	"/>
	<polygon fill="#150C26" points="339.561,0.426 293.248,0.426 293.248,17.491 339.561,11.221 	"/>
	<polygon fill="#150C26" points="293.248,53.467 339.562,50.123 339.562,39.604 293.248,43.746 	"/>
	<polygon fill="#150C26" points="339.561,24.025 339.561,13.77 293.248,19.851 293.248,29.34 	"/>
	<polygon fill="#150C26" points="293.248,65.752 339.562,63.427 339.562,52.77 293.248,55.911 	"/>
	<polygon fill="#150C26" points="293.248,68.229 293.248,78.193 339.562,76.912 339.562,66.109 	"/>
	<polygon fill="#150C26" points="339.561,36.99 339.561,26.605 293.248,31.726 293.248,41.331 	"/>
	<path fill="#150C26" d="M398.583,3.268V0.449c0-0.001-0.001-0.001-0.001-0.002V0.426h-46.884v9.152 M393.908,0.752V0.616h0.301
		v0.127L393.908,0.752z"/>
	<polyline fill="#150C26" points="351.698,93.335 351.698,169.965 393.228,169.965 393.228,170.073 399,169.964 398.892,93.336 	"/>
	<polygon fill="#150C26" points="394.209,0.683 394.209,0.742 395.969,0.683 	"/>
	<path fill="#150C26" d="M393.392,0.77l0.816-0.028V0.683h1.762l2.014-0.066c0.01,0.021,0.018,0.043,0.028,0.066V0.616h-4.62V0.77z"
		/>
	<polygon fill="#150C26" points="398.91,63.437 394.208,63.61 394.208,63.61 393.392,63.648 351.698,65.555 351.698,76.576 
		393.392,75.422 394.209,75.398 394.209,75.398 398.91,75.292 	"/>
	<polygon fill="#150C26" points="398.999,78.278 393.8,78.366 393.8,78.375 393.392,78.385 393.392,78.384 351.698,79.349 
		351.698,90.523 393.392,90.328 394.209,90.325 394.209,90.324 398.999,90.308 	"/>
	<polygon fill="#150C26" points="394.209,49.063 394.209,49.063 393.392,49.118 351.698,51.946 351.698,62.819 393.392,60.726 
		394.209,60.685 394.209,60.684 398.824,60.494 398.824,48.805 	"/>
	<path fill="#150C26" d="M394.209,0.743v0.068l3.793-0.127c0.004,0.007,0.007,0.014,0.01,0.02v-0.02h-2.043L394.209,0.743z"/>
	<path fill="#150C26" d="M395.969,0.683h2.042c-0.01-0.023-0.018-0.045-0.028-0.066L395.969,0.683z"/>
	<polygon fill="#150C26" points="394.209,34.715 394.209,34.715 393.392,34.789 351.698,38.518 351.698,49.246 393.392,46.237 
		393.392,46.236 394.209,46.177 394.209,46.177 398.742,45.903 398.742,34.375 	"/>
	<polygon fill="#150C26" points="394.209,6.596 394.209,6.596 393.392,6.702 393.392,6.703 351.698,12.176 351.698,22.631 
		393.392,17.847 393.392,17.848 394.209,17.753 394.209,17.753 398.583,17.317 398.583,6.096 	"/>
	<polygon fill="#150C26" points="394.209,20.562 393.392,20.652 393.392,20.651 351.698,25.263 351.698,35.853 393.392,31.945 
		394.209,31.87 394.209,31.869 398.661,31.513 398.661,20.141 	"/>
	<polygon fill="#F6A50A" points="210.044,102.061 203.361,98.324 208.631,103.902 204.915,110.628 210.455,105.325 217.138,109.063 
		211.869,103.485 215.582,96.758 	"/>
	<polygon fill="#F6A50A" points="83.72,50.124 74.152,44.771 81.696,52.759 76.376,62.394 84.31,54.797 93.879,60.15 86.336,52.163 
		91.652,42.529 	"/>
	<polygon fill="#F6A50A" points="324.346,13.547 313.244,7.337 321.995,16.604 315.824,27.783 325.029,18.97 336.133,25.181 
		327.379,15.915 333.547,4.734 	"/>
	<path fill="#F6A50A" d="M83.983,159.86c-0.238-0.251-0.488-0.451-0.749-0.6c-0.262-0.148-0.528-0.223-0.801-0.223
		c-0.375,0-0.709,0.07-1.004,0.205c-0.295,0.138-0.547,0.321-0.757,0.548c-0.21,0.23-0.369,0.492-0.477,0.79
		c-0.108,0.297-0.162,0.606-0.162,0.926c0,0.319,0.054,0.627,0.162,0.925c0.108,0.297,0.267,0.56,0.477,0.789
		s0.462,0.411,0.757,0.548c0.295,0.137,0.629,0.206,1.004,0.206c0.317,0,0.613-0.066,0.885-0.197
		c0.273-0.132,0.506-0.322,0.698-0.575l1.362,1.473c-0.205,0.206-0.44,0.384-0.707,0.533c-0.267,0.147-0.537,0.267-0.807,0.358
		c-0.273,0.093-0.535,0.158-0.784,0.198c-0.25,0.039-0.466,0.059-0.647,0.059c-0.612,0-1.192-0.103-1.736-0.308
		c-0.544-0.205-1.016-0.496-1.413-0.875c-0.397-0.376-0.712-0.829-0.945-1.362c-0.232-0.53-0.348-1.122-0.348-1.772
		c0-0.652,0.116-1.244,0.348-1.774c0.232-0.532,0.547-0.985,0.945-1.362c0.397-0.378,0.869-0.669,1.413-0.875
		c0.544-0.205,1.124-0.308,1.736-0.308c0.522,0,1.047,0.099,1.575,0.3c0.526,0.2,0.99,0.517,1.388,0.951L83.983,159.86z"/>
	<path fill="#F6A50A" d="M141.039,153.554c0.374,0,0.688,0.117,0.943,0.352c0.257,0.233,0.383,0.529,0.383,0.882
		c0,0.366-0.126,0.666-0.383,0.901c-0.255,0.233-0.569,0.351-0.943,0.351c-0.375,0-0.685-0.126-0.928-0.377
		c-0.244-0.251-0.366-0.543-0.366-0.875s0.122-0.62,0.366-0.865C140.354,153.676,140.664,153.554,141.039,153.554 M140.034,157.599
		h1.073c0.271,0,0.501,0.093,0.689,0.281c0.186,0.189,0.28,0.415,0.28,0.679v7.264h-1.072c-0.273,0-0.503-0.093-0.688-0.282
		c-0.188-0.188-0.282-0.419-0.282-0.694V157.599z"/>
	<path fill="#F6A50A" d="M194.829,157.599h0.944c0.281,0,0.519,0.096,0.71,0.29c0.192,0.195,0.285,0.43,0.285,0.704v0.326h0.035
		c0.194-0.412,0.489-0.769,0.888-1.072c0.399-0.301,0.94-0.453,1.623-0.453c0.545,0,1.01,0.09,1.391,0.273
		c0.381,0.183,0.691,0.423,0.932,0.721c0.238,0.296,0.409,0.64,0.511,1.027c0.104,0.389,0.154,0.794,0.154,1.218v5.191h-1.071
		c-0.272,0-0.503-0.093-0.689-0.282c-0.188-0.188-0.283-0.419-0.283-0.694v-3.187c0-0.228-0.011-0.483-0.033-0.763
		c-0.023-0.28-0.082-0.542-0.18-0.788c-0.097-0.247-0.246-0.452-0.453-0.617c-0.205-0.166-0.486-0.249-0.838-0.249
		c-0.342,0-0.63,0.057-0.865,0.171c-0.233,0.115-0.427,0.269-0.58,0.463c-0.154,0.195-0.265,0.417-0.334,0.669
		c-0.069,0.25-0.103,0.513-0.103,0.787v4.49h-1.063c-0.272,0-0.501-0.096-0.691-0.29c-0.192-0.194-0.288-0.428-0.288-0.703V157.599z
		"/>
	<path fill="#F6A50A" d="M255.852,162.208c0.068,0.617,0.308,1.1,0.715,1.448c0.409,0.349,0.903,0.523,1.482,0.523
		c0.363,0,0.681-0.055,0.952-0.163c0.273-0.109,0.517-0.255,0.732-0.438c0.171-0.137,0.365-0.206,0.588-0.206
		c0.222,0,0.423,0.063,0.604,0.188l0.8,0.618c-0.478,0.594-1.012,1.017-1.608,1.267c-0.596,0.252-1.218,0.377-1.864,0.377
		c-0.612,0-1.191-0.103-1.734-0.308c-0.547-0.205-1.017-0.498-1.415-0.882c-0.397-0.384-0.712-0.84-0.943-1.371
		c-0.233-0.533-0.349-1.124-0.349-1.775s0.115-1.243,0.349-1.774c0.231-0.53,0.546-0.985,0.943-1.362
		c0.398-0.376,0.868-0.669,1.415-0.874c0.543-0.206,1.122-0.308,1.734-0.308c0.58,0,1.104,0.1,1.575,0.299s0.875,0.489,1.209,0.865
		c0.334,0.378,0.595,0.844,0.783,1.397c0.186,0.555,0.28,1.191,0.28,1.912c0,0.159-0.056,0.293-0.161,0.402
		c-0.108,0.108-0.242,0.163-0.399,0.163H255.852z M260.041,160.666c-0.012-0.606-0.2-1.082-0.563-1.431
		c-0.363-0.349-0.869-0.523-1.516-0.523c-0.613,0-1.098,0.177-1.454,0.531c-0.357,0.354-0.578,0.828-0.657,1.423H260.041z
		 M257.709,155.953c-0.125,0-0.214-0.054-0.266-0.162c-0.051-0.109-0.043-0.209,0.026-0.3l1.362-2.006h1.276
		c0.193,0,0.326,0.088,0.399,0.267c0.074,0.177,0.048,0.333-0.075,0.471l-1.686,1.73H257.709z"/>
	<path fill="#F6A50A" d="M310.072,157.599h0.952c0.274,0,0.506,0.096,0.7,0.29c0.191,0.195,0.288,0.43,0.288,0.704v0.291h0.035
		c0.18-0.389,0.473-0.734,0.875-1.037c0.402-0.301,0.945-0.453,1.625-0.453c1.283,0,2.135,0.507,2.555,1.525
		c0.294-0.526,0.662-0.911,1.104-1.157c0.442-0.246,0.966-0.368,1.578-0.368c0.543,0,1.001,0.09,1.374,0.273
		c0.373,0.183,0.68,0.435,0.916,0.755c0.237,0.319,0.409,0.694,0.511,1.122c0.101,0.429,0.151,0.889,0.151,1.38v4.9h-1.045
		c-0.271,0-0.506-0.096-0.701-0.29c-0.198-0.194-0.297-0.434-0.297-0.72v-3.651c0-0.25-0.021-0.493-0.067-0.728
		c-0.045-0.234-0.125-0.44-0.239-0.617c-0.111-0.177-0.266-0.317-0.459-0.42c-0.192-0.103-0.441-0.154-0.749-0.154
		c-0.317,0-0.587,0.06-0.809,0.179c-0.222,0.121-0.402,0.281-0.545,0.48c-0.142,0.2-0.244,0.429-0.306,0.686
		c-0.063,0.257-0.094,0.519-0.094,0.779v4.455h-1.071c-0.263,0-0.489-0.093-0.683-0.282c-0.191-0.188-0.289-0.419-0.289-0.694
		v-3.924c0-0.514-0.108-0.923-0.323-1.226c-0.215-0.302-0.573-0.454-1.072-0.454c-0.34,0-0.627,0.057-0.859,0.171
		c-0.232,0.115-0.426,0.269-0.58,0.463c-0.152,0.195-0.263,0.417-0.331,0.669c-0.069,0.25-0.102,0.513-0.102,0.787v4.49h-1.073
		c-0.262,0-0.487-0.096-0.68-0.29c-0.193-0.194-0.29-0.422-0.29-0.686V157.599z"/>
	<path fill="#F6A50A" d="M376.76,164.488h-0.051c-0.296,0.468-0.67,0.809-1.123,1.02c-0.455,0.211-0.952,0.316-1.498,0.316
		c-0.374,0-0.74-0.05-1.098-0.154c-0.356-0.103-0.675-0.255-0.954-0.461c-0.277-0.207-0.501-0.464-0.673-0.773
		c-0.168-0.308-0.253-0.667-0.253-1.079c0-0.446,0.079-0.825,0.237-1.14c0.159-0.314,0.371-0.577,0.64-0.789
		c0.265-0.211,0.574-0.379,0.926-0.505c0.352-0.126,0.718-0.219,1.097-0.283c0.381-0.063,0.764-0.102,1.149-0.12
		c0.387-0.017,0.749-0.025,1.091-0.025h0.51v-0.224c0-0.513-0.174-0.898-0.526-1.157c-0.354-0.256-0.8-0.384-1.346-0.384
		c-0.295,0-0.574,0.037-0.843,0.11c-0.266,0.074-0.513,0.174-0.739,0.3c-0.192,0.114-0.4,0.157-0.621,0.128
		c-0.223-0.029-0.412-0.122-0.572-0.281l-0.477-0.48c0.454-0.469,0.985-0.806,1.593-1.012c0.607-0.205,1.234-0.308,1.88-0.308
		c0.579,0,1.067,0.066,1.465,0.198c0.397,0.13,0.728,0.298,0.987,0.505c0.261,0.205,0.463,0.443,0.605,0.711
		c0.14,0.269,0.242,0.54,0.306,0.814c0.063,0.274,0.099,0.54,0.111,0.797c0.01,0.257,0.016,0.483,0.016,0.677v4.729h-0.85
		c-0.274,0-0.506-0.097-0.701-0.291c-0.191-0.195-0.288-0.424-0.288-0.688V164.488z M376.643,161.934h-0.426
		c-0.286,0-0.604,0.011-0.954,0.035c-0.352,0.022-0.683,0.076-0.994,0.162c-0.315,0.086-0.578,0.212-0.793,0.377
		c-0.217,0.167-0.324,0.397-0.324,0.694c0,0.194,0.042,0.357,0.128,0.489s0.196,0.243,0.331,0.334
		c0.138,0.09,0.291,0.157,0.461,0.197c0.171,0.04,0.339,0.06,0.512,0.06c0.702,0,1.222-0.188,1.558-0.566
		C376.474,163.339,376.643,162.745,376.643,161.934"/>
	<path fill="#FFFFFF" d="M15.646,100.145h3.855c0.996,0,1.844,0.356,2.55,1.064c0.704,0.71,1.056,1.587,1.056,2.629v43.704h-3.918
		c-0.994,0-1.834-0.345-2.518-1.033c-0.684-0.689-1.025-1.534-1.025-2.537V100.145z"/>
	<path fill="#FFFFFF" d="M38.408,119.806h-7.526l5.224-16.343h3.109c0.872,0,1.576,0.355,2.114,1.065
		c0.54,0.71,0.705,1.502,0.499,2.379L38.408,119.806z"/>
	<path fill="#FFFFFF" d="M74.125,135.208c0.248,2.254,1.12,4.018,2.612,5.291c1.493,1.273,3.295,1.91,5.41,1.91
		c1.329,0,2.489-0.197,3.483-0.595c0.995-0.396,1.887-0.928,2.675-1.597c0.623-0.5,1.347-0.752,2.177-0.752
		c0.787,0,1.512,0.23,2.176,0.69l2.922,2.253c-1.741,2.171-3.7,3.716-5.876,4.633c-2.177,0.917-4.448,1.377-6.811,1.377
		c-2.239,0-4.353-0.375-6.343-1.126c-1.991-0.751-3.712-1.826-5.162-3.225c-1.452-1.399-2.603-3.068-3.451-5.009
		c-0.851-1.94-1.275-4.101-1.275-6.481c0-2.377,0.425-4.538,1.275-6.479c0.848-1.94,1.999-3.601,3.451-4.978
		c1.45-1.377,3.171-2.441,5.162-3.193c1.99-0.75,4.104-1.126,6.343-1.126c2.115,0,4.032,0.365,5.752,1.096
		c1.72,0.73,3.193,1.784,4.416,3.162c1.223,1.378,2.177,3.079,2.862,5.102c0.683,2.026,1.024,4.352,1.024,6.982
		c0,0.586-0.197,1.075-0.59,1.472c-0.395,0.396-0.881,0.594-1.461,0.594H74.125z M89.487,129.573
		c-0.042-2.212-0.726-3.955-2.054-5.229c-1.327-1.273-3.171-1.909-5.534-1.909c-2.239,0-4.013,0.646-5.318,1.941
		c-1.305,1.293-2.104,3.026-2.394,5.197H89.487z M80.967,112.355c-0.458,0-0.778-0.198-0.965-0.596
		c-0.187-0.396-0.155-0.761,0.093-1.096l4.974-7.325h4.666c0.706,0,1.191,0.323,1.462,0.97c0.269,0.648,0.175,1.221-0.28,1.721
		l-6.157,6.325H80.967z"/>
	<path fill="#FFFFFF" d="M128.386,120.307v-2.819h6.156v-8.702h3.887c0.987,0,1.83,0.344,2.529,1.034
		c0.698,0.688,1.048,1.534,1.048,2.536v5.132h4.601c0.997,0,1.847,0.355,2.552,1.065c0.705,0.71,1.058,1.565,1.058,2.566v2.756
		h-8.21v13.148c0,1.502,0.278,2.692,0.839,3.569c0.561,0.876,1.67,1.314,3.328,1.314h0.685c0.248,0,0.496-0.02,0.746-0.062
		c0.705-0.084,1.314,0.094,1.834,0.532c0.519,0.439,0.778,1.013,0.778,1.722v3.193c-0.788,0.376-1.752,0.635-2.892,0.783
		c-1.143,0.146-2.146,0.219-3.018,0.219c-1.987,0-3.605-0.219-4.86-0.657c-1.254-0.439-2.241-1.106-2.962-2.005
		c-0.719-0.896-1.221-2.011-1.51-3.349c-0.287-1.336-0.433-2.88-0.433-4.635v-13.773h-2.611c-0.953,0-1.782-0.354-2.486-1.065
		C128.737,122.102,128.386,121.268,128.386,120.307"/>
	<path fill="#FFFFFF" d="M182.47,132.516c0-2.38,0.424-4.54,1.273-6.48c0.851-1.942,2.001-3.6,3.453-4.978
		c1.449-1.377,3.171-2.442,5.161-3.194c1.991-0.75,4.104-1.126,6.343-1.126c2.24,0,4.354,0.376,6.344,1.126
		c1.991,0.752,3.71,1.816,5.163,3.194c1.45,1.378,2.601,3.036,3.45,4.978c0.85,1.94,1.276,4.101,1.276,6.48
		c0,2.379-0.427,4.538-1.276,6.48c-0.85,1.94-2,3.601-3.45,4.978c-1.453,1.377-3.172,2.441-5.163,3.192
		c-1.989,0.751-4.104,1.128-6.344,1.128c-2.238,0-4.352-0.376-6.343-1.128c-1.99-0.751-3.712-1.815-5.161-3.192
		c-1.452-1.377-2.603-3.038-3.453-4.978C182.894,137.054,182.47,134.895,182.47,132.516 M189.932,132.516
		c0,1.169,0.196,2.296,0.59,3.38c0.394,1.086,0.976,2.046,1.742,2.881c0.768,0.834,1.691,1.502,2.769,2.003
		c1.078,0.501,2.301,0.751,3.668,0.751c1.368,0,2.592-0.25,3.67-0.751c1.078-0.5,2-1.168,2.769-2.003
		c0.766-0.835,1.346-1.795,1.739-2.881c0.395-1.084,0.592-2.211,0.592-3.38c0-1.169-0.197-2.296-0.592-3.382
		c-0.394-1.084-0.974-2.043-1.739-2.88c-0.769-0.834-1.69-1.502-2.769-2.004c-1.078-0.5-2.302-0.75-3.67-0.75
		c-1.367,0-2.59,0.25-3.668,0.75c-1.077,0.501-2.001,1.169-2.769,2.004c-0.767,0.837-1.349,1.796-1.742,2.88
		C190.128,130.22,189.932,131.347,189.932,132.516"/>
	<path fill="#FFFFFF" d="M258.366,102.774c1.367,0,2.519,0.43,3.453,1.283c0.933,0.857,1.397,1.932,1.397,3.226
		c0,1.336-0.465,2.432-1.397,3.287c-0.935,0.855-2.086,1.283-3.453,1.283c-1.369,0-2.498-0.458-3.389-1.377
		c-0.892-0.918-1.338-1.982-1.338-3.193c0-1.209,0.446-2.265,1.338-3.162C255.868,103.224,256.997,102.774,258.366,102.774
		 M254.697,117.552h3.917c0.997,0,1.834,0.344,2.521,1.032c0.685,0.689,1.025,1.515,1.025,2.474v26.547h-3.918
		c-0.995,0-1.834-0.345-2.519-1.033c-0.685-0.688-1.026-1.534-1.026-2.534V117.552z"/>
	<path fill="#FFFFFF" d="M313.874,100.145h3.856c0.996,0,1.845,0.356,2.551,1.064c0.704,0.71,1.058,1.587,1.058,2.629v43.704h-3.918
		c-0.997,0-1.835-0.345-2.521-1.033c-0.683-0.689-1.026-1.534-1.026-2.537V100.145z"/>
	<path fill="#FFFFFF" d="M367.463,135.145c0.247,2.254,1.119,4.008,2.611,5.26c1.493,1.253,3.296,1.878,5.409,1.878
		c1.327,0,2.478-0.197,3.455-0.594c0.972-0.396,1.873-0.908,2.703-1.535c0.581-0.542,1.306-0.813,2.177-0.813
		c0.829,0,1.555,0.25,2.176,0.751l2.861,2.19c-1.74,2.171-3.689,3.715-5.846,4.634c-2.155,0.917-4.415,1.378-6.777,1.378
		c-2.24,0-4.354-0.376-6.345-1.129c-1.991-0.75-3.711-1.814-5.162-3.191c-1.451-1.378-2.602-3.038-3.452-4.979
		c-0.85-1.94-1.275-4.1-1.275-6.48c0-2.379,0.426-4.539,1.275-6.48c0.851-1.94,2.001-3.6,3.452-4.976
		c1.451-1.378,3.171-2.443,5.162-3.195c1.99-0.751,4.104-1.126,6.345-1.126c2.071,0,3.968,0.365,5.689,1.095
		c1.72,0.731,3.192,1.786,4.417,3.162c1.221,1.378,2.176,3.079,2.859,5.104s1.027,4.352,1.027,6.981
		c0,0.586-0.198,1.075-0.592,1.472c-0.395,0.397-0.882,0.594-1.462,0.594H367.463z M382.762,129.51
		c-0.042-2.211-0.726-3.954-2.053-5.229c-1.327-1.271-3.173-1.909-5.536-1.909c-2.237,0-4.01,0.648-5.316,1.941
		c-1.307,1.294-2.104,3.027-2.394,5.196H382.762z"/>
</g>
</svg>
