<?xml version="1.0" encoding="UTF-8"?> <svg xmlns="http://www.w3.org/2000/svg" xmlns:xlink="http://www.w3.org/1999/xlink" width="93px" height="104px" viewBox="0 0 93 104" version="1.1"><title>Group</title><g id="Symbols" stroke="none" stroke-width="1" fill="none" fill-rule="evenodd"><g id="HEADER" transform="translate(-674.000000, 0.000000)"><g id="Group" transform="translate(674.500000, 0.000000)"><path d="M86.4860822,12.6075047 L86.2695014,12.3735119 C85.8027378,11.8682587 74.5093804,0 46.1388292,0 C16.3270538,0 5.26463439,12.020079 4.80856236,12.5314417 L4.53913469,12.8335551 L4.40686464,13.2187573 C-6.57704807,45.1404385 5.03552922,68.0497334 16.711645,81.6475834 C29.2653863,96.2681588 44.1688302,103.28397 44.7968839,103.575697 L45.7123881,104 L46.5878753,103.495969 C61.2258627,95.0667313 72.4532379,85.082939 79.9578068,73.8198235 C86.0046558,64.7445096 89.6572032,54.8352528 90.8128096,44.3685069 C92.7809758,26.5459576 86.8722007,13.4475569 86.6192686,12.8989264 L86.4860822,12.6075047 Z" id="Path" fill="#FFFFFF"></path><g id="logo-blason-girondins-hockey" transform="translate(8.500000, 7.000000)" fill-rule="nonzero"><path d="M62.2695833,5.77291667 C57.5638889,3.54166667 49.4369444,0.883055556 37.4519444,0.883055556 C14.1666667,0.883055556 4.97722222,9.98513889 4.27597222,10.7194444 C0.365972222,22.1519444 -0.349444444,33.1169444 2.15097222,43.3027778 C4.15555556,51.4793056 8.21902778,59.1859722 14.2327778,66.2055556 C23.8755556,77.4751389 35.5370833,83.3802778 36.99625,84.0933333 C48.9411111,77.1729167 58.0880556,69.0105556 64.1891667,59.8305556 C69.0813889,52.46625 72.0351389,44.43375 72.9701389,35.955 C74.5048611,22.0244444 70.0045833,11.4183333 69.6480556,10.6013889 C69.33875,10.3038889 67.0225,8.02777778 62.2695833,5.77291667 Z" id="Path" fill="#FFFFFF"></path><path d="M70.1675,10.2047222 C70.0754167,10.1031944 60.6947222,0.217222222 37.4519444,0.217222222 C13.0120833,0.217222222 3.83444444,10.2188889 3.74472222,10.3180556 L3.69986111,10.37 L3.67861111,10.43375 C-0.2975,22.0173611 -1.02472222,33.1405556 1.51583333,43.4893056 C3.54875,51.7697222 7.66652778,59.5708333 13.7511111,66.6777778 C24.0998611,78.7643056 36.7483333,84.7308333 36.8734722,84.7898611 L37.0293056,84.8630556 L37.1756944,84.7780556 C49.2811111,77.7868056 58.5555556,69.5252778 64.7369444,60.2225 C69.6952778,52.7684722 72.6797222,44.6391667 73.6265278,36.0470833 C75.2368056,21.4247222 70.27375,10.4006944 70.2241667,10.2920833 L70.1675,10.2047222 Z M72.9725,35.9738889 C72.0280556,44.4526389 69.08375,52.4851389 64.1915278,59.8494444 C58.0833333,69.0294444 48.9434722,77.1918056 36.9986111,84.1122222 C35.5394444,83.4038889 23.8779167,77.5011111 14.2351389,66.2244444 C8.22138889,59.1977778 4.15791667,51.4911111 2.15333333,43.3216667 C-0.349444444,33.1240278 0.365972222,22.1590278 4.27833333,10.7383333 C4.98666667,10.0040278 14.1595833,0.901944444 37.4543056,0.901944444 C49.4393056,0.901944444 57.56625,3.56055556 62.2719444,5.79180556 C67.0225,8.02777778 69.33875,10.3038889 69.6527778,10.625 C70.0069444,11.4372222 74.5072222,22.03625 72.9725,35.9738889 Z" id="Shape" fill="#202145"></path><path d="M25.7361111,35.1640278 C26.1840573,35.6405595 26.6731248,36.0766908 27.1976389,36.4673611 C27.3078241,36.9254167 27.4439815,37.3976389 27.6061111,37.8840278 C27.6040591,37.5226388 27.6245619,37.1614739 27.6675,36.8026389 C29.6933333,38.2193056 33.1358333,39.8059722 37.0977778,38.2193056 C41.31,40.0798611 44.8894444,37.8958333 46.7783333,36.2501389 C46.8680556,36.7672222 46.94125,37.3079167 46.9931944,37.8840278 C47.1879295,37.1674913 47.3183081,36.4350007 47.3827778,35.6952778 C47.6864494,35.4014115 47.9726347,35.0899978 48.2398611,34.7626389 C47.9741126,34.9671733 47.6974555,35.1571288 47.4111111,35.3316667 C47.5763889,32.8902778 47.1915278,29.2093056 44.0111111,26.6852778 C43.7443056,23.9298611 42.2922222,21.0540278 38.1083333,19.2595833 C38.4689465,18.9703267 38.8483436,18.7053009 39.2440278,18.46625 C38.5971728,18.5925572 37.9578877,18.7549404 37.3291667,18.9526389 C36.8144444,18.7613889 36.2572222,18.5866667 35.6645833,18.4261111 C35.9884294,18.6662146 36.2975084,18.9256202 36.5901389,19.2029167 C32.2409722,20.8131944 30.7133333,23.7504167 30.3379167,26.4963889 C27.9768056,28.1656944 26.1068056,30.9825 27.0323611,35.7047222 C26.6144444,35.5701389 26.1776389,35.38125 25.7361111,35.1640278 Z M42.4055556,34.2195833 C43.055644,32.934559 43.5267316,31.5665777 43.8056944,30.15375 C45.0476389,31.365 46.1266667,33.1334722 46.6815278,35.7495833 C44.5565278,36.7743056 42.4952778,36.61375 40.6961111,35.9502778 C41.3045375,35.4179546 41.8764327,34.8452706 42.4079167,34.2361111 L42.4055556,34.2195833 Z M37.3338889,19.9395833 C38.3751389,21.0445833 39.6406944,22.7115278 40.2545833,24.7775 C39.2528627,24.4662688 38.2257813,24.2434712 37.1851389,24.1116667 C36.1536701,24.2128856 35.1349019,24.4169556 34.1440278,24.7208333 C34.8098611,22.6147222 36.1816667,21.0138889 37.33625,19.9466667 L37.3338889,19.9395833 Z M37.3055556,27.625 C38.4316349,27.6039038 39.5520308,27.7895694 40.6111111,28.1727778 C40.487519,29.2835713 40.1677444,30.3636101 39.6666667,31.3626389 C39.0574748,32.3618166 38.2976952,33.2609688 37.4141667,34.0283333 C36.3687051,33.2051893 35.4219107,32.2639409 34.5926389,31.2233333 C34.2033824,30.3088508 33.9458167,29.3437742 33.8276389,28.3569444 C34.9455667,27.9464706 36.1170118,27.6999343 37.3055556,27.625 Z M30.5102778,30.4583333 C30.6604759,31.3032884 30.8913472,32.1318949 31.1997222,32.9327778 C31.9975972,34.0633372 32.9064149,35.1113646 33.9126389,36.06125 C32.2409722,36.6090278 30.2009722,36.74125 27.7902778,35.9809722 C28.0570833,34.4486111 28.75125,32.2409722 30.4984722,30.4725 L30.5102778,30.4583333 Z" id="Shape" fill="#202145"></path><path d="M68.5879167,11.8055556 L68.4202778,11.6261111 C68.0590278,11.2341667 59.33,2.06125 37.4023611,2.06125 C14.3602778,2.06125 5.80833333,11.3522222 5.45652778,11.7418056 L5.24875,11.9779167 L5.14486111,12.2777778 C-3.34333333,36.9513889 5.63125,54.6597222 14.6577778,65.1666667 C24.3595833,76.47875 35.8888889,81.9022222 36.3611111,82.1288889 L37.0694444,82.4547222 L37.7470833,82.0651389 C49.0638889,75.5555556 57.7409722,67.8347222 63.5422222,59.1293056 C68.2148611,52.1144444 71.03875,44.455 71.93125,36.3634722 C73.4541667,22.58875 68.8854167,12.4643056 68.6918056,12.0440278 L68.5879167,11.8055556 Z M68.8995833,36.0069444 C68.0613889,43.5908333 65.4098611,50.7804167 61.0158333,57.375 C55.5994444,65.5019444 47.5031944,72.7576389 36.9325,78.9461111 C34.3352778,77.6144444 24.8908333,72.3869444 16.9456944,63.1266667 C4.66791667,48.8301389 1.62916667,32.1819444 7.905,13.6425 C9.24611111,12.3415278 17.5548611,5.17555556 37.3929167,5.17555556 C56.2959722,5.17555556 64.7676389,12.4170833 66.0213889,13.6 C66.6943056,15.1843056 70.1981944,24.2438889 68.8995833,36.0163889 L68.8995833,36.0069444 Z" id="Shape" fill="#202145"></path><path d="M6.12,33.5277778 C6.33449171,39.1440284 7.63083382,44.666109 9.93791667,49.7911111 L36.7766667,64.1679167 L63.75,49.7131944 C65.7479371,45.3303426 67.0358852,40.6575455 67.5655556,35.87 C67.6576389,35.0365278 67.7213889,34.2172222 67.76625,33.4168056 L37.1402778,56.2629167 L6.12,33.5277778 Z" id="Path" fill="#202145"></path><path d="M59.1340278,13.5811111 C59.3021744,13.5273384 59.4818641,13.5208042 59.6534722,13.5622222 C59.9269996,13.6263908 60.1884672,13.734007 60.4279167,13.8809722 L60.4279167,13.8809722 L61.7973611,14.6483333 C62.0268518,14.7684181 62.2382812,14.9202339 62.4254167,15.0993056 C62.5455185,15.2153683 62.6326943,15.3612044 62.6780556,15.5219444 C62.7091199,15.6599521 62.7009411,15.8038992 62.6544444,15.9375 C62.6012371,16.0905228 62.5340555,16.2383224 62.45375,16.3790278 L62.45375,16.3790278 L62.3923611,16.49 L61.4101389,15.9398611 C61.442521,15.8856755 61.4701698,15.8287981 61.4927778,15.7698611 C61.507778,15.7230235 61.507778,15.6726709 61.4927778,15.6258333 C61.4690655,15.5689033 61.4317764,15.5186441 61.3841667,15.4794444 C61.3058163,15.4145176 61.2211843,15.357569 61.1315278,15.3094444 L61.1315278,15.3094444 L60.0454167,14.7002778 C59.9534757,14.6425959 59.8470077,14.6122934 59.7384722,14.6129167 C59.6449396,14.6208363 59.5624495,14.6773241 59.52125,14.7616667 C59.483215,14.8211566 59.4612506,14.8894901 59.4575,14.96 C59.4664298,15.0320542 59.503845,15.0975308 59.5613889,15.1418056 C59.6652751,15.2311338 59.777557,15.3102056 59.8966667,15.3779167 L59.8966667,15.3779167 L60.52,15.7344444 C60.8993519,15.9469444 61.2062963,16.1318981 61.4408333,16.2893056 C61.6366616,16.409473 61.8041928,16.5705607 61.9319444,16.7615278 C62.0254562,16.9096212 62.0607854,17.0871084 62.0311111,17.2597222 C61.9804142,17.4888385 61.8926886,17.7081526 61.7713889,17.9090278 C61.6691352,18.1041855 61.5386572,18.2831949 61.3841667,18.4402778 C61.2699207,18.5566026 61.1170853,18.627142 60.9544444,18.6386111 C60.7567815,18.6454086 60.5602767,18.6057842 60.3806944,18.5229167 C60.0988933,18.4032919 59.8245128,18.2668901 59.5590278,18.1144444 L59.5590278,18.1144444 L58.3784722,17.44625 C58.1851797,17.3419939 58.0018239,17.2202836 57.8306944,17.0826389 C57.7040435,16.9836305 57.6008413,16.8578529 57.5284722,16.7143056 C57.4670639,16.5866752 57.4464538,16.4432289 57.4694444,16.3034722 C57.5031063,16.123302 57.5686726,15.9505909 57.6630556,15.7934722 L57.6630556,15.7934722 L57.7976389,15.5573611 L58.7798611,16.1075 C58.735664,16.180768 58.7030129,16.2604049 58.6830556,16.3436111 C58.6698315,16.3986012 58.6739555,16.4563367 58.6948611,16.5088889 C58.7172479,16.5600479 58.753167,16.6041305 58.79875,16.6363889 C58.8565507,16.6772654 58.9164471,16.7150947 58.9781944,16.7497222 L58.9781944,16.7497222 L60.18,17.4226389 C60.2343056,17.4533333 60.28625,17.4793056 60.3381944,17.5029167 C60.3881316,17.5251966 60.441773,17.5380065 60.4963889,17.5406944 C60.5469364,17.5414016 60.5967238,17.5283426 60.6404167,17.5029167 C60.6951363,17.4700579 60.7387309,17.421528 60.7655556,17.3636111 C60.8050498,17.3039403 60.8271263,17.2344404 60.8293056,17.1629167 C60.8139263,17.0846952 60.770204,17.0149076 60.7065278,16.9669444 C60.5847295,16.8635955 60.4535068,16.7718977 60.3145833,16.6930556 C60.1327778,16.5844444 59.8848611,16.4427778 59.5684722,16.2656944 C59.2725683,16.1052042 58.987093,15.9261907 58.71375,15.7297222 C58.546398,15.6157986 58.4067987,15.4657092 58.3052778,15.2905556 C58.2363946,15.1528649 58.2228756,14.9940175 58.2675,14.8466667 C58.3290217,14.6518438 58.4130129,14.4648446 58.5177778,14.2894444 C58.5994922,14.1403173 58.6909886,13.9967627 58.7916667,13.8597222 C58.8766452,13.7358844 58.995507,13.6391555 59.1340278,13.5811111 Z M14.6365278,12.5068056 C14.8071265,12.4775402 14.9824553,12.4946653 15.1441667,12.5563889 C15.2861436,12.6162785 15.4087388,12.7143546 15.4983333,12.8397222 C15.6027929,12.9878388 15.6921731,13.1460339 15.7651389,13.3119444 L15.7651389,13.3119444 L15.8194444,13.4276389 L14.8159722,13.8998611 C14.7848506,13.8247072 14.7391034,13.7564877 14.6813889,13.6991667 C14.6376995,13.658287 14.58245,13.6318992 14.5231944,13.6236111 C14.4603992,13.6150949 14.3964798,13.6215678 14.3366667,13.6425 C14.2558564,13.6655751 14.1769237,13.6947802 14.1005556,13.7298611 L14.1005556,13.7298611 L12.9931944,14.2445833 C12.8843758,14.2915424 12.7813724,14.3509674 12.68625,14.4216667 C12.6174762,14.4739522 12.5670509,14.5466969 12.5422222,14.6294444 C12.5189352,14.7216543 12.5189352,14.8182068 12.5422222,14.9104167 C12.5763489,15.0465151 12.6246209,15.1786696 12.68625,15.3047222 L12.68625,15.3047222 L12.8963889,15.7580556 C12.9537536,15.8871734 13.0233293,16.0105121 13.1041667,16.1263889 C13.1581833,16.2039627 13.2303167,16.2671808 13.3143056,16.3105556 C13.3927915,16.345814 13.48053,16.3549189 13.5645833,16.3365278 C13.6793884,16.3089592 13.7909747,16.2693896 13.8975,16.2184722 L13.8975,16.2184722 L14.9883333,15.7131944 C15.0530732,15.6818986 15.1161232,15.6472212 15.1772222,15.6093056 C15.2333735,15.574129 15.2829204,15.529377 15.3236111,15.4770833 C15.3618293,15.4254291 15.3847397,15.3640622 15.3897222,15.3 C15.3925547,15.2181789 15.374688,15.1369666 15.3377778,15.0638889 L15.3377778,15.0638889 L15.2881944,14.96 L14.0179167,15.5479167 L13.6684722,14.7923611 L15.95875,13.7298611 L16.4309722,14.7663889 C16.5376361,14.9718611 16.6018734,15.1966918 16.6198611,15.4275 C16.6300357,15.5970862 16.5789195,15.7646806 16.4758333,15.8997222 C16.3516447,16.0514138 16.1982974,16.1766608 16.0248611,16.2680556 C15.8265278,16.3813889 15.5833333,16.5041667 15.2952778,16.6363889 L15.2952778,16.6363889 L14.0675,17.2077778 C13.8618539,17.3077449 13.6467041,17.3868441 13.4252778,17.4438889 C13.241944,17.4861773 13.0513893,17.4861773 12.8680556,17.4438889 C12.6889745,17.3990904 12.5256303,17.3059842 12.3958333,17.1747222 C12.225564,16.9968232 12.0887897,16.7896621 11.9920833,16.5631944 L11.9920833,16.5631944 L11.4868056,15.4770833 C11.3828047,15.2478881 11.3227374,15.0012119 11.3097222,14.7498611 C11.2919566,14.5644253 11.3271621,14.3777543 11.41125,14.2115278 C11.4992733,14.0451389 11.6245149,13.901313 11.7772222,13.79125 C11.9624798,13.6590268 12.1601718,13.5451562 12.3675,13.45125 L12.3675,13.45125 L13.9045833,12.7429167 C14.1357934,12.6290593 14.3823681,12.5495191 14.6365278,12.5068056 Z M52.1451389,10.64625 L53.7979167,11.2011111 L54.8769444,14.6388889 L54.8863889,14.64125 L55.8119444,11.8740278 L56.8791667,12.2305556 L55.6041667,16.0390278 L53.9513889,15.4865278 L52.8723611,12.04875 L52.8629167,12.0463889 L51.9373611,14.8136111 L50.8701389,14.4570833 L52.1451389,10.64625 Z M18.4974599,11.1342584 L19.7085118,14.9635687 L18.634684,15.3031758 L17.4236322,11.4738655 L18.4974599,11.1342584 Z M24.4501072,9.74679431 L24.58625,9.76083333 C24.7256369,9.7818419 24.8568773,9.83971809 24.9663889,9.92847222 C25.0691424,10.0193257 25.149883,10.1323625 25.2025,10.2590278 C25.2705368,10.4102254 25.3212303,10.5686424 25.3536111,10.73125 L25.3536111,10.73125 L25.4031944,10.9815278 C25.4297088,11.099564 25.4462945,11.2196129 25.4527778,11.3404167 C25.4586504,11.4401207 25.4466563,11.5400717 25.4173611,11.6355556 C25.38748,11.7245206 25.3373706,11.8053423 25.2709722,11.8716667 C25.1892322,11.954289 25.0932488,12.0214774 24.9876389,12.07 L24.9876389,12.07 L25.1133556,12.0774185 L25.1133556,12.0774185 L25.2379167,12.0959722 C25.3182648,12.1128451 25.3934977,12.1484391 25.4575,12.1998611 C25.5332683,12.2656275 25.5950875,12.3459122 25.6393056,12.4359722 C25.7009786,12.558964 25.7447101,12.6901583 25.7691667,12.8255556 L25.7691667,12.8255556 L25.9061111,13.49375 L24.8058333,13.7298611 L24.7066667,13.2576389 C24.6901159,13.1054053 24.6256247,12.962367 24.5225,12.8491667 C24.4092146,12.7773989 24.2697629,12.7600757 24.1423611,12.8019444 L24.1423611,12.8019444 L22.4093056,13.1608333 L22.6218056,14.1831944 L21.5191667,14.4027778 L20.71875,10.4715278 L24.0431944,9.78444444 C24.2209411,9.74123494 24.4054238,9.73321395 24.58625,9.76083333 Z M48.7518299,9.90913873 L49.8509957,10.1435758 L49.013228,14.0714772 L47.9140621,13.8370401 L48.7518299,9.90913873 Z M41.71375,8.88958333 L45.0877778,9.28152778 C45.3258006,9.30542761 45.5598385,9.35937532 45.7843056,9.44208333 C45.9543161,9.50339558 46.1061573,9.60651769 46.2258333,9.74194444 C46.3357865,9.8778569 46.4067832,10.0410676 46.43125,10.2141667 C46.4611643,10.4271957 46.4611643,10.6433599 46.43125,10.8563889 L46.43125,10.8563889 L46.2895833,12.07 C46.268772,12.2840948 46.2170786,12.4940497 46.1361111,12.6933333 C46.0725223,12.8533853 45.96638,12.9930033 45.8291667,13.0970833 C45.6820466,13.2000701 45.5116854,13.2649696 45.3333333,13.2859722 C45.0980338,13.3154164 44.8598861,13.3138288 44.625,13.28125 L44.625,13.28125 L41.2415278,12.8775 L41.71375,8.88958333 Z M31.1424054,8.87379977 L31.3697222,8.88958333 C31.5567575,8.90782606 31.737001,8.96925434 31.89625,9.06902778 C32.0514831,9.1716295 32.1749665,9.31555717 32.2527778,9.48458333 C32.3535538,9.70812372 32.4127612,9.94815375 32.4275,10.1929167 L32.4275,10.1929167 L32.53375,11.3876389 C32.5624107,11.6323477 32.5472194,11.8802062 32.4888889,12.1195833 C32.4401965,12.2991908 32.3439432,12.4623321 32.2102778,12.5918056 C32.070227,12.7179178 31.9029752,12.8100275 31.7215278,12.8609722 C31.5023238,12.9222419 31.2777979,12.9625617 31.0509722,12.9813889 L31.0509722,12.9813889 L29.2541667,13.1419444 C29.0272735,13.1645271 28.7986987,13.1645271 28.5718056,13.1419444 C28.3847093,13.1256376 28.2042032,13.0649292 28.0452778,12.9648611 C27.8900447,12.8622594 27.7665613,12.7183317 27.68875,12.5493056 C27.5884682,12.3255947 27.5292833,12.0856562 27.5140278,11.8409722 L27.5140278,11.8409722 L27.4077778,10.6415278 C27.3791977,10.3976014 27.3943896,10.1505318 27.4526389,9.91194444 C27.5005575,9.7320118 27.5969258,9.56867557 27.73125,9.43972222 C27.870319,9.3122361 28.0379163,9.21993611 28.22,9.17055556 C28.4386807,9.10702726 28.6634346,9.06666652 28.8905556,9.05013889 L28.8905556,9.05013889 L30.6873611,8.88958333 C30.9141987,8.86590799 31.1428846,8.86590799 31.3697222,8.88958333 Z M34.4344444,8.72194444 L36.1769444,8.73611111 L38.2665278,11.6709722 L38.2759722,11.6709722 L38.2995833,8.75263889 L39.4258333,8.76208333 L39.3927778,12.7806944 L37.6479167,12.7641667 L35.5606944,9.82930556 L35.5488889,9.82930556 L35.5252778,12.7476389 L34.3990278,12.7381944 L34.4344444,8.72194444 Z M42.7361111,10.0205556 L42.5,11.9944444 L44.4904167,12.2376389 C44.5939728,12.2493972 44.6985272,12.2493972 44.8020833,12.2376389 C44.8812973,12.2280213 44.956394,12.1970031 45.0193056,12.1479167 C45.0817023,12.0926905 45.129545,12.0229536 45.1586111,11.9448611 C45.2014285,11.8326607 45.2284462,11.7150545 45.2388889,11.5954167 L45.2388889,11.5954167 L45.3026389,11.0547222 C45.3179882,10.9363752 45.3179882,10.8165414 45.3026389,10.6981944 C45.2934069,10.613115 45.262516,10.5318232 45.2129167,10.4620833 C45.1617384,10.4010341 45.0959473,10.3539245 45.0216667,10.3251389 C44.924078,10.2901345 44.8225906,10.2671413 44.7194444,10.2566667 L44.7194444,10.2566667 L42.7361111,10.0205556 Z M24.1329167,10.8776389 C24.0023421,10.8416483 23.8644635,10.8416483 23.7338889,10.8776389 L23.7338889,10.8776389 L22.0102778,11.2483333 L22.2086111,12.1927778 L24.0290278,11.815 C24.1462145,11.8036779 24.2532792,11.7437216 24.3241667,11.6497222 C24.3742547,11.5467699 24.3835333,11.4286783 24.3501389,11.3191667 L24.3501389,11.3191667 L24.3241667,11.1893056 C24.287963,11.0145833 24.224213,10.9106944 24.1329167,10.8776389 Z M30.6581838,9.93820295 L30.53625,9.945 L29.2234722,10.0630556 C29.1016629,10.0691871 28.9821943,10.0988538 28.8716667,10.1504167 C28.7888478,10.1886739 28.719661,10.2512715 28.6733333,10.3298611 C28.6273173,10.4094352 28.5991219,10.4980493 28.5906944,10.5895833 C28.5830117,10.7012814 28.5845912,10.8134238 28.5954167,10.9248611 L28.5954167,10.9248611 L28.6331944,11.3545833 C28.6437065,11.4786553 28.6634369,11.6017731 28.6922222,11.7229167 C28.7127692,11.8096968 28.7531819,11.8905221 28.8102778,11.9590278 C28.8660576,12.0200923 28.9395297,12.0621943 29.0204167,12.0794444 C29.1275547,12.1016946 29.2375851,12.1064785 29.34625,12.0936111 L29.34625,12.0936111 L30.7794444,11.9661111 C30.8895034,11.9592687 30.9978317,11.9353728 31.1005556,11.8952778 C31.1755652,11.8619846 31.2394729,11.8079089 31.2847222,11.7394444 C31.3288165,11.6605226 31.3538796,11.5723976 31.3579167,11.4820833 C31.3670504,11.3578992 31.3670504,11.2332119 31.3579167,11.1090278 L31.3579167,11.1090278 L31.3177778,10.6769444 C31.3107085,10.5650564 31.2917119,10.454243 31.2611111,10.3463889 C31.2373875,10.2593934 31.1946463,10.1787496 31.1359722,10.1102778 C31.0730893,10.0406487 30.9908905,9.99132943 30.8998611,9.96861111 C30.7810811,9.93882589 30.6578845,9.93082611 30.53625,9.945 Z" id="Combined-Shape" fill="#202145"></path><path d="M53.2430556,16.7875 L54.0104167,17.0613889 L54.3480556,18.0176389 L55.2145833,17.4911111 L55.9819444,17.765 L54.7234722,18.5063889 L55.2925,19.9088889 L54.4968056,19.6231944 L54.1308333,18.6268056 L53.2170833,19.1675 L52.4213889,18.8841667 L53.7483333,18.1593056 L53.2430556,16.7875 Z M20.2205556,16.3601389 C20.3207979,16.3549024 20.4207278,16.3752134 20.5109722,16.4191667 C20.5967285,16.4633537 20.6686271,16.53035 20.71875,16.6127778 C20.7817614,16.7158 20.8302294,16.8270379 20.8627778,16.9433333 L20.8627778,16.9433333 L21.0540278,17.5997222 C21.0907534,17.7151062 21.1106343,17.8351865 21.1130556,17.95625 C21.1148723,18.0522986 21.0903769,18.1470139 21.0422222,18.2301389 C20.9890464,18.3162296 20.9151854,18.3876556 20.8273611,18.4379167 C20.7103361,18.5036273 20.5858927,18.5551485 20.4566667,18.5913889 L20.4566667,18.5913889 L18.6315278,19.125 L17.99875,16.9645833 L19.8238889,16.4309722 C19.9524235,16.3900308 20.0857949,16.3662145 20.2205556,16.3601389 Z M49.6801389,15.8170833 L50.2916667,15.9776389 L49.9611111,17.23375 C49.9247299,17.3360754 49.9247299,17.4478135 49.9611111,17.5501389 C50.0134042,17.6343702 50.0994317,17.6920087 50.1972222,17.7083333 L50.1972222,17.7083333 L50.7969444,17.8641667 C50.8902115,17.9008939 50.995019,17.8939645 51.0826389,17.8452778 C51.1640043,17.7735528 51.2181981,17.6760041 51.2361111,17.5690278 L51.2361111,17.5690278 L51.5808333,16.3034722 L52.1923611,16.4616667 L51.8263889,17.8641667 C51.7870562,18.0883193 51.6594802,18.2873379 51.4722222,18.4166667 C51.263497,18.5248725 51.0197632,18.5436212 50.7969444,18.4686111 L50.7969444,18.4686111 L49.9233333,18.2325 C49.6939227,18.1937145 49.4892737,18.0654904 49.3543056,17.8759722 C49.2533838,17.6713093 49.2397529,17.4344734 49.3165278,17.2195833 L49.3165278,17.2195833 L49.6801389,15.8170833 Z M20.0056944,16.97875 C19.9478024,16.9820997 19.8906235,16.9932179 19.8356944,17.0118056 L19.8356944,17.0118056 L18.7613889,17.3258333 L19.0730556,18.3930556 L20.1473611,18.0790278 C20.2036164,18.0643328 20.2576248,18.0420941 20.3079167,18.0129167 C20.3469601,17.9908224 20.3789011,17.9580624 20.4,17.9184722 C20.4225904,17.8774167 20.4324533,17.8305677 20.4283333,17.7838889 C20.4260381,17.716428 20.4141119,17.6496415 20.3929167,17.5855556 L20.3929167,17.5855556 L20.3079167,17.2927778 C20.2907589,17.2283942 20.265364,17.1664941 20.2323611,17.1086111 C20.2081379,17.0677677 20.1740378,17.0336676 20.1331944,17.0094444 C20.0944455,16.9873786 20.0502402,16.9767366 20.0056944,16.97875 Z M23.9676389,15.4581944 L24.07625,15.9681944 L22.4943056,16.3058333 L22.5675,16.6576389 L24.0691667,16.3388889 L24.1636111,16.7945833 L22.6643056,17.1133333 L22.7398611,17.4651389 L24.3595833,17.1227778 L24.4705556,17.6516667 L22.2345833,18.12625 L21.7694444,15.9233333 L23.9676389,15.4581944 Z M46.77125,15.2575 L47.57875,15.4015278 L48.2870833,17.8169444 L47.5976389,17.6941667 L47.4748611,17.2668056 L46.2163889,17.0306944 L45.96375,17.3895833 L45.2766667,17.2738889 L46.77125,15.2575 Z M29.2510861,14.732727 L29.3604167,14.7404167 C29.4435478,14.747142 29.5241695,14.7721347 29.5965278,14.8136111 C29.6641126,14.8540798 29.7195683,14.911982 29.7570833,14.98125 C29.7978981,15.0665153 29.8227077,15.1585509 29.8302778,15.2527778 C29.8392917,15.3312234 29.8392917,15.4104433 29.8302778,15.4888889 C29.823153,15.5415578 29.8071879,15.592646 29.7830556,15.64 C29.7616316,15.6778144 29.7317274,15.7101433 29.6956944,15.7344444 L29.6956944,15.7344444 L29.58,15.7981944 L29.6654151,15.8032153 C29.7493083,15.8173424 29.8272647,15.85824 29.8869444,15.9209722 C29.9638231,16.0297362 30.0073117,16.1585608 30.0120833,16.2916667 C30.0308157,16.3931241 30.0308157,16.4971537 30.0120833,16.5986111 C29.9930664,16.6725963 29.9547749,16.7402174 29.9011111,16.7945833 C29.8479142,16.8456048 29.7830787,16.8828853 29.7122222,16.9031944 C29.6354395,16.9283096 29.5563449,16.9457104 29.4761111,16.9551389 L29.4761111,16.9551389 L27.4644444,17.1747222 L27.2283333,14.93875 L29.0322222,14.7404167 C29.1413163,14.7288822 29.2513226,14.7288822 29.3604167,14.7404167 Z M42.4716667,14.6695833 L44.7076389,14.9245833 L44.64625,15.4440278 L43.0406944,15.2598611 L42.9981944,15.61875 L44.5211111,15.7911111 L44.4691667,16.25625 L42.94625,16.0815278 L42.90375,16.4404167 L44.5494444,16.6269444 L44.4880556,17.1652778 L42.2166667,16.9055556 L42.4716667,14.6695833 Z M32.8525,14.4405556 C32.9801584,14.4329201 33.1082562,14.4376645 33.235,14.4547222 C33.3392506,14.4681014 33.4388088,14.5061439 33.5254167,14.5656944 C33.6102451,14.6246933 33.6765691,14.7065748 33.7166667,14.8018056 C33.7683751,14.9294686 33.7963791,15.0654881 33.7993056,15.2031944 L33.7993056,15.2031944 L33.8347222,15.87375 C33.8455923,16.0112096 33.8320023,16.1495078 33.7945833,16.2822222 C33.7629585,16.3809931 33.7059679,16.4697357 33.6293056,16.5395833 C33.5472332,16.6064288 33.4512229,16.6540305 33.3483333,16.6788889 C33.2245639,16.709699 33.097992,16.7278937 32.9705556,16.7331944 L32.9705556,16.7331944 L31.9623611,16.7851389 C31.8347027,16.7927744 31.7066049,16.78803 31.5798611,16.7709722 C31.4756105,16.7575931 31.3760523,16.7195505 31.2894444,16.66 C31.2048803,16.6007174 31.1386244,16.5189201 31.0981944,16.4238889 C31.0465083,16.2953955 31.0185105,16.1586065 31.0155556,16.0201389 L31.0155556,16.0201389 L30.9801389,15.3495833 C30.9694996,15.2129055 30.983088,15.0754228 31.0202778,14.9434722 C31.0512326,14.8431398 31.109235,14.7532769 31.1879167,14.68375 C31.2686133,14.616163 31.3640402,14.5684496 31.4665278,14.5444444 C31.590379,14.5144303 31.7169498,14.4970269 31.8443056,14.4925 L31.8443056,14.4925 Z M38.5805556,14.4193056 L40.48125,14.5231944 C40.6149642,14.5265054 40.7476103,14.5479512 40.8755556,14.5869444 C40.9731154,14.6151134 41.0617586,14.667974 41.1329167,14.7404167 C41.1983402,14.8106874 41.2439641,14.897047 41.2651389,14.9906944 C41.2894969,15.1086662 41.2974424,15.2294372 41.28875,15.3495833 L41.28875,15.3495833 L41.2509722,16.0343056 C41.2471302,16.1548407 41.2256521,16.2741629 41.1872222,16.3884722 C41.1581228,16.4800776 41.1041775,16.5618128 41.0313889,16.6245833 C40.9520885,16.6867797 40.8589375,16.7289002 40.7598611,16.7473611 C40.6275708,16.7719213 40.4927297,16.7798531 40.3584722,16.7709722 L40.3584722,16.7709722 L38.4695833,16.6670833 L38.5805556,14.4193056 Z M47.0758333,15.8336111 L46.5351389,16.59625 L47.3284722,16.7379167 L47.0758333,15.8336111 Z M36.7506944,14.3815278 C36.8527702,14.37758 36.9546335,14.3936215 37.0505556,14.42875 C37.1246661,14.4555456 37.190561,14.5011026 37.2418056,14.5609722 C37.2905903,14.6224548 37.3245266,14.6943674 37.3409722,14.7711111 C37.3616934,14.8609248 37.3719929,14.9528276 37.3716667,15.045 L37.3716667,15.045 L37.3716667,15.1890278 C37.3779708,15.2557774 37.3779708,15.3229726 37.3716667,15.3897222 C37.3641323,15.4459255 37.3465366,15.5003122 37.3197222,15.5502778 C37.2942721,15.5975715 37.2578331,15.6380593 37.2134722,15.6683333 C37.1589973,15.7030782 37.0991674,15.7286055 37.0363889,15.7438889 L37.0363889,15.7438889 L37.1045523,15.7610355 L37.1045523,15.7610355 L37.1709722,15.7840278 C37.2133685,15.8023131 37.2506537,15.8306823 37.2795833,15.8666667 C37.314927,15.9086208 37.3407096,15.9577689 37.3551389,16.0106944 C37.3769485,16.087417 37.3865106,16.1671013 37.3834722,16.2468056 L37.3834722,16.2468056 L37.3834722,16.6293056 L36.7530556,16.6293056 L36.7530556,16.3577778 C36.7578282,16.2749046 36.7372381,16.1925441 36.6940278,16.1216667 C36.6379677,16.0683298 36.5603888,16.043923 36.4838889,16.0555556 L36.4838889,16.0555556 L35.4945833,16.0555556 L35.4945833,16.6481944 L34.8665278,16.6481944 L34.8476389,14.3980556 Z M29.1904903,16.0831353 L29.13375,16.08625 L28.0098611,16.2090278 L28.0476389,16.5584722 L29.1715278,16.4356944 C29.2281518,16.4317584 29.2831001,16.414789 29.3320833,16.3861111 C29.3730545,16.3524481 29.3913611,16.2984437 29.3793056,16.2468056 C29.3698611,16.1783333 29.3438889,16.12875 29.3013889,16.1051389 C29.2479834,16.0848594 29.1903291,16.0783631 29.13375,16.08625 Z M32.8145643,15.0149019 L32.74625,15.0166667 L31.9954167,15.0544444 C31.9265186,15.0543818 31.8582964,15.0680262 31.7947222,15.0945833 C31.7485852,15.1155404 31.7093011,15.1490955 31.6813889,15.1913889 C31.6543024,15.2352904 31.6366152,15.2843324 31.6294444,15.3354167 C31.6233468,15.398232 31.6233468,15.4614902 31.6294444,15.5243056 L31.6294444,15.5243056 L31.64125,15.7604167 C31.6435962,15.8303196 31.6522893,15.8998648 31.6672222,15.9681944 C31.6745359,16.0186678 31.6957971,16.0660966 31.7286111,16.1051389 C31.7574353,16.1412001 31.7972189,16.1668937 31.8419444,16.1783333 C31.9012768,16.1934991 31.9627846,16.1982919 32.02375,16.1925 L32.02375,16.1925 L32.8288889,16.1523611 C32.8909769,16.1501965 32.952334,16.1382438 33.0106944,16.1169444 C33.0533791,16.1002908 33.0902962,16.0715775 33.1169444,16.0343056 C33.1427776,15.9910689 33.1588912,15.942728 33.1641667,15.8926389 C33.1702188,15.8227233 33.1702188,15.7524156 33.1641667,15.6825 L33.1641667,15.6825 L33.1641667,15.4463889 C33.1612911,15.3827653 33.1525974,15.3195386 33.1381944,15.2575 C33.1283931,15.2068954 33.1056118,15.1597057 33.0720833,15.1205556 C33.040266,15.0809156 32.9976082,15.0513833 32.9493056,15.0355556 C32.8832822,15.0172344 32.8145199,15.0108379 32.74625,15.0166667 Z M39.1920833,15.0143056 L39.12125,16.1169444 L40.2380556,16.1759722 C40.2959576,16.1848552 40.3548757,16.1848552 40.4127778,16.1759722 C40.4566853,16.168592 40.4976114,16.1489475 40.5308333,16.1193056 C40.5639988,16.0861166 40.5890483,16.0457142 40.6040278,16.00125 C40.6222105,15.9366165 40.6325167,15.8700228 40.6347222,15.8029167 L40.6347222,15.8029167 L40.65125,15.4983333 C40.6602485,15.4325284 40.6602485,15.3658049 40.65125,15.3 C40.6396451,15.2057084 40.5726574,15.1275561 40.48125,15.1016667 C40.4251484,15.085651 40.3672189,15.0769219 40.3088889,15.0756944 L40.3088889,15.0756944 L39.1920833,15.0143056 Z M29.0896843,15.2798826 L29.0416667,15.2834722 L27.9319444,15.4038889 L27.9697222,15.7533333 L29.0794444,15.6329167 C29.1280708,15.6289111 29.1742622,15.6099397 29.2116667,15.5786111 C29.2667739,15.4921947 29.25398,15.3790172 29.1809722,15.3070833 C29.13901,15.2823788 29.0894259,15.2739747 29.0416667,15.2834722 Z M36.4815278,14.9552778 L35.4969444,14.9552778 L35.4969444,15.5030556 L36.5429167,15.5030556 C36.6083394,15.5092072 36.6733662,15.4878167 36.7223611,15.4440278 C36.7613328,15.3927258 36.7798462,15.3287704 36.7743056,15.2645833 L36.7743056,15.2645833 L36.7743056,15.1890278 C36.7719444,15.0898611 36.7483333,15.0261111 36.7011111,14.9977778 C36.6329872,14.9643696 36.5571972,14.9497006 36.4815278,14.9552778 L36.4815278,14.9552778 Z" id="Combined-Shape" fill="#202145"></path><path d="M37.0175,50.6033333 C37.3474134,50.6033333 37.6148611,50.870781 37.6148611,51.2006944 C37.6148611,51.5306079 37.3474134,51.7980556 37.0175,51.7980556 C36.6875866,51.7980556 36.4201389,51.5306079 36.4201389,51.2006944 C36.4201389,50.870781 36.6875866,50.6033333 37.0175,50.6033333 Z M37.5770833,45.7205556 C38.165,46.2518056 38.6773611,46.7216667 39.0197222,47.0475 C39.3252826,47.3369397 39.6970186,47.7330336 40.072895,48.1280846 L40.3234119,48.3901155 C41.0727182,49.1686537 41.7834435,49.8472893 41.9593056,49.5644444 C42.2143056,49.15125 41.6594444,48.68375 42.4315278,48.5113889 C43.2036111,48.3390278 43.2083333,49.6329167 43.0123611,50.0579167 C42.8694013,50.3586842 42.6060623,50.5850837 42.2872536,50.6813109 C41.968445,50.777538 41.6238234,50.7346414 41.3383333,50.5631944 C40.6181944,50.1688889 38.6702778,48.08875 37.0175,46.3131944 L37.0175,46.3131944 L37.2701389,46.04875 C37.3693056,45.9401389 37.4731944,45.8315278 37.5770833,45.7205556 Z M42.5755556,40.0798611 C42.6038889,39.9665278 42.8943056,39.6643056 43.0619444,39.9665278 C43.2295833,40.26875 42.9958333,40.3466667 42.8636111,40.4529167 C42.7313889,40.5591667 41.9805556,41.3123611 41.5083333,41.7397222 C41.4267963,41.8135463 40.9282451,42.300271 40.2502389,42.9776944 L39.9493704,43.2790463 C39.5871549,43.6427334 39.18856,44.0461593 38.7832806,44.4615488 L38.4349537,44.8198791 C38.1444715,45.1198495 37.8549074,45.421875 37.5770833,45.7158333 L37.5770833,45.7158333 L37.4218403,45.880816 L37.4218403,45.880816 L37.2701389,46.0440278 L37.0175,46.3131944 C35.3601925,48.0910685 33.4164041,50.169106 32.6966667,50.5584722 C32.4109863,50.73074 32.0657577,50.7740988 31.7463503,50.6778267 C31.4269428,50.5815545 31.163177,50.3546397 31.0202778,50.0531944 C30.8266667,49.6281944 30.8030556,48.3295833 31.6034722,48.5066667 C32.4038889,48.68375 31.8206944,49.1465278 32.0756944,49.5597222 C32.2515565,49.842567 32.9622818,49.1639315 33.7115881,48.3853933 L33.962105,48.1233624 C34.3379814,47.7283114 34.7097174,47.3322174 35.0152778,47.0427778 C35.3552778,46.7169444 35.87,46.2470833 36.4579167,45.7158333 L36.4579167,45.7158333 L36.2899,45.5385713 C36.0642302,45.301147 35.8324321,45.0598555 35.6000463,44.8198791 L35.2517194,44.4615488 C34.84644,44.0461593 34.4478451,43.6427334 34.0856296,43.2790463 L33.7847611,42.9776944 C33.1067549,42.300271 32.6082037,41.8135463 32.5266667,41.7397222 C32.0615278,41.3123611 31.3036111,40.5497222 31.1713889,40.4529167 C31.0391667,40.3561111 30.8054167,40.2711111 30.9730556,39.9665278 C31.1406944,39.6619444 31.4311111,39.9759722 31.4594444,40.0798611 L31.4594444,40.0798611 L32.9068056,41.4847222 C33.55375,42.1151389 35.4355556,43.7891667 37.0175,45.2129167 L37.0175,45.2129167 L37.2349342,45.0173391 C37.3079357,44.9517105 37.3814127,44.8856864 37.4552209,44.8193881 L37.9008926,44.4192818 C39.2429155,43.2149288 40.5988763,42.0005177 41.1281944,41.4847222 L41.1281944,41.4847222 Z" id="Combined-Shape" fill="#202145"></path><path d="M31.7852778,66.3283333 C31.9371276,66.3248156 32.0885666,66.3455388 32.2338889,66.3897222 C32.3469093,66.4235037 32.4482891,66.4880924 32.5266667,66.57625 C32.6027805,66.6656158 32.6569529,66.771535 32.6848611,66.8855556 C32.7183228,67.0294929 32.7341796,67.1769614 32.7320833,67.3247222 L32.7320833,67.3247222 L32.7320833,68.0519444 C32.7339041,68.1996923 32.7180508,68.3471278 32.6848611,68.4911111 C32.6593841,68.6072061 32.6067935,68.7156236 32.5313889,68.8075 C32.4522431,68.8942316 32.3510603,68.9578788 32.2386111,68.9916667 C32.0935453,69.0370103 31.9419145,69.0577598 31.79,69.0530556 L31.79,69.0530556 L30.2576389,69.0530556 C30.1041864,69.0575415 29.9510384,69.0368027 29.8043056,68.9916667 C29.692805,68.9572827 29.5925332,68.8936957 29.5138889,68.8075 C29.4376353,68.7185574 29.3841544,68.6124058 29.3580556,68.4981944 C29.3248659,68.3542112 29.3090126,68.2067756 29.3108333,68.0590278 L29.3108333,68.0590278 L29.3108333,67.3318056 C29.3087371,67.1840448 29.3245939,67.0365762 29.3580556,66.8926389 C29.3841544,66.7784275 29.4376353,66.6722759 29.5138889,66.5833333 C29.5895899,66.4938475 29.6884163,66.4268741 29.7995833,66.3897222 C29.9465683,66.345743 30.0995288,66.3250296 30.2529167,66.3283333 L30.2529167,66.3283333 Z M36.1013889,66.3188889 C36.2387693,66.3155848 36.3758145,66.3339106 36.5075,66.3731944 C36.6021671,66.4016102 36.6892893,66.4508182 36.7625,66.5172222 C36.8245286,66.574221 36.8701805,66.6467751 36.8947222,66.7273611 C36.9212471,66.808953 36.9347918,66.8942049 36.9348611,66.98 L36.9348611,66.98 L36.9348611,67.2161111 L36.6184722,67.2161111 L36.6184722,67.0933333 C36.6229424,67.0032777 36.6059477,66.9134488 36.5688889,66.83125 C36.5397198,66.7720426 36.4937242,66.7227615 36.4366667,66.6895833 C36.3769648,66.6569689 36.3109209,66.637639 36.2430556,66.6329167 C36.1646854,66.6239354 36.0858196,66.6199921 36.0069444,66.6211111 L36.0069444,66.6211111 L34.7579167,66.6211111 C34.6786011,66.6206454 34.5994583,66.6285597 34.5218056,66.6447222 C34.450154,66.6591549 34.3824866,66.6889608 34.3234722,66.7320833 C34.2640274,66.7764912 34.2175572,66.8360057 34.1888889,66.9044444 C34.1529507,66.9936201 34.1360614,67.0893265 34.1393056,67.1854167 L34.1393056,67.1854167 L34.1393056,68.1841667 C34.1357999,68.2810419 34.1526927,68.3775726 34.1888889,68.4675 C34.2182285,68.5355433 34.2645739,68.5948979 34.3234722,68.6398611 C34.3824866,68.6829836 34.450154,68.7127895 34.5218056,68.7272222 C34.5996257,68.7422687 34.678658,68.7501719 34.7579167,68.7508333 L34.7579167,68.7508333 L36.01875,68.7508333 C36.1192343,68.752755 36.2196659,68.744847 36.3186111,68.7272222 C36.3879082,68.717998 36.4541539,68.6929539 36.5122222,68.6540278 C36.5584782,68.6170687 36.5936152,68.5680404 36.61375,68.5123611 C36.6344263,68.439444 36.6439783,68.3638238 36.6420833,68.2880556 L36.6420833,68.2880556 L36.6420833,68.1227778 L36.9797222,68.1227778 L36.9797222,68.3022222 C36.9812303,68.4095322 36.9693327,68.5166106 36.9443056,68.6209722 C36.9235509,68.7111637 36.8767512,68.7932683 36.8097222,68.8570833 C36.7310738,68.9255365 36.6371482,68.9741188 36.5358333,68.99875 C36.3868571,69.0299806 36.2345906,69.0426695 36.0825,69.0365278 L36.0825,69.0365278 L34.7248611,69.0365278 C34.5713905,69.041361 34.4181857,69.0206145 34.2715278,68.9751389 C34.1590786,68.9413511 34.0578958,68.8777038 33.97875,68.7909722 C33.9024964,68.7020297 33.8490155,68.595878 33.8229167,68.4816667 C33.7906098,68.3375732 33.7755503,68.1901495 33.7780556,68.0425 L33.7780556,68.0425 L33.7780556,67.3152778 C33.7752779,67.1676168 33.7903406,67.0201607 33.8229167,66.8761111 C33.8490155,66.7618997 33.9024964,66.6557481 33.97875,66.5668056 C34.0571276,66.478648 34.1585073,66.4140593 34.2715278,66.3802778 C34.4184376,66.3359514 34.5714534,66.3152305 34.7248611,66.3188889 L34.7248611,66.3188889 Z M25.4338889,66.3590278 L25.4338889,67.4994444 L27.8351389,67.4994444 L27.8351389,66.3590278 L28.1940278,66.3590278 L28.1940278,69.0176389 L27.8351389,69.0176389 L27.8351389,67.7945833 L25.4338889,67.7945833 L25.4338889,69.0176389 L25.075,69.0176389 L25.075,66.3590278 L25.4338889,66.3590278 Z M38.3963889,66.3590278 L38.3963889,67.4852778 L38.8473611,67.4852778 L40.5143056,66.3590278 L41.1022222,66.3590278 L41.1093056,66.3661111 L39.2038889,67.6363889 L41.2816667,69.0105556 L41.2745833,69.0176389 L40.6441667,69.0176389 L38.8190278,67.7804167 L38.3963889,67.7804167 L38.3963889,69.0176389 L38.0375,69.0176389 L38.0375,66.3590278 L38.3963889,66.3590278 Z M44.7477778,66.3590278 L44.7477778,66.6518056 L42.4976389,66.6518056 L42.4976389,67.4994444 L44.6604167,67.4994444 L44.6604167,67.7945833 L42.4976389,67.7945833 L42.4976389,68.7225 L44.7619444,68.7225 L44.7619444,69.0176389 L42.13875,69.0176389 L42.13875,66.3590278 L44.7477778,66.3590278 Z M45.985,66.3590278 L47.2033333,67.5915278 L48.4216667,66.3590278 L48.9080556,66.3590278 L47.3851389,67.89375 L47.3851389,69.0176389 L47.0238889,69.0176389 L47.0238889,67.89375 L45.5009722,66.3590278 L45.985,66.3590278 Z M31.7545833,66.6234568 L30.2977778,66.6234568 C30.2184753,66.6232792 30.1393606,66.6311906 30.0616667,66.6470833 C29.9900151,66.661516 29.9223477,66.6913219 29.8633333,66.7344444 C29.8053,66.7797004 29.7597875,66.8390292 29.7311111,66.9068056 C29.695173,66.9959812 29.6782836,67.0916876 29.6815278,67.1877778 L29.6815278,67.1877778 L29.6815278,68.1865278 C29.6780221,68.283403 29.694915,68.3799337 29.7311111,68.4698611 C29.7603989,68.5372795 29.8058041,68.5964685 29.8633333,68.6422222 C29.9223477,68.6853447 29.9900151,68.7151506 30.0616667,68.7295833 C30.1395234,68.744378 30.2185331,68.7522789 30.2977778,68.7531944 L30.2977778,68.7531944 L31.7545833,68.7531944 C31.8338398,68.7524937 31.9128686,68.7445908 31.9906944,68.7295833 C32.062346,68.7151506 32.1300134,68.6853447 32.1890278,68.6422222 C32.2479261,68.597259 32.2942715,68.5379044 32.3236111,68.4698611 C32.3598073,68.3799337 32.3767001,68.283403 32.3731944,68.1865278 L32.3731944,68.1865278 L32.3731944,67.1877778 C32.3764386,67.0916876 32.3595493,66.9959812 32.3236111,66.9068056 C32.2949428,66.8383668 32.2484726,66.7788523 32.1890278,66.7344444 C32.1300134,66.6913219 32.062346,66.661516 31.9906944,66.6470833 C31.9130338,66.6309728 31.8338964,66.623059 31.7545833,66.6234568 L31.7545833,66.6234568 Z" id="Combined-Shape" stroke="#202145" stroke-width="0.5" fill="#202145"></path></g></g></g></g></svg> 