<svg viewBox="0 0 720.36896 514.43396" xmlns="http://www.w3.org/2000/svg"><g fill="#010101"><path d="m265.06161 298.76715v15.02106c0 7.272 5.893 12.35394 13.167 11.355l25.432-3.492v-41.344l-25.432 3.49a15.59484 15.59484 0 0 0 -13.167 14.97"/><path d="m615.19794 160.96436v-28.769c0-7.266-5.89606-12.348-13.17005-11.352l-24.308 3.33v136.55l6.325-.868z"/><path d="m603.14728 278.96191-25.427 3.492v41.324l25.427-3.494a15.5993 15.5993 0 0 0 13.16894-14.966v-15.00891c0-7.265-5.896-12.346-13.16894-11.34705"/><path d="m59.629 97.03-21.06 3.452v118.166l1.043 3.03 66.087 190.063-59.308 57.618-46.391 45.075 59.629-9.809 660.74-97.478v-407.147zm445.252 16.136 21.752-2.975.00994 180.838 3.818 21.208-54.899 7.542c-17.141 2.354-31.033-9.619-31.033-26.748v-92.781c0-17.13 13.892-32.915 31.033-35.264l29.319-4.01794zm-290.819 61.579v221.502l-21.758 2.991v-14.755l-75.172-218.217 22.898-3.136 52.274 151.745v-158.904l25.581-3.503zm27.429-25.509 240.41494-32.924v21.731l-244.46994 33.49zm184.83 54.52v122.626l-21.742 3.148-.02-119.542c0-7.269-5.923-12.308-13.206-11.309l-25.374 3.479v132.514l-25.58 3.514 3.818-22.266.01-132.522 49.945-6.845c17.151-2.351 32.149 10.063 32.149 27.203m-146.977 10.283a15.60136 15.60136 0 0 0 -13.166 14.977v28.782l-21.752 6.47v-36.164c0-17.127 13.891-32.928 31.032-35.277l49.955-6.846.01 132.681 3.818 21.218-54.899 7.541c-17.141 2.355-31.032-9.624-31.032-26.76v-22.794c0-17.136 13.891-32.93 31.032-35.281l29.319-4.023v-47.858zm248.914 139.018-289.58 39.806v-21.742l293.635-40.35zm109.81-46.842c0 17.12-13.893 32.907-31.032 35.263l-54.902 7.55 3.818-22.263.017-221.343 49.948-6.84c17.139-2.347 31.032 9.62793 31.032 26.748v36.135l-29.913 95.234c17.139-2.353 31.032 9.61805 31.032 26.738z"/><path d="m466.28143 201.15112v85.01c0 7.268 5.89295 12.347 13.167 11.349l25.432-3.493v-111.315l-25.432 3.487a15.58824 15.58824 0 0 0 -13.167 14.962"/></g></svg>