<?xml version="1.0" encoding="utf-8"?>
<!-- Generator: Adobe Illustrator 24.3.0, SVG Export Plug-In . SVG Version: 6.00 Build 0)  -->
<svg version="1.1" id="Calque_1" xmlns="http://www.w3.org/2000/svg" xmlns:xlink="http://www.w3.org/1999/xlink" x="0px" y="0px"
	 viewBox="0 0 150 150" style="enable-background:new 0 0 150 150;" xml:space="preserve">
<style type="text/css">
	.st0{fill:#00BEC3;}
</style>
<g>
	<path class="st0" d="M81.9,104.4c-8.3,0-16.2-4.8-21.6-13.1c-3.8-5.9-9-9.2-14.4-9.2s-10.6,3.4-14.4,9.2l-7.2-4.6
		c5.4-8.3,13.2-13.1,21.6-13.1c8.3,0,16.2,4.8,21.6,13.1c3.8,5.9,9,9.2,14.4,9.2s10.6-3.4,14.4-9.2l7.2,4.6
		C98.1,99.6,90.2,104.4,81.9,104.4z"/>
	<path class="st0" d="M108.1,74.4c-8.3,0-16.2-4.8-21.6-13.1c-3.8-5.8-9-9.2-14.4-9.2s-10.6,3.4-14.4,9.2l-7.2-4.6
		c5.4-8.3,13.2-13.1,21.6-13.1c8.3,0,16.2,4.8,21.6,13.1c3.8,5.9,9,9.2,14.4,9.2s10.6-3.4,14.4-9.2l7.2,4.6
		C124.3,69.7,116.5,74.4,108.1,74.4z"/>
</g>
</svg>
