<svg width="1200" height="630" viewBox="0 0 1200 630" fill="none" xmlns="http://www.w3.org/2000/svg">
<path d="M780.65 42.6664C774.048 45.1166 759.415 54.3046 750.772 61.5189L746.552 65.058L744.034 63.8329C738.589 61.2466 736.684 61.587 693.806 71.0472C681.828 73.7015 670.598 76.2877 668.692 76.8322C666.855 77.3767 662.227 78.3976 658.484 79.2143C636.5 83.6381 608.188 90.2399 605.874 91.3969C601.178 93.779 596.89 99.8363 596.89 104.124V105.962L595.393 103.988C589.948 96.9778 584.639 95.6846 572.389 98.2709C553.536 102.218 512.428 111.338 509.774 112.155C508.073 112.699 503.376 113.788 499.225 114.605C479.828 118.485 439.06 127.673 437.087 128.557C435.862 129.102 434.16 129.578 433.343 129.578C431.642 129.578 427.082 130.531 396.796 137.133C361.133 144.96 358.682 145.776 354.735 151.765C352.421 155.168 352.013 157.21 351.332 167.079L350.856 173.476L346.159 174.021C343.573 174.293 341.327 174.361 341.123 174.225C340.987 174.021 341.123 170.55 341.531 166.534C341.872 162.519 342.008 158.844 341.736 158.367C341.463 157.891 337.448 159.32 329.213 162.927C322.543 165.854 316.894 168.44 316.69 168.644C316.077 169.257 312.947 198.386 313.355 198.863C313.763 199.203 318.936 198.182 321.59 197.229C322.339 196.957 321.522 198.046 319.752 199.611C317.983 201.177 316.281 203.422 315.873 204.648C315.465 205.805 314.376 212.815 313.355 220.097C312.402 227.379 311.517 233.437 311.517 233.437C311.449 233.505 304.847 233.845 296.885 234.253C283.681 234.866 282.116 235.07 279.257 236.567C275.514 238.473 272.928 242.693 272.928 246.776C272.928 252.493 277.828 258.142 283.341 258.687C284.906 258.823 295.115 258.551 305.936 258.006C325.265 257.121 325.742 257.053 328.464 255.352C333.364 252.221 334.181 249.771 336.223 232.552C336.699 228.672 337.312 225.678 337.584 225.882C338.333 226.358 346.159 240.311 347.112 242.897C347.657 244.326 347.929 258.687 348.065 291.9C348.269 341.651 348.337 342.672 351.604 351.315C352.217 352.949 352.489 354.446 352.285 354.65C352.081 354.922 345.683 355.263 338.06 355.467L324.312 355.875L321.454 361.32C319.208 365.54 318.595 367.513 318.527 370.1C318.527 374.932 320.705 379.015 324.517 381.466C328.328 383.848 331.254 383.984 340.783 382.146C344.458 381.466 352.489 379.968 358.546 378.947L369.708 377.042L371.001 378.743C371.682 379.628 372.294 380.513 372.294 380.717C372.294 380.921 370.729 383.848 368.823 387.183C362.834 397.596 359.567 406.784 358.138 417.129L357.525 421.212L349.63 405.014L341.668 388.748L338.741 389.36C337.176 389.633 333.568 389.905 330.778 389.905C326.422 389.905 325.129 389.565 322.066 387.863C318.051 385.685 315.873 383.371 313.559 379.084C312.402 376.906 312.062 375.136 312.062 370.78C312.062 366.084 312.334 364.655 314.035 361.116C315.124 358.802 315.873 356.76 315.669 356.556C314.308 355.127 293.005 367.513 288.717 372.141C287.152 373.843 284.566 377.79 283.069 380.921L280.21 386.638L289.194 397.051C294.162 402.836 299.607 409.506 301.376 411.888C309.544 423.186 329.349 449.457 336.903 458.985C348.542 473.618 356.096 483.827 362.562 493.355C365.624 497.847 369.64 503.36 371.546 505.606C373.383 507.852 376.31 512.003 378.011 514.862C390.262 535.552 407.481 546.577 430.485 548.551C440.966 549.368 461.928 545.761 478.399 540.248C494.325 534.871 505.214 526.092 511.816 513.228C514.334 508.396 514.402 508.328 517.601 507.852C522.365 507.171 525.223 504.517 528.967 497.302L532.165 491.109L533.663 476.408C534.548 468.309 535.432 461.98 535.705 462.252C535.909 462.524 540.809 474.23 546.594 488.251C555.714 510.642 557.347 514.113 559.798 516.563C564.97 521.872 562.792 522.008 611.114 513.501C660.866 504.721 657.19 505.946 662.363 496.077C666.651 487.842 666.651 486.549 661.818 471.032C659.709 464.226 657.803 458.236 657.599 457.76C657.463 457.284 658.415 457.624 659.845 458.577C664.609 461.844 670.734 461.776 675.43 458.509C677.812 456.875 679.174 454.765 684.822 443.672C690.199 433.055 691.424 431.013 691.764 432.442C691.969 433.395 692.445 439.316 692.853 445.714C693.67 458.781 692.99 468.513 690.812 476.476C690.063 479.199 689.451 482.602 689.451 483.963C689.451 489.816 694.759 495.873 700.612 496.758C702.722 497.098 710.072 496.009 727.632 492.743C740.903 490.292 770.849 484.916 794.262 480.764C833.668 473.822 837.003 473.141 839.521 471.372C841.699 469.807 844.49 466.267 845.442 463.613C845.579 463.341 849.458 463.885 854.154 464.838C865.52 467.22 878.791 466.948 889 464.158C902.748 460.482 914.863 453.813 924.051 444.829C930.721 438.363 934.668 432.782 939.296 423.322C941.474 418.898 943.448 415.699 943.584 416.176C943.72 416.72 944.264 419.238 944.741 421.825L945.558 426.521L952.772 426.044C960.803 425.568 963.457 425.092 971.828 422.437L977.545 420.668L977.137 410.05C976.865 404.197 976.661 396.166 976.661 392.151V384.8L970.671 384.937C965.907 385.073 963.934 384.8 960.531 383.507C956.583 382.078 955.766 381.261 946.51 370.984C941.066 364.927 935.485 358.393 933.987 356.556C930.176 351.792 923.302 345.462 918.266 342.263C915.952 340.766 914.046 339.337 914.046 338.997C914.046 338.724 917.721 331.102 922.281 322.118C931.81 302.993 932.286 301.224 929.428 295.371C924.8 285.91 909.418 276.042 892.607 271.754C883.964 269.508 878.519 269.236 854.086 269.712C839.657 270.053 823.459 266.377 792.696 255.964C783.44 252.834 775.886 250.52 775.886 250.792C775.886 251.064 776.226 252.085 776.634 252.97C777.247 254.331 776.703 256.713 773.163 267.466C770.849 274.544 768.876 280.398 768.74 280.534C768.672 280.602 764.248 281.418 758.939 282.235L749.275 283.869L749.683 261.681C750.091 237.86 750.5 229.625 751.316 229.625C751.589 229.625 753.767 230.442 756.217 231.395C769.352 236.84 812.91 250.588 832.307 255.488C848.437 259.571 861.028 259.776 870.488 256.236C879.54 252.834 894.377 242.829 904.246 233.505C919.695 218.872 931.469 197.774 935.825 177.084C942.563 144.551 935.553 107.051 919.423 89.7635C912.004 81.8686 912.277 82.0047 861.504 62.9481C813.114 44.8444 804.062 42.0539 791.539 41.3733C785.891 41.1011 784.529 41.2372 780.65 42.6664ZM799.707 50.6294C809.983 52.7392 822.711 57.0269 863.002 72.2042C901.727 86.7688 904.858 88.1301 910.099 91.9414C920.648 99.564 929.155 122.636 930.176 146.253C931.878 185.115 915.203 218.532 883.283 239.902C869.331 249.226 863.07 251.268 850.751 250.52C842.584 249.975 833.464 247.729 806.513 239.562C782.896 232.484 771.394 228.604 758.939 223.704L750.704 220.505V218.055C750.704 216.218 752.269 213.155 757.374 204.784L763.975 193.962L776.158 189.675C782.896 187.361 788.545 185.523 788.681 185.727C789.021 186.067 785.891 199.951 781.739 216.49L778.744 228.196L782.283 229.489C788.953 232.007 809.031 238.473 815.292 240.106L821.554 241.808L822.098 240.311C822.37 239.494 824.548 230.034 826.93 219.212C829.312 208.459 831.422 199.679 831.626 199.679C831.831 199.679 835.165 204.648 838.909 210.773C846.94 223.5 849.05 225.61 854.358 226.086C857.693 226.358 859.258 225.814 874.3 219.757C898.188 210.092 899.958 209.208 902.204 205.805C906.015 200.088 904.314 192.397 898.461 188.722C893.424 185.455 890.974 185.863 875.184 192.261C867.766 195.323 861.232 197.637 860.756 197.433C860.279 197.229 858.238 194.371 856.196 191.104C850.751 182.052 844.966 173.681 843.196 171.979C842.312 171.162 839.249 169.869 836.459 169.121C830.333 167.419 798.618 160.477 794.194 159.865C790.519 159.32 789.702 159.524 768.535 166.126C759.484 168.984 751.997 171.162 751.861 171.026C751.589 170.686 752.61 122.024 753.154 108.48L753.562 97.9306L761.457 90.0357C773.844 77.7851 788.885 68.3248 795.963 68.3248C801.136 68.3929 810.324 70.6388 823.936 75.2669L836.322 79.4185L839.93 77.3087L843.605 75.1988L841.563 74.4502C822.438 66.8956 806.717 62.3356 798.005 61.7231C793.513 61.4508 791.88 61.587 788.749 62.812C780.718 65.8747 766.97 75.1988 758.395 83.502L753.494 88.1981L753.63 81.8686C753.698 77.5809 753.426 74.7224 752.814 73.157C751.725 70.5708 750.976 71.5236 759.96 64.6496C766.63 59.5452 777.519 52.6712 782.011 50.8336C786.707 48.9279 790.995 48.8599 799.707 50.6294ZM736.752 86.1563C736.411 92.7581 735.867 116.17 733.281 238.813C732.736 266.854 732.124 289.926 731.988 290.13C731.783 290.266 726.679 291.287 720.622 292.376C707.69 294.622 706.397 295.098 703.879 298.025C702.858 299.182 696.256 310.616 689.11 323.411C682.032 336.138 676.111 346.483 676.043 346.415C675.907 346.279 677.064 320.212 678.561 288.429C680.807 240.447 682.917 194.643 687.137 100.177L687.613 90.1718L693.806 88.7426C697.209 87.9939 707.963 85.5438 717.695 83.3659C727.428 81.188 735.799 79.3504 736.275 79.2824C736.956 79.2143 737.024 80.7797 736.752 86.1563ZM666.038 97.0458C665.698 99.0876 664.813 114.537 663.928 134.342C663.18 150.881 658.96 283.188 657.054 351.451C656.85 359.891 656.442 367.718 656.169 368.943L655.761 371.121L645.893 363.702L635.956 356.284L604.717 286.455C587.566 248.137 573.409 216.83 573.341 216.898C573.205 217.034 572.32 242.216 571.368 272.911C570.347 303.538 569.462 329.672 569.258 330.829C568.918 332.871 568.713 333.075 566.399 333.075C565.038 333.075 554.897 333.892 543.94 334.845C532.982 335.798 523.93 336.546 523.794 336.41C523.658 336.274 523.998 322.322 524.475 305.511C525.292 277.335 527.469 191.989 528.558 145.028L529.035 125.495L531.485 124.882C540.06 122.636 581.372 113.856 581.645 114.129C581.849 114.333 585.524 124.542 589.744 136.86C593.963 149.111 598.523 162.111 599.816 165.65C604.444 178.036 617.376 210.909 619.213 214.925L621.119 219.008L622.004 195.528C622.48 182.664 623.297 165.513 623.773 157.482C624.318 149.451 625.203 134.546 625.815 124.474C626.428 114.333 627.176 105.485 627.448 104.737C627.925 103.579 630.783 102.763 646.641 99.1557C656.918 96.8417 665.562 94.936 665.834 94.936C666.106 94.8679 666.242 95.8888 666.038 97.0458ZM506.167 160.341C505.554 201.108 504.942 215.605 501.607 274.204C501.199 280.942 500.382 289.79 499.837 293.873C498.068 306.464 493.304 319.191 486.43 329.332C483.163 334.232 474.655 343.148 470.095 346.483L466.897 348.865L461.86 346.755C454.578 343.693 448.316 342.604 438.652 342.604C422.998 342.604 406.868 347.3 394.686 355.331L392.099 357.032L390.058 355.603C385.566 352.404 381.891 346.347 380.053 339.065C378.352 332.395 377.943 273.183 379.372 228.604C380.529 191.444 381.618 165.65 382.231 161.158L382.571 158.367L387.812 157.006C397.885 154.284 434.296 146.457 434.705 146.865C434.977 147.069 434.432 158.367 433.616 171.911C431.914 199.883 429.804 234.594 428.783 251.745C428.375 258.074 427.558 269.984 427.014 278.22C425.585 297.889 425.857 311.977 427.831 315.72C429.532 318.987 433.003 321.505 435.725 321.505C438.244 321.505 442.259 319.804 444.301 317.898C446.479 315.924 448.861 311.16 450.154 306.124C452.74 296.664 456.484 224.997 457.164 172.319L457.573 141.216L461.044 140.468C462.949 140.059 473.839 137.609 485.273 135.023C496.707 132.505 506.167 130.327 506.303 130.327C506.439 130.259 506.371 143.803 506.167 160.341ZM821.485 276.382C829.653 279.513 831.558 280.466 830.605 281.01C829.993 281.35 827.747 282.984 825.705 284.617L821.894 287.544L820.601 284.958C817.946 279.717 814.612 277.335 808.826 276.654L805.355 276.246L806.308 273.932C807.465 271.073 807.669 271.141 821.485 276.382ZM889.885 285.026C899.073 287.408 908.397 292.172 913.57 296.936L917.585 300.747L909.35 317.286L901.047 333.824L899.209 332.395C886.754 322.798 879.2 320.076 871.985 322.458C868.038 323.819 863.682 328.039 863.682 330.557C863.682 332.191 865.588 334.369 868.106 335.662C868.855 336.002 875.116 338.248 882.058 340.562C902.884 347.504 911.868 352.54 920.852 362.205C929.087 370.984 933.103 381.67 933.103 394.737C933.103 402.7 931.742 408.145 927.794 415.699C922.69 425.5 909.486 436.73 897.644 441.29C881.99 447.347 867.834 447.551 850.275 441.902C844.353 439.997 844.013 439.792 843.605 437.683C841.699 428.835 836.595 416.516 831.218 407.736L828.768 403.789L829.925 395.826C830.605 391.47 831.218 387.795 831.286 387.727C831.354 387.659 833.804 389.156 836.799 390.994C852.452 400.862 863.886 404.265 874.912 402.496C881.378 401.475 885.461 399.365 887.027 396.166C888.252 393.716 888.252 393.58 887.027 391.062C885.393 387.795 881.105 385.617 863.682 379.356C831.15 367.65 818.899 357.849 815.632 340.834C813.727 330.829 814.884 322.254 819.308 312.998C826.318 298.501 840.678 288.02 859.599 283.664C865.996 282.167 881.718 282.848 889.885 285.026ZM809.779 293.397C812.91 301.019 812.978 301.292 810.392 304.967C807.533 308.914 804.675 314.495 803.109 319.123C801.748 323.139 802.973 322.798 782.692 324.908C774.661 325.793 767.855 326.678 767.583 326.882C767.31 327.086 769.08 330.217 771.53 333.756C776.771 341.447 778.336 344.714 779.969 351.043C781.126 355.807 781.194 355.875 783.577 356.079C784.938 356.216 789.77 355.807 794.398 355.195C799.026 354.582 804.062 353.902 805.56 353.697L808.418 353.357L809.779 357.032C812.638 364.655 814.68 379.424 813.727 385.685C813.25 388.748 813.25 388.748 810.052 389.156C808.282 389.36 802.701 389.701 797.597 389.973L788.341 390.381L787.932 399.093C787.66 403.857 787.047 410.187 786.503 413.113C785.959 416.108 785.346 419.647 785.074 421.008L784.665 423.594H793.173C800.727 423.594 815.292 422.709 821.281 421.961C823.391 421.689 823.663 421.893 826.522 426.521C828.223 429.243 830.333 433.463 831.286 435.913C832.987 440.473 835.642 452.588 835.029 453.132C834.621 453.54 749.819 468.513 749.547 468.241C749.411 468.105 750.091 464.226 750.976 459.598C759.892 415.223 747.641 353.017 721.166 308.302C719.465 305.443 718.24 303.129 718.444 303.129C718.58 303.129 727.087 301.632 737.296 299.794C759.824 295.711 775.954 293.261 791.607 291.627C809.303 289.722 808.146 289.586 809.779 293.397ZM712.114 313.815C724.297 332.259 735.254 367.513 739.814 402.836C741.652 416.856 742.265 437.751 741.244 448.436C740.427 456.739 738.045 469.807 737.228 470.691C736.82 471.1 707.078 476.612 706.669 476.408C706.601 476.34 707.214 473.892 707.962 470.898L707.963 470.895C710.209 462.184 710.413 441.698 708.507 422.233C707.69 413.794 706.329 399.842 705.512 391.266L704.015 375.612L698.502 386.162C695.508 391.947 688.089 406.579 682.032 418.694L671.006 440.677L665.085 436.049C661.818 433.531 651.814 425.704 642.898 418.694C633.914 411.684 626.496 406.035 626.36 406.103C626.291 406.239 632.008 424.139 639.155 445.986C646.301 467.765 652.018 485.732 651.882 485.869C651.405 486.413 627.993 490.36 626.7 490.156C625.679 490.02 623.501 486.005 617.512 473.278C604.581 445.782 558.096 345.19 558.096 344.646C558.096 344.033 563.609 343.488 581.917 342.468L596.686 341.651L599.34 343.761C630.647 368.262 661.682 392.287 662.023 392.287C662.363 392.219 672.912 373.571 685.639 350.771C698.298 327.903 708.779 309.255 708.847 309.255C708.984 309.255 710.481 311.296 712.114 313.815ZM577.765 415.291C595.529 452.996 610.978 485.732 612.135 488.046C613.224 490.36 614.041 492.402 613.837 492.606C613.292 493.151 573.614 499.889 572.797 499.616C572.32 499.412 565.923 484.439 558.504 466.404C551.086 448.3 544.825 433.259 544.552 432.986C544.212 432.646 527.605 435.232 525.155 436.049C524.747 436.185 523.25 447.347 521.684 461.435C519.03 485.052 518.826 486.277 518.349 481.445C517.397 471.304 515.763 460.55 514.13 452.519C512.36 444.284 504.874 420.532 503.308 418.422C502.56 417.333 502.083 417.333 496.57 418.626L490.717 419.987V418.354C490.717 416.924 497.932 352.676 498.408 350.09C498.544 349.274 501.675 348.865 516.58 347.98C526.517 347.368 537.066 346.823 540.06 346.823L545.505 346.687L577.765 415.291ZM451.243 353.902C456.756 355.331 464.038 359.142 468.122 362.749C472.818 366.901 477.854 374.047 480.508 380.445C482.482 385.277 482.55 385.685 481.938 390.654C481.597 393.444 481.189 395.962 480.985 396.098C480.713 396.439 450.222 402.496 449.065 402.496C448.725 402.496 447.908 401.135 447.228 399.569C445.322 395.145 443.008 393.648 438.312 393.648C428.783 393.648 420.344 401.815 419.459 411.956C419.187 414.61 419.936 420.395 421.841 431.421C423.339 439.997 424.904 449.797 425.38 453.2C427.422 470.079 432.595 481.853 439.945 486.753C445.866 490.633 454.101 490.973 460.771 487.57C464.038 485.937 467.305 482.125 467.918 479.403C468.326 477.429 467.781 469.875 467.237 469.875C467.101 469.875 463.902 470.623 460.159 471.508C456.347 472.393 453.149 472.937 453.013 472.665C452.4 471.644 445.73 444.488 446.002 444.216C446.207 444.08 457.232 441.426 470.504 438.295C491.534 433.395 494.801 432.782 495.141 433.735C503.989 456.399 508.277 483.418 505.35 497.439C503.172 507.784 496.707 516.904 487.791 522.144C475.064 529.699 451.856 534.803 437.427 533.17C413.742 530.447 397.204 516.019 388.016 490.088C385.157 481.989 383.932 476.749 379.509 455.242C374.336 429.652 373.383 422.778 373.928 414.066C375.085 393.104 384.205 375.408 399.246 364.655C413.266 354.65 435.794 350.022 451.243 353.902Z" fill="#1C1C1C"/>
<path d="M506.167 160.341C505.554 201.108 504.942 215.605 501.607 274.204C501.199 280.942 500.382 289.79 499.837 293.873C498.068 306.464 493.304 319.191 486.43 329.332C483.163 334.232 474.655 343.148 470.095 346.483L466.897 348.865L461.86 346.755C454.578 343.693 448.316 342.604 438.652 342.604C422.998 342.604 406.868 347.3 394.686 355.331L392.099 357.032L390.058 355.603C385.566 352.404 381.891 346.347 380.053 339.065C378.352 332.395 377.943 273.183 379.372 228.604C380.529 191.444 381.618 165.65 382.231 161.158L382.571 158.367L387.812 157.006C397.885 154.284 434.296 146.457 434.705 146.865C434.977 147.069 434.432 158.367 433.616 171.911C431.914 199.883 429.804 234.594 428.783 251.745C428.375 258.074 427.558 269.984 427.014 278.22C425.585 297.889 425.857 311.977 427.831 315.72C429.532 318.987 433.003 321.505 435.725 321.505C438.244 321.505 442.259 319.804 444.301 317.898C446.479 315.924 448.861 311.16 450.154 306.124C452.74 296.664 456.484 224.997 457.164 172.319L457.573 141.216L461.044 140.468C462.949 140.059 473.839 137.609 485.273 135.023C496.707 132.505 506.167 130.327 506.303 130.327C506.439 130.259 506.371 143.803 506.167 160.341Z" fill="url(#paint0_linear_3_76)"/>
<path d="M666.038 97.0458C665.698 99.0876 664.813 114.537 663.928 134.342C663.18 150.881 658.96 283.188 657.054 351.451C656.85 359.891 656.442 367.718 656.169 368.943L655.761 371.121L645.893 363.702L635.956 356.284L604.717 286.455C587.566 248.137 573.409 216.83 573.341 216.898C573.205 217.034 572.32 242.216 571.368 272.911C570.347 303.538 569.462 329.672 569.258 330.829C568.918 332.871 568.713 333.075 566.399 333.075C565.038 333.075 554.897 333.892 543.94 334.845C532.982 335.798 523.93 336.546 523.794 336.41C523.658 336.274 523.998 322.322 524.475 305.511C525.292 277.335 527.469 191.989 528.558 145.028L529.035 125.495L531.485 124.882C540.06 122.636 581.372 113.856 581.645 114.129C581.849 114.333 585.524 124.542 589.744 136.86C593.963 149.111 598.523 162.111 599.816 165.65C604.444 178.036 617.376 210.909 619.213 214.925L621.119 219.008L622.004 195.528C622.48 182.664 623.297 165.513 623.773 157.482C624.318 149.451 625.203 134.546 625.815 124.474C626.428 114.333 627.176 105.485 627.448 104.737C627.925 103.579 630.783 102.763 646.641 99.1557C656.918 96.8417 665.562 94.936 665.834 94.936C666.106 94.8679 666.242 95.8888 666.038 97.0458Z" fill="url(#paint1_linear_3_76)"/>
<path d="M736.752 86.1563C736.411 92.7581 735.867 116.17 733.281 238.813C732.736 266.854 732.124 289.926 731.988 290.13C731.783 290.266 726.679 291.287 720.622 292.376C707.69 294.622 706.397 295.098 703.879 298.025C702.858 299.182 696.256 310.616 689.11 323.411C682.032 336.138 676.111 346.483 676.043 346.415C675.907 346.279 677.064 320.212 678.561 288.429C680.807 240.447 682.917 194.643 687.137 100.177L687.613 90.1718L693.806 88.7426C697.209 87.9939 707.963 85.5438 717.695 83.3659C727.428 81.188 735.799 79.3504 736.275 79.2824C736.956 79.2143 737.024 80.7797 736.752 86.1563Z" fill="url(#paint2_linear_3_76)"/>
<path d="M451.243 353.902C456.756 355.331 464.038 359.142 468.122 362.749C472.818 366.901 477.854 374.047 480.508 380.445C482.482 385.277 482.55 385.685 481.938 390.654C481.597 393.444 481.189 395.962 480.985 396.098C480.713 396.439 450.222 402.496 449.065 402.496C448.725 402.496 447.908 401.135 447.228 399.569C445.322 395.145 443.008 393.648 438.312 393.648C428.783 393.648 420.344 401.815 419.459 411.956C419.187 414.61 419.936 420.395 421.841 431.421C423.339 439.997 424.904 449.797 425.38 453.2C427.422 470.079 432.595 481.853 439.945 486.753C445.866 490.633 454.101 490.973 460.771 487.57C464.038 485.937 467.305 482.125 467.918 479.403C468.326 477.429 467.781 469.875 467.237 469.875C467.101 469.875 463.902 470.623 460.159 471.508C456.347 472.393 453.149 472.937 453.013 472.665C452.4 471.644 445.73 444.488 446.002 444.216C446.207 444.08 457.232 441.426 470.504 438.295C491.534 433.395 494.801 432.782 495.141 433.735C503.989 456.399 508.277 483.418 505.35 497.439C503.172 507.784 496.707 516.904 487.791 522.144C475.064 529.699 451.856 534.803 437.427 533.17C413.742 530.447 397.204 516.019 388.016 490.088C385.157 481.989 383.932 476.749 379.509 455.242C374.336 429.652 373.383 422.778 373.928 414.066C375.085 393.104 384.205 375.408 399.246 364.655C413.266 354.65 435.794 350.022 451.243 353.902Z" fill="url(#paint3_linear_3_76)"/>
<path d="M577.765 415.291C595.529 452.996 610.978 485.732 612.135 488.046C613.224 490.36 614.041 492.402 613.837 492.606C613.292 493.151 573.614 499.889 572.797 499.616C572.32 499.412 565.923 484.439 558.504 466.404C551.086 448.3 544.825 433.259 544.552 432.986C544.212 432.646 527.605 435.232 525.155 436.049C524.747 436.185 523.25 447.347 521.684 461.435C519.03 485.052 518.826 486.277 518.349 481.445C517.397 471.304 515.763 460.55 514.13 452.519C512.36 444.284 504.874 420.532 503.308 418.422C502.56 417.333 502.083 417.333 496.57 418.626L490.717 419.987V418.354C490.717 416.924 497.932 352.676 498.408 350.09C498.544 349.274 501.675 348.865 516.58 347.98C526.517 347.368 537.066 346.823 540.06 346.823L545.505 346.687L577.765 415.291Z" fill="url(#paint4_linear_3_76)"/>
<path d="M712.114 313.815C724.297 332.259 735.254 367.513 739.814 402.836C741.652 416.856 742.265 437.751 741.244 448.436C740.427 456.739 738.045 469.807 737.228 470.691C736.82 471.1 707.078 476.612 706.669 476.408C706.601 476.34 707.214 473.892 707.962 470.898L707.963 470.895C710.209 462.184 710.413 441.698 708.507 422.233C707.69 413.794 706.329 399.842 705.512 391.266L704.015 375.612L698.502 386.162C695.508 391.947 688.089 406.579 682.032 418.694L671.006 440.677L665.085 436.049C661.818 433.531 651.814 425.704 642.898 418.694C633.914 411.684 626.496 406.035 626.36 406.103C626.291 406.239 632.008 424.139 639.155 445.986C646.301 467.765 652.018 485.732 651.882 485.869C651.405 486.413 627.993 490.36 626.7 490.156C625.679 490.02 623.501 486.005 617.512 473.278C604.581 445.782 558.096 345.19 558.096 344.646C558.096 344.033 563.609 343.488 581.917 342.468L596.686 341.651L599.34 343.761C630.647 368.262 661.682 392.287 662.023 392.287C662.363 392.219 672.912 373.571 685.639 350.771C698.298 327.903 708.779 309.255 708.847 309.255C708.984 309.255 710.481 311.296 712.114 313.815Z" fill="url(#paint5_linear_3_76)"/>
<path d="M809.779 293.397C812.91 301.019 812.978 301.292 810.392 304.967C807.533 308.914 804.675 314.495 803.109 319.123C801.748 323.139 802.973 322.798 782.692 324.908C774.661 325.793 767.855 326.678 767.583 326.882C767.31 327.086 769.08 330.217 771.53 333.756C776.771 341.447 778.336 344.714 779.969 351.043C781.126 355.807 781.194 355.875 783.577 356.079C784.938 356.216 789.77 355.807 794.398 355.195C799.026 354.582 804.062 353.902 805.56 353.697L808.418 353.357L809.779 357.032C812.638 364.655 814.68 379.424 813.727 385.685C813.25 388.748 813.25 388.748 810.052 389.156C808.282 389.36 802.701 389.701 797.597 389.973L788.341 390.381L787.932 399.093C787.66 403.857 787.047 410.187 786.503 413.113C785.959 416.108 785.346 419.647 785.074 421.008L784.665 423.594H793.173C800.727 423.594 815.292 422.709 821.281 421.961C823.391 421.689 823.663 421.893 826.522 426.521C828.223 429.243 830.333 433.463 831.286 435.913C832.987 440.473 835.642 452.588 835.029 453.132C834.621 453.54 749.819 468.513 749.547 468.241C749.411 468.105 750.091 464.226 750.976 459.598C759.892 415.223 747.641 353.017 721.166 308.302C719.465 305.443 718.24 303.129 718.444 303.129C718.58 303.129 727.087 301.632 737.296 299.794C759.824 295.711 775.954 293.261 791.607 291.627C809.303 289.722 808.146 289.586 809.779 293.397Z" fill="url(#paint6_linear_3_76)"/>
<path d="M889.885 285.026C899.073 287.408 908.397 292.172 913.57 296.936L917.585 300.747L909.35 317.286L901.047 333.824L899.209 332.395C886.754 322.798 879.2 320.076 871.985 322.458C868.038 323.819 863.682 328.039 863.682 330.557C863.682 332.191 865.588 334.369 868.106 335.662C868.855 336.002 875.116 338.248 882.058 340.562C902.884 347.504 911.868 352.54 920.852 362.205C929.087 370.984 933.103 381.67 933.103 394.737C933.103 402.7 931.742 408.145 927.794 415.699C922.69 425.5 909.486 436.73 897.644 441.29C881.99 447.347 867.834 447.551 850.275 441.902C844.353 439.997 844.013 439.792 843.605 437.683C841.699 428.835 836.595 416.516 831.218 407.736L828.768 403.789L829.925 395.826C830.605 391.47 831.218 387.795 831.286 387.727C831.354 387.659 833.804 389.156 836.799 390.994C852.452 400.862 863.886 404.265 874.912 402.496C881.378 401.475 885.461 399.365 887.027 396.166C888.252 393.716 888.252 393.58 887.027 391.062C885.393 387.795 881.105 385.617 863.682 379.356C831.15 367.65 818.899 357.849 815.632 340.834C813.727 330.829 814.884 322.254 819.308 312.998C826.318 298.501 840.678 288.02 859.599 283.664C865.996 282.167 881.718 282.848 889.885 285.026Z" fill="url(#paint7_linear_3_76)"/>
<path d="M816.381 101.266C808.418 103.24 800.659 109.433 797.12 116.648C795.555 119.846 795.283 121.412 795.078 127.537C794.874 133.526 795.078 135.296 796.235 138.427C800.183 148.704 809.371 155.578 820.601 156.598C831.49 157.619 843.537 150.473 848.029 140.332C849.934 136.045 850.887 128.626 850.07 123.998C848.301 112.836 838.568 103.172 826.998 100.994C822.506 100.177 820.737 100.177 816.381 101.266Z" fill="#1C1C1C"/>
<path d="M911.46 130.531L908.533 131.96L909.078 136.044C910.166 143.871 909.69 164.084 908.329 170.21L907.036 175.723L909.35 179.738L911.596 183.686L912.821 179.67C915.883 169.597 916.428 165.105 916.36 150.337C916.292 140.536 915.952 134.955 915.339 132.573L914.386 129.034L911.46 130.531Z" fill="#1C1C1C"/>
<path d="M527.469 388.612C527.469 389.021 526.857 396.643 526.108 405.559C525.291 414.475 524.815 421.825 524.951 422.029C525.359 422.37 538.767 420.124 539.72 419.511C540.264 419.171 538.631 414.543 534.615 404.47C528.558 389.633 527.537 387.319 527.469 388.612Z" fill="#1C1C1C"/>
<path d="M300.628 114.947C291.576 117.261 279.121 123.59 274.697 128.15L272.315 130.6L274.289 138.767C275.378 143.259 276.331 147.139 276.331 147.343C276.331 147.547 272.519 148.908 267.823 150.405C263.127 151.835 259.18 153.468 258.975 153.876C258.499 155.238 259.316 156.803 260.609 156.803C261.63 156.803 321.454 137.951 337.924 132.438C343.301 130.6 345.479 129.579 345.615 128.694C345.955 127.061 343.981 126.517 340.715 127.401C339.149 127.878 335.406 128.899 332.343 129.783L326.762 131.417L323.836 124.271C320.025 115.015 319.276 114.402 310.837 114.13C307.025 114.062 303.078 114.334 300.628 114.947Z" fill="#1C1C1C"/>
<path d="M328.532 138.154C328.26 138.426 281.231 153.399 280.618 153.399C280.482 153.399 280.414 154.556 280.414 155.985C280.414 159.32 282.116 164.969 284.566 169.869C288.377 177.356 298.654 183.345 307.91 183.345H312.266L312.742 177.356C313.014 174.089 313.423 170.074 313.695 168.508L314.103 165.514L325.197 161.022L336.291 156.462L335.882 153.059C335.338 148.839 333.977 144.075 332.547 141.284C331.459 139.175 329.281 137.473 328.532 138.154Z" fill="#1C1C1C"/>
<path d="M256.049 194.099C247.95 197.025 242.437 205.193 243.186 213.36C243.594 218.26 245.568 222.003 249.447 225.406C253.054 228.605 257.478 230.306 262.174 230.306C266.122 230.306 268.572 232.212 267.823 234.594C266.802 237.793 266.666 239.222 267.074 240.856C267.687 243.238 268.504 242.965 270.818 239.631C271.907 237.997 274.357 235.615 276.262 234.322C278.168 233.029 279.734 231.804 279.734 231.463C279.734 231.191 278.713 230.987 277.488 230.987C272.86 230.987 272.519 228.605 276.331 222.343C279.393 217.239 280.074 214.517 279.461 210.161C277.828 197.842 266.802 190.356 256.049 194.099ZM265.645 201.109C266.462 201.517 268.163 202.81 269.389 203.967C277.283 211.522 269.389 225.678 258.839 222.888C251.149 220.778 247.541 212.815 251.353 206.145C254.007 201.381 261.221 198.863 265.645 201.109Z" fill="#1C1C1C"/>
<path d="M254.688 204.58C252.85 206.554 251.829 209.344 251.829 212.271C251.829 214.04 252.238 214.925 253.599 215.81C255.3 216.899 255.436 216.899 256.661 215.265C258.703 212.611 260.269 206.622 259.384 204.716C258.499 202.674 256.593 202.606 254.688 204.58Z" fill="#1C1C1C"/>
<path d="M281.911 262.157C280.414 262.634 280.482 262.77 284.293 268.623C287.901 274.136 288.377 274.612 290.215 274.408C293.141 274.136 293.754 272.638 292.733 268.215C291.644 263.246 290.01 261.613 286.335 261.681C284.77 261.749 282.796 261.953 281.911 262.157Z" fill="#1C1C1C"/>
<path d="M967.949 270.529C960.326 271.822 953.724 277.063 950.321 284.549C948.892 287.544 948.552 289.381 948.62 293.193C948.688 303.061 953.588 310.548 962.776 314.836C966.86 316.741 967.676 316.877 972.781 316.605C980.063 316.197 984.555 314.223 988.571 309.799C993.403 304.423 995.309 299.863 995.309 293.533C995.309 288.769 995.036 287.68 992.79 283.12C990.817 279.241 989.455 277.471 987.005 275.702C980.131 270.665 975.027 269.304 967.949 270.529Z" fill="#1C1C1C"/>
<path d="M1025.46 277.744C1025.12 281.011 1012.66 327.972 1007.9 344.238C1006.74 348.049 1006.67 349.002 1007.42 349.479C1008.58 350.159 1007.7 352.814 1017.5 317.967C1022.12 301.565 1026 288.293 1026.14 288.429C1026.34 288.566 1026.75 290.948 1027.09 293.738C1028.05 300.748 1029.27 304.219 1034.92 315.041C1037.64 320.281 1041.32 328.244 1043.15 332.736L1046.42 340.903L1046.63 356.285L1046.9 371.666L1049.62 372.483C1051.12 372.959 1052.75 373.504 1053.23 373.64C1053.91 373.912 1054.18 372.006 1054.38 365.609C1054.72 358.394 1055.06 356.148 1057.17 349.547L1059.69 341.856L1053.91 333.621C1050.5 328.653 1047.17 324.569 1045.6 323.548C1043.49 322.119 1042.07 319.941 1037.71 311.297C1032.74 301.361 1032.4 300.34 1031.52 293.602C1030.97 289.655 1030.29 283.597 1030.09 280.126L1029.61 273.865H1027.7C1025.94 273.865 1025.87 274.069 1025.46 277.744Z" fill="#1C1C1C"/>
<path d="M280.823 310.684C276.671 311.705 270.409 315.312 267.823 318.17C263.399 323.07 261.834 327.222 261.494 334.436C261.29 339.881 261.494 341.515 262.719 344.781C264.624 349.886 269.593 355.331 275.106 358.325C279.189 360.503 279.734 360.639 286.199 360.639C292.257 360.639 293.414 360.435 296.748 358.802C301.785 356.351 306.549 351.451 309.203 346.006C311.177 342.059 311.381 340.97 311.381 335.457C311.381 330.081 311.177 328.855 309.407 325.248C306.889 320.144 301.24 314.427 296.544 312.317C292.461 310.411 284.906 309.595 280.823 310.684Z" fill="#1C1C1C"/>
<path d="M938.003 326.065C936.71 326.677 934.94 328.175 933.987 329.332C932.286 331.441 929.019 339.064 929.019 340.902C929.019 341.65 937.799 351.995 952.772 368.67C960.871 377.722 962.572 378.675 970.059 378.675C975.571 378.675 1001.57 375.68 1006.06 374.591C1011.1 373.298 1013.48 370.371 1013.55 365.539C1013.68 360.162 1009.33 355.534 1004.16 355.534C1002.73 355.534 996.942 356.147 991.293 356.828C985.712 357.576 978.906 358.325 976.252 358.597L971.42 359.073L964.954 348.933C961.347 343.42 956.991 336.478 955.29 333.551C952.908 329.74 951.274 327.834 949.164 326.609C945.762 324.567 941.338 324.363 938.003 326.065Z" fill="#1C1C1C"/>
<path d="M958.489 327.087C959.373 328.312 962.504 333.212 965.431 337.977L970.807 346.688L978.022 349.07C985.1 351.452 985.372 351.452 990.681 350.704C993.607 350.295 996.125 349.887 996.262 349.819C996.67 349.342 958.353 324.909 957.127 324.909C956.991 324.909 957.604 325.93 958.489 327.087Z" fill="#1C1C1C"/>
<path d="M179.959 366.22C179.21 368.057 178.597 369.691 178.461 369.963C178.325 370.235 180.095 371.392 182.341 372.549L186.492 374.591L185.539 376.565C184.723 378.062 184.178 378.402 182.817 378.198C181.388 377.926 180.911 378.334 179.346 381.329C178.393 383.303 177.781 385.14 177.985 385.549C178.257 385.889 183.702 388.816 190.099 392.014L201.738 397.867L204.664 396.438C206.297 395.621 207.931 395.009 208.271 395.009C208.611 395.009 216.234 398.548 225.218 402.836C234.202 407.124 241.824 410.663 242.165 410.663C242.505 410.663 243.118 409.914 243.526 409.029C244.07 407.872 245.364 406.987 247.95 406.171C251.557 405.082 251.761 404.878 253.871 400.454C255.164 397.799 255.845 395.485 255.572 395.009C255.3 394.533 250.332 391.878 244.615 389.088C236.924 385.345 233.793 384.188 232.568 384.46C231.343 384.8 228.008 383.507 219.569 379.423C213.376 376.429 208.067 373.502 207.863 372.89C207.318 371.529 192.822 364.178 191.529 364.655C190.984 364.859 190.576 365.471 190.576 366.084C190.576 367.445 190.508 367.445 185.812 365.063C183.566 363.906 181.66 363.021 181.524 363.021C181.32 363.021 180.639 364.45 179.959 366.22Z" fill="#1C1C1C"/>
<path d="M1017.84 373.231C1017.29 374.32 1016.82 375.341 1016.82 375.477C1016.82 375.613 1027.5 379.22 1040.64 383.508L1064.39 391.267L1064.59 393.308C1064.8 395.282 1065.07 395.418 1074.19 398.549C1079.36 400.318 1083.99 401.612 1084.53 401.339C1085.69 400.931 1088.48 392.356 1088.14 390.45C1088.01 389.565 1085.56 388.408 1078.75 386.026C1073.71 384.256 1069.29 382.827 1069.02 382.827C1068.74 382.759 1068 383.644 1067.38 384.665L1066.29 386.57L1042.75 378.88C1029.81 374.66 1019.2 371.189 1019.06 371.189C1018.99 371.189 1018.45 372.074 1017.84 373.231Z" fill="#1C1C1C"/>
<path d="M988.639 413.182C977.273 453.881 975.571 459.53 973.598 462.525L971.896 465.043L973.461 466.132C975.231 467.425 975.095 467.561 982.445 457.284C988.775 448.436 993.063 444.693 1003.68 438.432C1010.89 434.212 1013.07 433.191 1015.18 433.259C1018.52 433.395 1034.85 426.181 1036.21 424.003C1036.69 423.186 1037.64 420.124 1038.25 417.129C1039.75 410.323 1041.04 406.988 1044.99 400.114L1048.12 394.67L1044.52 393.444C1041.72 392.492 1040.84 392.424 1040.43 393.104C1040.16 393.581 1038.32 396.711 1036.48 400.114C1030.36 410.868 1026 417.061 1022.19 420.328C1016.61 425.092 1008.44 430.741 1000.14 435.641C990.953 441.086 987.822 443.604 983.738 448.777C981.969 451.023 980.404 452.792 980.267 452.656C980.063 452.452 986.869 427.406 995.649 395.895C997.554 389.089 999.12 383.168 999.12 382.759C999.12 382.419 998.711 382.079 998.235 382.079C997.623 382.079 994.492 392.287 988.639 413.182Z" fill="#1C1C1C"/>
<path d="M269.933 407.737L262.719 422.166L259.588 420.805C257.818 420.124 249.787 416.449 241.688 412.706C225.354 405.151 223.585 404.811 218.889 407.533C212.491 411.276 210.994 420.056 215.894 425.365C216.575 426.181 227.396 431.762 239.919 437.888C264.488 449.866 266.734 450.615 271.566 448.437C274.765 447.007 277.488 443.196 293.55 417.674L295.387 414.815L287.696 405.832C283.545 400.863 279.393 396.031 278.645 395.078L277.215 393.377L269.933 407.737Z" fill="#1C1C1C"/>
<path d="M995.513 409.097C993.403 416.924 991.633 423.594 991.633 424.002C991.633 424.411 993.063 425.363 994.764 426.112L997.895 427.473L993.743 430.672C989.66 433.871 989.115 434.688 990.136 436.389C991.225 438.022 1013.82 423.526 1021.1 416.516C1022.87 414.814 1024.3 413.181 1024.3 412.909C1024.23 412.5 1001.43 396.03 999.8 395.145C999.596 395.077 997.691 401.339 995.513 409.097Z" fill="#1C1C1C"/>
<path d="M1037.51 427.951C1034.17 430.333 1018.38 436.798 1015.79 436.866C1013.68 437.003 1011.03 438.16 1004.91 441.835C1000.41 444.557 995.989 447.28 995.105 447.96L993.539 449.253L995.445 455.991C996.466 459.666 997.419 462.865 997.487 463.001C997.623 463.137 1001.91 460.619 1007.08 457.42C1012.26 454.29 1020.69 449.185 1025.8 446.123C1030.9 443.128 1035.74 439.793 1036.48 438.84C1038.39 436.458 1039.41 432.715 1039.14 429.516C1038.93 427.066 1038.87 426.998 1037.51 427.951Z" fill="#1C1C1C"/>
<path d="M215.213 430.535C214.805 431.692 214.465 432.781 214.601 432.849C214.669 432.917 219.093 435.095 224.333 437.749L233.93 442.581L235.223 440.267C235.903 438.974 236.312 437.817 236.107 437.613C235.699 437.137 217.051 428.357 216.506 428.357C216.234 428.357 215.69 429.31 215.213 430.535Z" fill="#1C1C1C"/>
<path d="M973.598 430.537C967.609 432.443 961.007 433.736 954.473 434.213C951.343 434.485 948.756 434.893 948.756 435.097C948.756 435.301 951.615 442.72 955.086 451.568L961.483 467.63L958.217 499.89C956.379 517.653 954.95 533.511 954.882 535.213C954.882 539.296 956.855 542.427 960.531 544.06C965.635 546.374 969.514 545.626 973.462 541.542C975.64 539.228 976.388 536.097 984.76 494.853L990.273 467.766L988.707 462.253L987.142 456.74L982.378 463.342C976.593 471.373 974.619 472.19 970.263 468.174C968.017 466.064 968.017 464.703 970.467 460.96C972.713 457.557 980.336 431.967 979.655 430.129C979.179 428.836 978.77 428.836 973.598 430.537Z" fill="#1C1C1C"/>
<path d="M310.292 439.18C309.68 439.384 300.151 446.599 289.058 455.106C271.498 468.65 268.708 471.032 267.347 473.822C265.849 476.885 265.781 477.77 265.849 490.633C265.849 502.271 267.687 530.039 270.001 552.771C270.682 559.645 274.561 563.933 280.89 564.886C286.744 565.77 291.508 563.116 293.89 557.671C294.911 555.357 295.727 532.285 296.068 497.439L296.136 487.911L310.837 478.042C330.029 465.179 330.778 464.634 330.778 463.205C330.778 462.048 313.695 439.997 312.13 439.18C311.721 438.908 310.905 438.908 310.292 439.18Z" fill="#1C1C1C"/>
<path d="M938.411 472.257C931.809 477.293 925.82 482.194 925.003 483.214C923.302 485.392 923.098 490.088 924.527 492.879C926.501 496.69 929.427 498.664 933.443 499.004C936.982 499.276 937.526 499.072 943.856 495.465C951.615 491.041 950.662 493.015 952.227 477.498C952.908 470.692 952.84 468.65 952.159 466.404C951.615 464.907 951.07 463.545 950.798 463.409C950.594 463.273 945.013 467.221 938.411 472.257Z" fill="#1C1C1C"/>
<path d="M1043.36 73.6105C1016.56 113.925 1006.78 129.28 1006.78 130.932C1006.78 132.645 1009.04 136.132 1010.14 136.132C1012.53 136.132 1022.13 124.631 1055.23 82.0527L1077.07 53.9732L1073.27 49.7521C1071.19 47.4275 1068.5 44.4299 1067.34 43.084L1065.2 40.6982L1043.36 73.6105Z" fill="#1C1C1C"/>
<path d="M991.053 153.077C988.3 156.075 978.084 171.919 977.656 173.816C977.166 176.263 978.635 177.608 980.715 176.63C983.406 175.406 996.375 158.338 996.375 156.014C996.375 154.545 994.234 151.425 993.255 151.425C992.888 151.425 991.91 152.159 991.053 153.077Z" fill="#1C1C1C"/>
<path d="M1135.24 182.442C1128.33 184.705 1126.07 185.868 1125.7 187.152C1125.58 187.825 1125.46 191.435 1125.58 195.166L1125.76 201.896L1127.6 201.773C1128.64 201.712 1132.25 200.917 1135.73 199.999L1141.97 198.347V189.844V181.402L1140.01 181.463C1138.91 181.463 1136.77 181.891 1135.24 182.442Z" fill="#1C1C1C"/>
<path d="M1100.37 192.781C1039.38 209.971 990.38 225.265 988.422 227.59C987.444 228.813 988.361 230.343 990.135 230.343C991.848 230.343 1001.09 228.508 1036.45 221.105C1066.6 214.743 1116.95 204.037 1118.11 203.732C1118.91 203.487 1118.97 202.508 1118.6 196.941C1118.18 190.395 1117.75 188.132 1117.01 188.193C1116.77 188.193 1109.3 190.273 1100.37 192.781Z" fill="#1C1C1C"/>
<path d="M160.356 147.327C157.909 149.468 155.218 151.915 154.422 152.772C152.954 154.362 152.954 154.423 153.994 156.993C155.218 160.296 160.723 169.901 161.457 170.145C161.763 170.268 164.455 167.882 167.391 164.945L172.775 159.501L168.798 151.487L164.883 143.473L160.356 147.327Z" fill="#1C1C1C"/>
<path d="M177.118 182.747L172.102 187.764L195.104 225.387C214.252 256.77 232.176 285.828 234.011 288.642C234.317 289.07 234.929 288.825 235.847 287.969L237.193 286.562L236.03 283.075C234.073 277.202 183.542 177.792 182.502 177.67C182.318 177.67 179.932 179.933 177.118 182.747Z" fill="#1C1C1C"/>
<path d="M82.4801 264.783C81.5625 266.986 79.1154 276.407 79.1154 277.814C79.1154 278.242 81.8072 280.138 85.1106 282.096C100.527 291.15 140.046 312.072 140.658 311.46C141.025 311.154 143.411 299.898 143.227 299.653C142.86 299.347 89.2706 266.007 86.273 264.294L83.3977 262.581L82.4801 264.783Z" fill="#1C1C1C"/>
<path d="M154.667 309.993C153.382 312.012 152.77 316.906 153.749 318.068C155.768 320.454 216.821 352.449 217.983 351.715C218.35 351.47 218.595 350.675 218.595 349.879C218.595 348.044 213.395 343.884 201.16 335.809C187.09 326.572 157.359 308.586 156.074 308.586C155.829 308.586 155.218 309.198 154.667 309.993Z" fill="#1C1C1C"/>
<defs>
<linearGradient id="paint0_linear_3_76" x1="487.224" y1="149.12" x2="478.418" y2="322.942" gradientUnits="userSpaceOnUse">
<stop stop-color="#A9E4FF"/>
<stop offset="1" stop-color="#30A3FF"/>
</linearGradient>
<linearGradient id="paint1_linear_3_76" x1="645.846" y1="125.899" x2="642.649" y2="329.393" gradientUnits="userSpaceOnUse">
<stop stop-color="#A9E4FF"/>
<stop offset="1" stop-color="#30A3FF"/>
</linearGradient>
<linearGradient id="paint2_linear_3_76" x1="708.33" y1="110.643" x2="701.936" y2="274.873" gradientUnits="userSpaceOnUse">
<stop stop-color="#A9E4FF"/>
<stop offset="1" stop-color="#30A3FF"/>
</linearGradient>
<linearGradient id="paint3_linear_3_76" x1="625.205" y1="490.426" x2="584.148" y2="343.022" gradientUnits="userSpaceOnUse">
<stop stop-color="#00C920"/>
<stop offset="1" stop-color="#87FF9E"/>
</linearGradient>
<linearGradient id="paint4_linear_3_76" x1="625.205" y1="491.997" x2="583.362" y2="344.593" gradientUnits="userSpaceOnUse">
<stop stop-color="#00C920"/>
<stop offset="1" stop-color="#87FF9E"/>
</linearGradient>
<linearGradient id="paint5_linear_3_76" x1="625.205" y1="491.997" x2="583.362" y2="341.396" gradientUnits="userSpaceOnUse">
<stop stop-color="#00C920"/>
<stop offset="1" stop-color="#87FF9E"/>
</linearGradient>
<linearGradient id="paint6_linear_3_76" x1="625.205" y1="489.585" x2="584.148" y2="342.181" gradientUnits="userSpaceOnUse">
<stop stop-color="#00C920"/>
<stop offset="1" stop-color="#87FF9E"/>
</linearGradient>
<linearGradient id="paint7_linear_3_76" x1="625.205" y1="489.585" x2="587.345" y2="343.022" gradientUnits="userSpaceOnUse">
<stop stop-color="#00C920"/>
<stop offset="1" stop-color="#87FF9E"/>
</linearGradient>
</defs>
</svg>
