<svg width="246" height="66" viewBox="0 0 246 66" fill="none" xmlns="http://www.w3.org/2000/svg">
<g clip-path="url(#clip0_1994_2160)">
<path d="M64.4927 62.0968C60.5854 62.0656 57.4079 58.8611 57.4079 54.9527V54.8849C57.4079 54.8849 57.4079 54.8849 57.4079 54.8823V47.8138H60.7261C61.6332 47.8138 62.3683 47.0785 62.3683 46.1711C62.3683 45.2638 61.6332 44.5285 60.7261 44.5285H57.4079V39.1182C57.4079 38.2109 56.6728 37.4756 55.7657 37.4756C54.8586 37.4756 54.1235 38.2109 54.1235 39.1182V54.9527C54.1235 60.6576 58.7633 65.3378 64.4666 65.3795C64.4718 65.3795 64.4744 65.3795 64.4796 65.3795C65.3815 65.3795 66.114 64.6521 66.1218 63.7499C66.1296 62.8426 65.3998 62.1021 64.4927 62.0942V62.0968Z" fill="white"/>
<path d="M47.9095 44.5314C47.8938 44.5314 47.8756 44.5314 47.8599 44.5314C45.2116 44.6122 42.8239 45.663 41.0358 47.3421V46.1714C41.0358 45.2641 40.3007 44.5288 39.3936 44.5288C38.4865 44.5288 37.7515 45.2641 37.7515 46.1714V63.7424C37.7515 64.6498 38.4865 65.385 39.3936 65.385C40.3007 65.385 41.0358 64.6498 41.0358 63.7424V54.8904C41.0723 51.0394 44.1116 47.934 47.9564 47.8193C48.8635 47.7932 49.5751 47.0345 49.549 46.1271C49.523 45.238 48.7931 44.534 47.9095 44.534V44.5314Z" fill="white"/>
<path d="M20.8346 44.1479C19.719 43.59 18.3635 44.041 17.8057 45.157L11.0415 58.6892L4.27733 45.157C3.71951 44.041 2.36407 43.59 1.24844 44.1479C0.132801 44.7059 -0.318145 46.0617 0.239672 47.1777L9.02399 64.7487C9.40716 65.5126 10.1891 65.9976 11.0441 65.9976C11.8991 65.9976 12.6811 65.5152 13.0643 64.7487L21.8486 47.1777C22.4064 46.0617 21.9554 44.7059 20.8398 44.1479H20.8346Z" fill="white"/>
<path d="M28.4537 44.5259C27.5466 44.5259 26.8115 45.2612 26.8115 46.1685V63.7395C26.8115 64.6468 27.5466 65.3821 28.4537 65.3821C29.3608 65.3821 30.0959 64.6468 30.0959 63.7395V46.1685C30.0959 45.2612 29.3608 44.5259 28.4537 44.5259Z" fill="white"/>
<path d="M156.731 43.9159C154.408 43.9863 152.276 44.7633 150.535 46.0382C150.467 44.8519 149.487 43.9106 148.283 43.9106C147.078 43.9106 146.025 44.9223 146.025 46.1686V63.7396C146.025 64.9859 147.037 65.9976 148.283 65.9976C149.529 65.9976 150.54 64.9859 150.54 63.7396V54.8954C150.54 54.8954 150.54 54.8928 150.54 54.8902C150.574 51.3729 153.35 48.5335 156.864 48.4292C158.11 48.3927 159.09 47.3497 159.053 46.1034C159.017 44.8571 157.977 43.882 156.728 43.9133L156.731 43.9159Z" fill="white"/>
<path d="M85.8722 44.5259C84.9651 44.5259 84.2301 45.2612 84.2301 46.1685V55.0309C84.1831 59.7737 81.149 61.9926 78.1566 62.0942H78.1332C75.1382 61.9926 72.1067 59.7737 72.0597 55.0309V46.1685C72.0597 45.2612 71.3247 44.5259 70.4176 44.5259C69.5105 44.5259 68.7754 45.2612 68.7754 46.1685V55.0387C68.7754 55.0387 68.7754 55.0492 68.7754 55.0544C68.8015 57.7817 69.6851 60.3082 71.2647 62.1699C72.9538 64.1593 75.3649 65.2987 78.0576 65.3795C78.0732 65.3795 78.0915 65.3795 78.1071 65.3795H78.1827C78.1983 65.3795 78.2166 65.3795 78.2322 65.3795C80.9249 65.2987 83.336 64.1593 85.0251 62.1699C86.6047 60.3082 87.4909 57.7817 87.5144 55.0544C87.5144 55.0492 87.5144 55.044 87.5144 55.0387V46.1685C87.5144 45.2612 86.7793 44.5259 85.8722 44.5259Z" fill="white"/>
<path d="M246 54.8666C246 54.8666 246 54.8562 246 54.851C245.974 52.1237 245.09 49.5972 243.511 47.7355C241.822 45.7461 239.41 44.6067 236.718 44.5259C236.702 44.5259 236.684 44.5259 236.668 44.5259H236.593C236.577 44.5259 236.559 44.5259 236.543 44.5259C233.851 44.6067 231.437 45.7461 229.75 47.7355C229.44 48.1006 229.159 48.4943 228.903 48.9062C228.648 48.4917 228.366 48.1006 228.056 47.7355C226.367 45.7461 223.956 44.6067 221.263 44.5259C221.247 44.5259 221.229 44.5259 221.214 44.5259H221.138C221.122 44.5259 221.104 44.5259 221.088 44.5259C218.792 44.5937 216.702 45.4358 215.088 46.9142V46.1685C215.088 45.2612 214.353 44.5259 213.446 44.5259C212.539 44.5259 211.804 45.2612 211.804 46.1685V63.7395C211.804 64.6468 212.539 65.3821 213.446 65.3821C214.353 65.3821 215.088 64.6468 215.088 63.7395V54.8745C215.135 50.1317 218.169 47.9128 221.164 47.8111H221.188C224.183 47.9128 227.214 50.1317 227.261 54.8745V63.7369C227.261 64.6442 227.996 65.3795 228.903 65.3795C229.81 65.3795 230.545 64.6442 230.545 63.7369V54.8745C230.592 50.1317 233.626 47.9128 236.621 47.8111H236.645C239.64 47.9128 242.671 50.1317 242.718 54.8745V63.7369C242.718 64.6442 243.453 65.3795 244.36 65.3795C245.268 65.3795 246.003 64.6442 246.003 63.7369V54.8666H246Z" fill="white"/>
<path d="M127.672 62.097C123.765 62.0657 120.588 58.8613 120.588 54.9529V54.8851C120.588 54.8851 120.588 54.8799 120.588 54.8772V39.1158C120.588 38.2084 119.853 37.4731 118.945 37.4731C118.038 37.4731 117.303 38.2084 117.303 39.1158V54.9502C117.303 60.6551 121.943 65.3353 127.646 65.3771C127.652 65.3771 127.654 65.3771 127.659 65.3771C128.561 65.3771 129.294 64.6496 129.302 63.7475C129.309 62.8401 128.579 62.0996 127.672 62.0918V62.097Z" fill="white"/>
<path d="M171.63 44.5522C165.943 44.5522 161.316 49.1803 161.316 54.8696C161.316 60.5588 165.943 65.1869 171.63 65.1869C177.318 65.1869 181.945 60.5588 181.945 54.8696C181.945 49.1803 177.318 44.5522 171.63 44.5522ZM171.63 61.9042C167.754 61.9042 164.6 58.7493 164.6 54.8722C164.6 50.995 167.754 47.8401 171.63 47.8401C175.506 47.8401 178.66 50.995 178.66 54.8722C178.66 58.7493 175.506 61.9042 171.63 61.9042Z" fill="white"/>
<path d="M196.644 44.5522C190.956 44.5522 186.329 49.1803 186.329 54.8696C186.329 60.5588 190.956 65.1869 196.644 65.1869C202.331 65.1869 206.958 60.5588 206.958 54.8696C206.958 49.1803 202.331 44.5522 196.644 44.5522ZM196.644 61.9042C192.767 61.9042 189.613 58.7493 189.613 54.8722C189.613 50.995 192.767 47.8401 196.644 47.8401C200.52 47.8401 203.674 50.995 203.674 54.8722C203.674 58.7493 200.52 61.9042 196.644 61.9042Z" fill="white"/>
<path d="M110.946 44.5522C110.039 44.5522 109.303 45.2875 109.303 46.1949V47.3291C107.461 45.6082 104.987 44.5522 102.273 44.5522C96.5857 44.5522 91.959 49.1803 91.959 54.8696C91.959 60.5588 96.5857 65.1869 102.273 65.1869C104.989 65.1869 107.461 64.1309 109.303 62.41V63.7398C109.303 64.6471 110.039 65.3824 110.946 65.3824C111.853 65.3824 112.588 64.6471 112.588 63.7398V46.1949C112.588 45.2875 111.853 44.5522 110.946 44.5522ZM102.273 61.9042C98.3973 61.9042 95.2433 58.7493 95.2433 54.8722C95.2433 50.995 98.3973 47.8401 102.273 47.8401C106.149 47.8401 109.303 50.995 109.303 54.8722C109.303 58.7493 106.149 61.9042 102.273 61.9042Z" fill="white"/>
<path d="M168.912 26.6319C168.912 26.6319 165.693 31.7762 164.29 40.0936H186.368C187.336 37.1369 189.306 35.6924 191.728 37.528C193.101 38.5683 194.186 39.4027 195.072 40.0936H205.115C205.04 39.9893 204.962 39.885 204.873 39.7808C200.976 35.0823 189.066 26.8587 180.798 23.3909C181.611 23.5708 182.456 23.6751 183.324 23.6751C189.741 23.6751 194.944 18.4708 194.944 12.0515C194.944 5.63221 189.749 0.427929 183.332 0.427929C181.77 0.427929 180.282 0.738204 178.924 1.29618L176.815 0.378389C176.242 0.128083 175.637 0.00292969 175.017 0.00292969C173.221 0.00292969 171.599 1.06673 170.883 2.71197L169.751 5.31151C169.272 6.41442 169.248 7.64248 169.689 8.76104C170.085 9.76748 170.812 10.5784 171.756 11.0842C171.73 11.4049 171.711 11.7256 171.711 12.0515C171.711 15.6471 173.346 18.8619 175.911 20.9947C169.535 16.7995 165.482 9.08435 163.279 4.46412C161.462 0.654769 155.954 3.7132 156.987 7.28267C158.652 13.0371 162.458 19.7328 168.912 26.6319ZM172.968 9.10521C172.66 8.97223 172.4 8.76625 172.199 8.50812C172.084 8.35951 171.99 8.19524 171.92 8.01794C171.727 7.52776 171.738 6.99064 171.949 6.50828L173.08 3.90875C173.393 3.18912 174.104 2.7224 174.889 2.7224C175.16 2.7224 175.423 2.77716 175.676 2.88666L176.075 3.06136L186.319 7.52515C187.315 7.96058 187.773 9.12346 187.341 10.1221L186.209 12.7216C185.897 13.4412 185.185 13.908 184.4 13.908C184.129 13.908 183.866 13.8532 183.613 13.7437L172.968 9.10521Z" fill="white"/>
</g>
<defs>
<clipPath id="clip0_1994_2160">
<rect width="246" height="66" fill="white"/>
</clipPath>
</defs>
</svg>
