<svg xmlns="http://www.w3.org/2000/svg" style="position: absolute">
        <style>.st0{display:none}.st1{display:inline;stroke:#fff;stroke-miterlimit:10}.st2{fill:red}.st3{fill:#fff02a}</style>
        <g class="st0">
            <path class="st1" d="M-235.8-207.7h2067.2V857.4H-235.8z"></path>
        </g>
        <title>Blackstore Logo</title>
        <path d="M0 0v41.1L50.7 0C34 0 17.1.1 0 0M78.5 0L0 63.8v48.8L138.1 0c-19.8-.1-39.7.1-59.6 0M165.8 0L0 135.4v48.8L225.5 0c-20.1-.1-39.9.1-59.7 0M273.7 0h-20.5L0 207v48.8l310.1-253C298 1.1 285.9.2 273.7 0M332.8 7L0 278.6v48.8l373.8-305c-13-6.9-26.8-12-41-15.4M389.5 32.3L0 350.2V399L416.1 59.4c-7.3-10.4-16.3-19.6-26.6-27.1M425.1 74.9L0 421.8v48.8l435.6-355.5c-1-13.9-4.6-27.6-10.5-40.2M435.2 138.2L0 493.4v48.8l411.5-335.8c13.5-22.2 21.5-45.5 23.7-68.2M394.3 243.2L0 565v48.8l27.7-22.5L421.2 270c-8-9.8-17-18.8-26.9-26.8M431.6 284.3L133.9 526.9c20.5 0 40.2.1 60.2 0l255-208.1c-4.5-12.1-10.3-23.7-17.5-34.5M454.7 337.1L222.2 526.9h43.2c5.9 0 11.5-.3 17.1-.6l176.4-143.9c.9-15.2-.6-30.5-4.2-45.3M455.1 408.3L314.4 523.1C396.3 510 442 462.9 455.1 408.3M574 26.2h97.3c24 0 42.8 6.6 54.8 18.6 9.6 9.6 14.4 21.3 14.4 35.6v.6c0 23.7-12.6 36.8-27.6 45.2 24.3 9.3 39.2 23.4 39.2 51.5v.6c0 38.3-31.2 57.5-78.5 57.5H574V26.2zm87.4 84.8c20.4 0 33.2-6.6 33.2-22.2v-.6c0-13.8-10.8-21.6-30.2-21.6h-45.5V111h42.5zm12.3 84.4c20.4 0 32.7-7.2 32.7-22.8v-.6c0-14.1-10.5-22.8-34.2-22.8h-53.3v46.1l54.8.1zM790.4 26.2h46.1v167.7H941v42H790.4zM1051.5 24.7h42.5l89.8 211.2h-48.2l-19.2-47h-88.7l-19.2 47h-47l90-211.2zm48.5 123.4l-27.8-68-27.9 68h55.7zM1190.5 131.7v-.7c0-59.6 44.9-108.4 109.3-108.4 39.5 0 63.2 13.2 82.7 32.4l-29.3 33.8c-16.2-14.7-32.6-23.6-53.6-23.6-35.3 0-60.8 29.4-60.8 65.3v.6c0 36 24.9 65.9 60.8 65.9 24 0 38.6-9.6 55.1-24.6L1384 202c-21.6 23.1-45.5 37.5-86 37.5-61.7 0-107.5-47.7-107.5-107.8M1415.8 26.2h46.1v91.7l85.1-91.7h55.7l-85.4 89 89.3 120.7h-55.4l-65-89.3-24.3 25.2v64.1h-46.1zM574 491.8l15.2-18c22.7 20.5 44.5 30.8 74.6 30.8 29.2 0 48.5-15.5 48.5-37v-.6c0-20.2-10.9-31.7-56.6-41.3-50-10.9-73-27-73-62.8v-.6c0-34.2 30.1-59.3 71.5-59.3 31.7 0 54.4 9 76.5 26.7l-14.3 19c-20.2-16.5-40.4-23.6-62.8-23.6-28.3 0-46.3 15.5-46.3 35.1v.6c0 20.5 11.2 32 59 42.3 48.5 10.6 70.8 28.3 70.8 61.5v.6c0 37.3-31.1 61.5-74.3 61.5-34.5-.1-62.8-11.6-88.8-34.9M840.3 328.6h-73.1v-22.7h171v22.7h-73.1v194.9h-24.8zM954.5 415.3v-.6c0-60 45.1-112.5 111.3-112.5s110.6 51.9 110.6 111.9v.6c0 60-45.1 112.5-111.2 112.5s-110.7-51.9-110.7-111.9m196.4 0v-.6c0-49.4-36-89.8-85.8-89.8s-85.2 39.8-85.2 89.2v.6c0 49.4 36.1 89.8 85.8 89.8s85.2-39.7 85.2-89.2M1225.7 305.9h93.5c26.7 0 48.2 8.1 61.8 21.8 10.6 10.6 16.8 25.8 16.8 42.9v.6c0 36-24.9 57.2-59 63.4l66.8 88.9h-30.1l-63.1-84.5h-62.2v84.5h-24.6V305.9zm91.4 111c32.6 0 55.9-16.8 55.9-44.8v-.6c0-26.7-20.5-42.9-55.6-42.9h-67.1v88.3h66.8zM1447.8 305.9H1605v22.4h-132.7v74.3h118.8V425h-118.8v76.1h134.3v22.4h-158.8z"></path>
</svg>