<svg viewBox="0 0 470 539" xmlns="http://www.w3.org/2000/svg" xml:space="preserve" style="fill-rule:evenodd;clip-rule:evenodd;stroke-linejoin:round;stroke-miterlimit:2"><path d="M341.73 113.45C321.8 104 287.38 92.74 236.62 92.74c-98.62 0-137.54 38.55-140.51 41.66-16.56 48.42-19.59 94.86-9 138 8.49 34.63 25.7 67.27 51.17 97 40.84 47.73 90.23 72.74 96.41 75.76 50.59-29.31 89.33-63.88 115.17-102.76 20.72-31.19 33.23-65.21 37.19-101.12 6.5-59-12.56-103.92-14.07-107.38-1.31-1.26-11.12-10.9-31.25-20.45z" style="fill:#fff;fill-rule:nonzero" transform="translate(-63.856 -46.337) scale(1.27355)"/><path d="M341.73 113.45C321.8 104 287.38 92.74 236.62 92.74c-98.62 0-137.54 38.55-140.51 41.66-16.56 48.42-19.59 94.86-9 138 8.49 34.63 25.7 67.27 51.17 97 40.84 47.73 90.23 72.74 96.41 75.76 50.59-29.31 89.33-63.88 115.17-102.76 20.72-31.19 33.23-65.21 37.19-101.12 6.5-59-12.56-103.92-14.07-107.38-1.31-1.26-11.12-10.9-31.25-20.45z" style="fill:#fff;fill-rule:nonzero" transform="translate(.334 27.015)"/><path d="M375.18 132.22c-.39-.43-40.12-42.3-138.56-42.3-103.51 0-142.38 42.36-142.76 42.78l-.19.22-.09.27c-16.84 49.06-19.92 96.17-9.16 140 8.61 35.07 26.05 68.11 51.82 98.21 43.83 51.19 97.4 76.46 97.93 76.71l.66.31.62-.36c51.27-29.61 90.55-64.6 116.73-104 21-31.57 33.64-66 37.65-102.39 6.82-61.93-14.2-108.62-14.41-109.08l-.24-.37zm11.88 109.14c-4 35.91-16.47 69.93-37.19 101.12-25.87 38.88-64.58 73.45-115.17 102.76-6.18-3-55.57-28-96.41-75.76-25.47-29.76-42.68-62.4-51.17-97-10.6-43.19-7.57-89.63 9-138 3-3.11 41.85-41.66 140.51-41.66 50.76 0 85.18 11.26 105.11 20.71C361.86 123 371.67 132.64 373 134c1.5 3.44 20.56 48.33 14.06 107.36z" style="fill:#202145;fill-rule:nonzero" transform="translate(.334 27.015)"/><path d="m368.49 139-.71-.76c-1.53-1.66-38.5-40.51-131.37-40.51-97.59 0-133.81 39.35-135.3 41l-.88 1-.44 1.27c-35.95 104.5 2.06 179.5 40.29 224 41.09 47.91 89.92 70.88 91.92 71.84l3 1.38 2.87-1.65c47.93-27.57 84.68-60.27 109.25-97.14 19.79-29.71 31.75-62.15 35.53-96.42 6.45-58.34-12.9-101.22-13.72-103l-.44-1.01zm1.32 102.5c-3.55 32.12-14.78 62.57-33.39 90.5-22.94 34.42-57.23 65.15-102 91.36-11-5.64-51-27.78-84.65-67-52-60.55-64.87-131.06-38.29-209.58 5.68-5.51 40.87-35.86 124.89-35.86 80.06 0 115.94 30.67 121.25 35.68 2.85 6.71 17.69 45.08 12.19 94.94v-.04z" style="fill:#202145;fill-rule:nonzero" transform="translate(.334 27.015)"/><path d="M103.92 231a184.993 184.993 0 0 0 16.17 68.88l113.67 60.89L348 299.55a192.327 192.327 0 0 0 16.16-58.63c.39-3.53.66-7 .85-10.39L235.3 327.29 103.92 231zM126.65 154.55l2.14 4.6c.41.959.989 1.837 1.71 2.59.55.556 1.242.95 2 1.14a5.253 5.253 0 0 0 2.36 0 14.541 14.541 0 0 0 2.72-1l5.2-2.42c1.22-.56 2.25-1.08 3.09-1.56a6.21 6.21 0 0 0 1.91-1.56 3.004 3.004 0 0 0 .61-2 7.299 7.299 0 0 0-.8-2.8l-2-4.39-9.7 4.5 1.48 3.2 5.38-2.49.21.44c.156.309.232.653.22 1a1.45 1.45 0 0 1-.28.75 2.4 2.4 0 0 1-.62.56 8.754 8.754 0 0 1-.8.44l-4.62 2.14a7.124 7.124 0 0 1-1.41.5 1.701 1.701 0 0 1-1.06-.11 2.458 2.458 0 0 1-.89-.78 9.423 9.423 0 0 1-.88-1.56l-.89-1.92a8.564 8.564 0 0 1-.61-1.67 2.421 2.421 0 0 1 0-1.19 1.73 1.73 0 0 1 .61-.88 6.517 6.517 0 0 1 1.3-.75l4.69-2.18a6.973 6.973 0 0 1 1-.37c.253-.089.524-.116.79-.08.251.035.485.147.67.32.244.243.438.532.57.85l4.25-2-.23-.49a11.512 11.512 0 0 0-1.13-2 3.532 3.532 0 0 0-1.5-1.2 4.094 4.094 0 0 0-2.15-.21 11.243 11.243 0 0 0-3.1 1l-6.51 3c-.878.398-1.715.88-2.5 1.44a5.175 5.175 0 0 0-1.55 1.78 4.174 4.174 0 0 0-.43 2.28 8.526 8.526 0 0 0 .75 3.08z" style="fill:#202145;fill-rule:nonzero" transform="translate(.334 27.015)"/><path style="fill:#202145" d="M154.25 136.48h4.77v17.01h-4.77z" transform="rotate(-17.55 244.307 157.418)"/><path d="m173.81 149.07-.9-4.33 7.34-1.52a1.901 1.901 0 0 1 1.61.2c.437.479.71 1.085.78 1.73l.42 2 4.66-1-.58-2.83a6.128 6.128 0 0 0-.55-1.65 3.185 3.185 0 0 0-.77-1 2.203 2.203 0 0 0-.93-.44 5.984 5.984 0 0 0-1.06-.11 4.1 4.1 0 0 0 1.2-.84c.281-.281.493-.623.62-1 .124-.404.175-.828.15-1.25a9.159 9.159 0 0 0-.21-1.52l-.21-1.06a9.289 9.289 0 0 0-.64-2 3.84 3.84 0 0 0-1-1.4 3.351 3.351 0 0 0-1.61-.71 5.94 5.94 0 0 0-2.3.1l-14.08 2.91 3.39 16.65 4.67-.93zm4.71-14a3.189 3.189 0 0 1 1.69 0c.387.14.657.58.81 1.32l.11.55c.141.464.102.964-.11 1.4a1.78 1.78 0 0 1-1.25.7l-7.71 1.6-.84-4 7.3-1.57zM194.53 139.15a8.652 8.652 0 0 0 .74 3c.33.716.853 1.325 1.51 1.76a4.998 4.998 0 0 0 2.23.75c.961.096 1.929.096 2.89 0l7.61-.68c.961-.08 1.912-.251 2.84-.51a5.197 5.197 0 0 0 2.07-1.14 4.376 4.376 0 0 0 1.18-2 8.791 8.791 0 0 0 .19-3.1l-.45-5.06a8.536 8.536 0 0 0-.74-3 4.238 4.238 0 0 0-1.51-1.76 5.13 5.13 0 0 0-2.23-.76c-.961-.1-1.929-.1-2.89 0l-7.61.68c-.962.07-1.914.241-2.84.51-.771.209-1.481.6-2.07 1.14a4.31 4.31 0 0 0-1.18 2 8.734 8.734 0 0 0-.19 3.09l.45 5.08zm4.56-5.3c.036-.388.155-.763.35-1.1.196-.333.489-.598.84-.76a4.007 4.007 0 0 1 1.49-.37l5.56-.5a4.294 4.294 0 0 1 1.54.1c.385.096.734.305 1 .6.248.29.43.632.53 1 .13.457.21.926.24 1.4l.17 1.83c.039.526.039 1.054 0 1.58a2.456 2.456 0 0 1-.31 1.09 1.82 1.82 0 0 1-.78.66c-.435.17-.894.271-1.36.3l-6.07.54c-.46.054-.926.034-1.38-.06a1.675 1.675 0 0 1-.89-.51 2.434 2.434 0 0 1-.5-1 10.691 10.691 0 0 1-.25-1.56l-.16-1.82a8.524 8.524 0 0 1-.02-1.42zM228.56 130.63h.05l8.84 12.43 7.39.07.14-17.02-4.77-.04-.1 12.36h-.04L231.22 126l-7.38-.06-.15 17.01 4.77.04.1-12.36zM270 145.27a4.604 4.604 0 0 0 2.1-.8 3.999 3.999 0 0 0 1.3-1.71 9.43 9.43 0 0 0 .65-2.64l.6-5.14a9.757 9.757 0 0 0 0-2.72 4.093 4.093 0 0 0-.87-2 4.56 4.56 0 0 0-1.87-1.27 12.007 12.007 0 0 0-2.95-.68l-14.29-1.66-2 16.89 14.33 1.71c.995.138 2.003.145 3 .02zm-12-5.47 1-8.36 8.4 1a5.4 5.4 0 0 1 1.28.29c.315.122.593.321.81.58.21.295.341.64.38 1a5.87 5.87 0 0 1 0 1.51l-.27 2.29a5.49 5.49 0 0 1-.34 1.48 2.15 2.15 0 0 1-.59.86 1.862 1.862 0 0 1-.92.38c-.439.05-.881.05-1.32 0L258 139.8z" style="fill:#202145;fill-rule:nonzero" transform="translate(.334 27.015)"/><path style="fill:#202145" d="M276.53 137.4h17.01v4.76h-17.01z" transform="rotate(-77.96 301.894 153.084)"/><path d="m301.89 140.02.04.01 4.57 14.56 7 2.34 5.4-16.13-4.52-1.51-3.92 11.72-.04-.01-4.57-14.56-7-2.35-5.4 16.14 4.52 1.51 3.92-11.72zM322.93 161.35a15.284 15.284 0 0 0 2.32 1.54l5 2.83a32.378 32.378 0 0 0 3.48 1.73 5.358 5.358 0 0 0 2.43.49 2.83 2.83 0 0 0 1.82-.84 9.482 9.482 0 0 0 1.64-2.25 9.147 9.147 0 0 0 1.1-2.75 2.998 2.998 0 0 0-.42-2.11 6.752 6.752 0 0 0-2.08-2c-.993-.667-2.293-1.45-3.9-2.35l-2.64-1.51a9.059 9.059 0 0 1-1.42-1 1.149 1.149 0 0 1-.44-.77c.016-.299.109-.588.27-.84a1.13 1.13 0 0 1 .92-.63c.46-.003.911.126 1.3.37l4.6 2.58c.38.204.738.445 1.07.72.202.166.36.379.46.62a.993.993 0 0 1 0 .61c-.096.25-.213.491-.35.72l4.16 2.33.26-.47c.34-.596.625-1.222.85-1.87a3.206 3.206 0 0 0 .1-1.76 3.997 3.997 0 0 0-1.07-1.79 11.714 11.714 0 0 0-2.66-1.91l-5.8-3.25a11.152 11.152 0 0 0-3.28-1.35 4.081 4.081 0 0 0-2.2.08 3.313 3.313 0 0 0-1.45 1.18c-.426.58-.814 1.188-1.16 1.82a11.163 11.163 0 0 0-1.06 2.36 2.549 2.549 0 0 0 .16 1.88 5.711 5.711 0 0 0 1.73 1.86 33.986 33.986 0 0 0 3.62 2.27c1.34.75 2.39 1.35 3.16 1.81.588.334 1.144.722 1.66 1.16.27.203.455.499.52.83a1.63 1.63 0 0 1-.27.85 1.352 1.352 0 0 1-.53.59 1.177 1.177 0 0 1-.61.16 1.869 1.869 0 0 1-.67-.16c-.22-.1-.44-.21-.67-.34l-5.09-2.85a8.677 8.677 0 0 1-.76-.48 1.302 1.302 0 0 1-.44-.54 1.157 1.157 0 0 1-.05-.7 3.55 3.55 0 0 1 .41-1l-4.16-2.33-.57 1a6.52 6.52 0 0 0-.82 2.16c-.097.592-.01 1.2.25 1.74a4.615 4.615 0 0 0 1.28 1.56zM156.91 170l7.73-2.26a7.155 7.155 0 0 0 1.57-.65c.372-.213.685-.515.91-.88.204-.352.308-.753.3-1.16a5.305 5.305 0 0 0-.25-1.51l-.81-2.78a5.539 5.539 0 0 0-.61-1.4 2.22 2.22 0 0 0-.88-.82 2.512 2.512 0 0 0-1.23-.25 6.524 6.524 0 0 0-1.68.3l-7.73 2.26 2.68 9.15zm5.1-8.95c.233-.079.475-.126.72-.14a.999.999 0 0 1 .54.13c.173.103.317.247.42.42.14.245.247.507.32.78l.36 1.24c.09.271.14.554.15.84a1 1 0 0 1-.12.57 1 1 0 0 1-.39.4 2.71 2.71 0 0 1-.68.28l-4.55 1.33-1.32-4.52 4.55-1.33zM179.51 154.47l-9.31 1.97 1.97 9.33 9.47-2.01-.47-2.24-6.86 1.45-.32-1.49 6.35-1.35-.4-1.93-6.36 1.35-.31-1.49 6.7-1.43-.46-2.16zM202.84 160.81c.34-.04.675-.114 1-.22.3-.086.575-.244.8-.46.227-.23.389-.517.47-.83.079-.43.079-.87 0-1.3a2.895 2.895 0 0 0-.53-1.57 1.682 1.682 0 0 0-1.3-.52l.49-.27a1.19 1.19 0 0 0 .37-.4c.102-.201.17-.417.2-.64a4.4 4.4 0 0 0 0-1 3.266 3.266 0 0 0-.31-1.15 1.862 1.862 0 0 0-.68-.71 2.387 2.387 0 0 0-1-.31 6.59 6.59 0 0 0-1.39 0l-7.64.84 1 9.47 8.52-.93zm-.41-3a.591.591 0 0 1-.2.59c-.207.121-.44.193-.68.21l-4.76.52-.16-1.48 4.76-.52c.24-.033.484-.006.71.08.18.1.29.31.33.63v-.03zm-1.43-4.08a.84.84 0 0 1 .59.1.922.922 0 0 1 .13 1.15.997.997 0 0 1-.56.23l-4.7.51-.16-1.48 4.7-.51zM211.27 150.6a2.859 2.859 0 0 0-1.18.59 2.418 2.418 0 0 0-.71 1.1 4.92 4.92 0 0 0-.17 1.72l.15 2.84a4.87 4.87 0 0 0 .35 1.71c.171.402.452.749.81 1 .367.252.788.413 1.23.47a8.436 8.436 0 0 0 1.62.06l4.27-.22c.54-.022 1.076-.1 1.6-.23a2.999 2.999 0 0 0 1.19-.59 2.51 2.51 0 0 0 .7-1.09 4.952 4.952 0 0 0 .17-1.73l-.15-2.84a4.794 4.794 0 0 0-.35-1.7 2.316 2.316 0 0 0-.81-1 2.805 2.805 0 0 0-1.23-.47 8.436 8.436 0 0 0-1.62-.06l-4.27.22a8.004 8.004 0 0 0-1.6.22zm5.42 2c.289-.025.58.002.86.08.205.067.385.192.52.36.142.166.238.366.28.58.061.263.098.531.11.8v1c.026.296.026.594 0 .89a1.471 1.471 0 0 1-.2.6 1.002 1.002 0 0 1-.45.35 2.5 2.5 0 0 1-.77.15l-3.41.17a2.244 2.244 0 0 1-.77-.06.897.897 0 0 1-.48-.31 1.158 1.158 0 0 1-.26-.58 4.914 4.914 0 0 1-.11-.88l-.05-1a4.112 4.112 0 0 1 0-.8c.03-.216.105-.424.22-.61.118-.179.285-.321.48-.41.269-.112.558-.17.85-.17l3.18-.16zM233.41 157.28c.183.3.27.649.25 1v1.15h2.67v-1.62a3.216 3.216 0 0 0-.12-1 1.598 1.598 0 0 0-.32-.61 1.2 1.2 0 0 0-.46-.35 3.427 3.427 0 0 0-.57-.17c.266-.065.519-.173.75-.32.188-.128.342-.3.45-.5.114-.212.188-.442.22-.68a4.47 4.47 0 0 0 0-.85v-.61c.001-.39-.042-.78-.13-1.16a2.157 2.157 0 0 0-.42-.89 1.92 1.92 0 0 0-.81-.56 3.31 3.31 0 0 0-1.27-.2l-8.06.07.08 9.53h2.66V157h4.19a1.06 1.06 0 0 1 .89.28zm-5.07-2.62v-2.32h4.17c.32-.024.641.039.93.18.2.12.3.39.31.81v.32c.023.272-.056.542-.22.76a1.001 1.001 0 0 1-.76.25h-4.43zM240.93 159.59l8 .44a6.82 6.82 0 0 0 1.7-.1c.42-.078.814-.257 1.15-.52a2.2 2.2 0 0 0 .66-1c.163-.484.254-.99.27-1.5l.16-2.9a5.54 5.54 0 0 0-.1-1.52 2.304 2.304 0 0 0-.56-1.06 2.494 2.494 0 0 0-1.09-.65 6.268 6.268 0 0 0-1.67-.27l-8.05-.44-.47 9.52zm3.06-7 4.73.26c.247.005.492.042.73.11.386.109.671.441.72.84.038.279.038.561 0 .84l-.07 1.29a3.517 3.517 0 0 1-.13.84c-.063.188-.17.359-.31.5a.995.995 0 0 1-.5.24 2.416 2.416 0 0 1-.74 0l-4.73-.25.3-4.67zM267.09 154.41l.26-2.2-9.47-1.08-1.08 9.47 9.62 1.1.26-2.28-6.97-.79.18-1.52 6.45.74.22-1.97-6.45-.73.18-1.52 6.8.78zM272.67 162.65l1.07-1.52 5.33 1 .52 1.81 2.92.52-3-10.23-3.42-.61-6.33 8.54 2.91.49zm4.71-6.59 1.07 3.83-3.36-.6 2.29-3.23zM291 156.67l-2.59-.68-1.54 5.94a3.572 3.572 0 0 0 .16 2.78 3.722 3.722 0 0 0 2.41 1.51l3.7 1A3.67 3.67 0 0 0 296 167a3.603 3.603 0 0 0 1.5-2.34l1.55-5.94-2.59-.67-1.46 5.36a2 2 0 0 1-.65 1.17 1.423 1.423 0 0 1-1.21.08l-2.54-.66a1.458 1.458 0 0 1-1-.67 2.001 2.001 0 0 1 0-1.34l1.4-5.32zM311.85 163.08l-3.67 2.23-1.43-4.05-3.25-1.16 2.14 5.81-5.62 3.07 3.37 1.2 3.87-2.29 1.55 4.22 3.37 1.21-2.41-5.94 5.33-3.14-3.25-1.16zM177.55 257a56.248 56.248 0 0 0 7.42 6.62c.55 2.33 1.25 4.73 2.07 7.24a41.275 41.275 0 0 1 .32-5.5c10.28 7.22 27.75 15.25 47.87 7.25 21.37 9.44 39.5-1.65 49.13-10 .45 2.61.83 5.36 1.09 8.29 1-3.636 1.669-7.354 2-11.11a54.528 54.528 0 0 0 4.35-4.73 48.173 48.173 0 0 1-4.2 2.87c.83-12.39-1.12-31.07-17.26-43.88-1.36-14-8.73-28.58-29.92-37.7a52.632 52.632 0 0 1 5.76-4 90.55 90.55 0 0 0-9.72 2.46 98.183 98.183 0 0 0-8.45-2.66 49.957 49.957 0 0 1 4.7 3.94c-22.07 8.17-29.83 23.08-31.73 37-12 8.48-21.48 22.78-16.84 46.81-2.14-.8-4.36-1.76-6.59-2.9zm84.62-4.76a80.355 80.355 0 0 0 7.1-20.63c6.3 6.14 11.78 15.13 14.6 28.4-10.82 5.2-21.24 4.39-30.38 1a90.415 90.415 0 0 0 8.68-8.74v-.03zm-25.75-72.49c5.28 5.62 11.71 14.08 14.83 24.56a91.56 91.56 0 0 0-15.58-3.31 79.629 79.629 0 0 0-15.43 3.1c3.36-10.77 10.32-18.95 16.18-24.32v-.03zm-.21 39a46.448 46.448 0 0 1 16.72 2.78 47.896 47.896 0 0 1-4.82 16.18 57.73 57.73 0 0 1-11.42 13.54A87.606 87.606 0 0 1 222.36 237a53.194 53.194 0 0 1-3.88-14.54 62.806 62.806 0 0 1 17.73-3.64v-.07zm-34.5 14.4a69.072 69.072 0 0 0 3.5 12.56A104.706 104.706 0 0 0 219 261.65c-8.49 2.79-18.84 3.47-31.07-.4 1.39-7.85 4.91-19.06 13.78-28.03v-.07zM214.09 385.61l-4 3.15-.73-.92 4.36-3.46h1.69V395h-1.35l.03-9.39zM222.54 391.79a4.79 4.79 0 0 1 .09-1c.036-.241.14-.467.3-.65.168-.181.382-.313.62-.38a5.187 5.187 0 0 1 1-.21 2.65 2.65 0 0 1-1.05-.33 1.637 1.637 0 0 1-.56-.55 1.5 1.5 0 0 1-.23-.63 4.01 4.01 0 0 1 0-.58v-.69a2.172 2.172 0 0 1 .77-1.89 4.32 4.32 0 0 1 2.47-.55h5.18a4.329 4.329 0 0 1 2.48.55c.552.464.84 1.172.77 1.89v.69a4.01 4.01 0 0 1 0 .58 1.651 1.651 0 0 1-.76 1.18 2.296 2.296 0 0 1-1 .33c.251.049.498.116.74.2.227.074.436.196.61.36.182.165.322.371.41.6.108.287.159.593.15.9v1a2.254 2.254 0 0 1-.75 1.93 4.002 4.002 0 0 1-2.33.54h-5.77a4.002 4.002 0 0 1-2.33-.54 2.252 2.252 0 0 1-.76-1.93l-.05-.82zm7.35 2.13c.591.009 1.182-.015 1.77-.07.35-.017.692-.113 1-.28a1 1 0 0 0 .42-.61 4.79 4.79 0 0 0 .09-1 3.277 3.277 0 0 0-.12-1 .91.91 0 0 0-.44-.54 2.286 2.286 0 0 0-.87-.22h-6.4c-.298.017-.59.091-.86.22a.91.91 0 0 0-.44.54 3.277 3.277 0 0 0-.12 1 4.79 4.79 0 0 0 .09 1 1 1 0 0 0 .42.61c.308.167.65.263 1 .28.588.055 1.179.079 1.77.07h2.69zm-4.51-5h6.27a2.01 2.01 0 0 0 .84-.23c.197-.129.342-.324.41-.55.083-.327.12-.663.11-1a3.182 3.182 0 0 0-.09-.83 1.001 1.001 0 0 0-.35-.53 1.743 1.743 0 0 0-.74-.27 8.559 8.559 0 0 0-1.25-.07h-4.13a8.421 8.421 0 0 0-1.25.07c-.264.03-.518.123-.74.27-.171.134-.294.32-.35.53a3.182 3.182 0 0 0-.09.83c-.01.337.027.673.11 1 .068.226.213.421.41.55.26.137.547.216.84.23zM237.38 391.79c-.003-.335.024-.67.08-1 .039-.242.147-.467.31-.65.168-.181.382-.313.62-.38.325-.104.66-.174 1-.21a2.593 2.593 0 0 1-1.05-.33 1.598 1.598 0 0 1-.57-.55 1.63 1.63 0 0 1-.22-.63 4.178 4.178 0 0 1-.05-.58v-.69a2.17 2.17 0 0 1 .78-1.89 4.295 4.295 0 0 1 2.47-.55h5.18a4.32 4.32 0 0 1 2.47.55c.559.46.852 1.17.78 1.89v.69c-.003.194-.02.388-.05.58a1.63 1.63 0 0 1-.22.63c-.128.225-.31.414-.53.55a2.4 2.4 0 0 1-1 .33c.254.049.505.116.75.2.226.076.434.199.61.36.179.168.319.372.41.6.108.287.159.593.15.9v1a2.254 2.254 0 0 1-.75 1.93 4.06 4.06 0 0 1-2.34.54h-5.76a4.06 4.06 0 0 1-2.34-.54 2.254 2.254 0 0 1-.75-1.93l.02-.82zm7.35 2.13c.591.009 1.182-.015 1.77-.07.35-.017.692-.113 1-.28a1 1 0 0 0 .42-.61c.056-.33.083-.665.08-1a3.702 3.702 0 0 0-.11-1 .996.996 0 0 0-.44-.54 2.412 2.412 0 0 0-.87-.22h-6.4a2.347 2.347 0 0 0-.87.22.996.996 0 0 0-.44.54 3.702 3.702 0 0 0-.11 1c-.003.335.024.67.08 1a1 1 0 0 0 .42.61c.309.166.65.261 1 .28.588.055 1.179.079 1.77.07h2.7zm-4.51-5h6.26a2.01 2.01 0 0 0 .84-.23.925.925 0 0 0 .41-.55c.088-.326.125-.663.11-1a3.182 3.182 0 0 0-.09-.83.88.88 0 0 0-.35-.53 1.642 1.642 0 0 0-.74-.27 8.289 8.289 0 0 0-1.25-.07h-4.12a8.289 8.289 0 0 0-1.25.07 1.642 1.642 0 0 0-.74.27.88.88 0 0 0-.35.53 3.182 3.182 0 0 0-.09.83c-.01.337.027.673.11 1a.925.925 0 0 0 .41.55c.26.137.547.216.84.23zM258.59 385.61l-4 3.15-.73-.92 4.36-3.46h1.68V395h-1.35l.04-9.39zM177.71 371.78c-.005-.46.042-.92.14-1.37.08-.368.249-.711.49-1 .248-.267.562-.464.91-.57a4.43 4.43 0 0 1 1.41-.19h4.78c.474-.013.947.051 1.4.19.348.106.662.303.91.57.241.289.41.632.49 1 .107.449.157.909.15 1.37v2.27c.007.461-.043.921-.15 1.37a2.3 2.3 0 0 1-.49 1 1.994 1.994 0 0 1-.91.58 4.365 4.365 0 0 1-1.4.19h-4.78a4.43 4.43 0 0 1-1.41-.19 1.994 1.994 0 0 1-.91-.58 2.3 2.3 0 0 1-.49-1 6.128 6.128 0 0 1-.14-1.37v-2.27zm9.56-.42c.011-.301-.04-.6-.15-.88a1.451 1.451 0 0 0-.42-.54 1.572 1.572 0 0 0-.62-.27 3.667 3.667 0 0 0-.76-.08h-4.54c-.255 0-.51.027-.76.08a1.646 1.646 0 0 0-.62.27 1.338 1.338 0 0 0-.41.54 1.996 1.996 0 0 0-.16.88v3.11c-.014.302.041.603.16.88.088.212.229.398.41.54.186.132.397.224.62.27.25.053.505.08.76.08h4.54c.255 0 .51-.027.76-.08.224-.044.435-.136.62-.27.181-.144.325-.329.42-.54.109-.28.16-.58.15-.88v-3.11zM190.88 368.77h1.75l4.84 7 4.85-7h1.75v8.29H203v-7.28l-5 7.28h-.8l-5-7.28v7.28h-1.12l-.2-8.29zM206.7 368.77h1.67l7.59 7.28v-7.28h1.13v8.29h-1.68l-7.59-7.28v7.28h-1.12v-8.29z" style="fill:#202145;fill-rule:nonzero" transform="translate(.334 27.015)"/><path style="fill:#202145" d="M219.82 368.77h1.12v8.29h-1.12z" transform="translate(.334 27.015)"/><path d="M223.54 374.45h1.06v.55c-.005.184.026.367.09.54a.875.875 0 0 0 .3.37c.17.11.361.185.56.22.29.057.585.083.88.08h3.48c.335.003.67-.024 1-.08.233-.033.455-.118.65-.25a.923.923 0 0 0 .34-.47c.079-.238.116-.489.11-.74a1.929 1.929 0 0 0-.09-.64.787.787 0 0 0-.29-.4 1.317 1.317 0 0 0-.56-.21 5.384 5.384 0 0 0-.87-.05h-2.13c-.86 0-1.57 0-2.16-.07a4.408 4.408 0 0 1-1.4-.31 1.49 1.49 0 0 1-.76-.72 3.14 3.14 0 0 1-.23-1.31 2.778 2.778 0 0 1 .21-1.16c.141-.291.363-.534.64-.7a2.93 2.93 0 0 1 1.08-.35 9.422 9.422 0 0 1 1.51-.1h2.41a9.013 9.013 0 0 1 1.72.13c.382.059.747.199 1.07.41.244.168.432.404.54.68.109.322.16.66.15 1v.29h-1.05c0-.265-.027-.53-.08-.79a.71.71 0 0 0-.37-.48 2.497 2.497 0 0 0-.93-.23c-.42 0-1-.06-1.72-.06h-2.57a2.894 2.894 0 0 0-.9.19 1 1 0 0 0-.5.44 1.831 1.831 0 0 0-.15.81c-.006.209.017.418.07.62a.76.76 0 0 0 .3.41c.194.114.408.189.63.22.351.049.705.073 1.06.07H230a4.355 4.355 0 0 1 2.37.49c.499.351.777.941.73 1.55v.6a2.19 2.19 0 0 1-.29 1.21 1.822 1.822 0 0 1-.75.65 3.23 3.23 0 0 1-1.07.27c-.4 0-.81.06-1.22.06h-3.12a8.802 8.802 0 0 1-1.17-.07 2.874 2.874 0 0 1-1-.3 1.651 1.651 0 0 1-.67-.64 2 2 0 0 1-.26-1.08l-.01-.65zM235.62 368.77h6.83c.335-.001.669.025 1 .08.273.04.532.15.75.32.214.183.373.422.46.69.116.379.17.774.16 1.17.005.401-.018.802-.07 1.2a1.682 1.682 0 0 1-.32.87 1.45 1.45 0 0 1-.77.52 4.463 4.463 0 0 1-1.43.18h-5.48v3.26h-1.13v-8.29zm8.07 2.14a1.781 1.781 0 0 0-.09-.61.832.832 0 0 0-.29-.37 1.001 1.001 0 0 0-.48-.19 3.144 3.144 0 0 0-.65-.05h-5.43v3.19h5.53c.351.012.699-.079 1-.26.277-.219.418-.57.37-.92l.04-.79zM246.73 371.78c-.005-.46.042-.92.14-1.37.08-.368.249-.711.49-1 .248-.267.562-.464.91-.57a4.43 4.43 0 0 1 1.41-.19h4.78c.474-.013.947.051 1.4.19.348.106.662.303.91.57.241.289.41.632.49 1 .107.449.157.909.15 1.37v2.27c.007.461-.043.921-.15 1.37a2.3 2.3 0 0 1-.49 1 1.994 1.994 0 0 1-.91.58 4.365 4.365 0 0 1-1.4.19h-4.78a4.43 4.43 0 0 1-1.41-.19 1.994 1.994 0 0 1-.91-.58 2.3 2.3 0 0 1-.49-1 6.128 6.128 0 0 1-.14-1.37v-2.27zm9.56-.42c.011-.301-.04-.6-.15-.88a1.451 1.451 0 0 0-.42-.54 1.572 1.572 0 0 0-.62-.27 3.667 3.667 0 0 0-.76-.08h-4.54c-.255 0-.51.027-.76.08a1.646 1.646 0 0 0-.62.27 1.338 1.338 0 0 0-.41.54 1.996 1.996 0 0 0-.16.88v3.11c-.014.302.041.603.16.88.088.212.229.398.41.54.186.132.397.224.62.27.25.053.505.08.76.08h4.54c.255 0 .51-.027.76-.08.224-.044.435-.136.62-.27.181-.144.325-.329.42-.54.109-.28.16-.58.15-.88v-3.11zM259.9 368.77h6.63c.484-.012.968.039 1.44.15.315.067.606.219.84.44.199.2.334.454.39.73.065.329.099.664.1 1v.67c.006.249-.035.496-.12.73a1.135 1.135 0 0 1-.32.47 1.392 1.392 0 0 1-.48.26c-.2.054-.404.091-.61.11.246.043.485.121.71.23.171.078.319.198.43.35.109.13.184.284.22.45.041.174.062.352.06.53v2.12h-1.05v-1.82a2.287 2.287 0 0 0-.11-.77.903.903 0 0 0-.33-.44 1.204 1.204 0 0 0-.52-.2 4.832 4.832 0 0 0-.69-.05H261v3.28h-1.1v-8.24zm6.5 4.1a2.49 2.49 0 0 0 1.36-.28 1 1 0 0 0 .41-.92v-.76a1.652 1.652 0 0 0-.08-.58.83.83 0 0 0-.32-.38 1.864 1.864 0 0 0-.63-.2 6.965 6.965 0 0 0-1-.06H261v3.18h5.4zM275.13 369.69h-4.2v-.92h9.51v.92h-4.19v7.37h-1.12v-7.37zM282.1 374.45h1v.55c-.005.184.026.367.09.54a.84.84 0 0 0 .31.37c.169.111.36.186.56.22.286.057.578.084.87.08h3.48c.335.003.67-.024 1-.08.23-.033.449-.118.64-.25a.933.933 0 0 0 .35-.47c.075-.239.109-.489.1-.74a1.929 1.929 0 0 0-.09-.64.736.736 0 0 0-.29-.4 1.315 1.315 0 0 0-.55-.21 5.514 5.514 0 0 0-.88-.05h-2.13c-.85 0-1.57 0-2.15-.07a4.343 4.343 0 0 1-1.4-.31 1.51 1.51 0 0 1-.77-.72 3.17 3.17 0 0 1-.22-1.31 2.778 2.778 0 0 1 .21-1.16 1.6 1.6 0 0 1 .64-.7 2.795 2.795 0 0 1 1.07-.35 9.539 9.539 0 0 1 1.51-.1h2.42a8.99 8.99 0 0 1 1.71.13c.382.059.747.199 1.07.41.247.165.435.403.54.68.118.32.172.659.16 1v.29h-1.06a3.328 3.328 0 0 0-.08-.79.69.69 0 0 0-.37-.48 2.497 2.497 0 0 0-.93-.23c-.41 0-1-.06-1.72-.06h-2.56a2.893 2.893 0 0 0-.91.19 1 1 0 0 0-.5.44 1.831 1.831 0 0 0-.15.81c-.006.209.017.418.07.62a.76.76 0 0 0 .3.41c.194.114.408.189.63.22.351.049.705.073 1.06.07h3.32a4.355 4.355 0 0 1 2.37.49c.499.351.777.941.73 1.55v.6c.025.422-.072.842-.28 1.21a1.835 1.835 0 0 1-.76.65 3.17 3.17 0 0 1-1.07.27c-.4 0-.81.06-1.22.06h-3.11a8.784 8.784 0 0 1-1.18-.07 2.998 2.998 0 0 1-1-.3 1.718 1.718 0 0 1-.67-.64 2.005 2.005 0 0 1-.25-1.08l.09-.65z" style="fill:#202145;fill-rule:nonzero" transform="translate(.334 27.015)"/></svg>