<svg xmlns="http://www.w3.org/2000/svg" style="position: absolute" viewBox="0 0 385 108" aria-hidden="true" focusable="false">
    <path class="jcdp-svg_logo-text" d="M14.4 94.4v5.9H.6V77.9h5.9v16.5h7.9zM26.2 100.3v-1.4c-.5.5-1.2.8-2 1.1-.8.3-1.6.4-2.4.4-1.3 0-2.5-.4-3.6-1.1-1.1-.7-2-1.7-2.6-2.9s-1-2.5-1-4 .3-2.8 1-4 1.6-2.2 2.7-2.9c1.2-.7 2.5-1 3.9-1 .8 0 1.5.1 2.2.4.7.3 1.2.6 1.6 1.1v-1.3h4.9l.7 15.6h-5.4zm-1.9-5.2c.5-.3.8-.7 1.1-1.2.3-.5.4-1.1.4-1.7 0-.8-.3-1.5-.8-2s-1.2-.8-2-.8c-.9 0-1.6.3-2.3.9-.6.6-1 1.3-1 2.2 0 .5.1 1 .4 1.5.3.5.7.9 1.1 1.2.5.3.9.4 1.4.4.7-.1 1.2-.2 1.7-.5zM64.3 100.3h-5.7v-8.2c0-1.1-.1-1.8-.4-2.2-.2-.4-.7-.6-1.3-.6-.5 0-.9.3-1.2.9-.3.6-.5 1.4-.5 2.3v.6-.1 7.3l-5.5.1-.1-8.1c0-.9-.2-1.6-.5-2.1s-.8-.7-1.4-.7c-.6 0-1.1.3-1.4.8-.3.5-.5 1.3-.5 2.3v.6-.1l.2 7.4h-5.5V84.8l5.1-.2v1.2c.5-.4 1.1-.7 1.9-.9.7-.2 1.5-.3 2.4-.3 1.8 0 3.2.5 4.1 1.4.5-.5 1.1-.9 1.9-1.2.8-.2 1.9-.4 3.1-.4 1.8 0 3.1.7 4 2.2.8 1.4 1.3 3.8 1.3 7v6.7zM78.3 86.6c1.4 1.4 2 3.4 2 5.8v.9l-10.4.1c.2.6.6 1.2 1 1.6.4.4.9.7 1.5.7 1.6.1 2.7-.3 3.4-1.4l4.2 1.2c-.3.9-.7 1.7-1.5 2.5-.7.7-1.6 1.3-2.6 1.7-1 .4-2.1.6-3.1.6h-.6c-1.4-.1-2.6-.5-3.7-1.3s-2.1-1.8-2.7-3.1c-.7-1.3-1-2.7-1-4.2V91c.1-1.3.5-2.4 1.2-3.5.7-1 1.7-1.8 2.8-2.4 1.2-.6 2.5-.9 3.9-.9 2.4.3 4.3 1 5.6 2.4zM70 89.9h5c-.1-.6-.3-1-.7-1.3-.4-.3-.8-.5-1.3-.5-1.5-.1-2.5.5-3 1.8zM82.5 83c-.5-.3-1-.7-1.3-1.2-.3-.5-.5-1.1-.5-1.7 0-.9.4-1.7 1.1-2.3.7-.6 1.6-.9 2.6-.9.9 0 1.7.3 2.3.9.6.6.9 1.3.9 2.3 0 1-.3 1.9-.9 2.6-.6.7-1.4 1-2.3 1-.8-.2-1.4-.4-1.9-.7zM81 84.6h6.1v15.6h-5.7L81 84.6zM94.1 100.5c-1.8 0-3.2-.6-4.3-1.7-1.1-1.2-1.6-2.8-1.6-4.9l.1-14.5 5.6-1.6v14.5c0 .8.2 1.4.6 1.8.4.4.9.6 1.5.6.4 0 .7-.1 1-.3l1.3 5.2c-1.6.6-2.9.9-4.2.9zM104.1 100.5c-1.8 0-3.2-.6-4.3-1.7-1.1-1.2-1.6-2.8-1.6-4.9l.1-14.5 5.6-1.6v14.5c0 .8.2 1.4.6 1.8.4.4.9.6 1.5.6.4 0 .7-.1 1-.3l1.3 5.2c-1.5.6-2.9.9-4.2.9zM121.3 86.6c1.4 1.4 2 3.4 2 5.8v.9l-10.4.1c.2.6.6 1.2 1 1.6.4.4.9.7 1.5.7 1.6.1 2.7-.3 3.4-1.4l4.2 1.2c-.3.9-.7 1.7-1.5 2.5-.7.7-1.6 1.3-2.6 1.7-1 .4-2.1.6-3.1.6h-.6c-1.4-.1-2.6-.5-3.7-1.3s-2.1-1.8-2.7-3.1c-.7-1.3-1-2.7-1-4.2V91c.1-1.3.5-2.4 1.2-3.5.7-1 1.7-1.8 2.8-2.4 1.2-.6 2.5-.9 3.9-.9 2.3.3 4.2 1 5.6 2.4zm-8.4 3.3h5c-.1-.6-.3-1-.7-1.3-.4-.3-.8-.5-1.3-.5-1.5-.1-2.5.5-3 1.8zM139.9 84.6v15.5h-5.6v-1.4c-.5.6-1.1 1-1.9 1.3-.8.3-1.6.5-2.5.5-2 0-3.5-.7-4.6-2-1-1.3-1.5-3.3-1.5-5.9l.1-8.1h5.4v7.8c0 .8.2 1.5.6 1.9.4.4 1 .7 1.7.7.8 0 1.4-.3 1.9-1 .5-.6.7-1.4.7-2.4v-6.9h5.7zM152.5 85c.7.3 1.3.8 1.8 1.5l-2 4.6c-.6-.8-1.3-1.2-2.3-1.2-1.1 0-1.8.4-2.4 1.1-.5.8-.8 2-.9 3.7v5.6h-5.5V84.6h5.5V86c.5-.5 1.1-.8 1.8-1.1.7-.3 1.3-.4 2-.4s1.3.1 2 .5zM167.1 86.6c1.4 1.4 2 3.4 2 5.8v.9l-10.4.1c.2.6.6 1.2 1 1.6.4.4.9.7 1.5.7 1.6.1 2.7-.3 3.4-1.4l4.2 1.2c-.3.9-.7 1.7-1.5 2.5-.7.7-1.6 1.3-2.6 1.7-1 .4-2.1.6-3.1.6h-.6c-1.4-.1-2.6-.5-3.7-1.3s-2.1-1.8-2.7-3.1c-.7-1.3-1-2.7-1-4.2V91c.1-1.3.5-2.4 1.2-3.5.7-1 1.7-1.8 2.8-2.4 1.2-.6 2.5-.9 3.9-.9 2.4.3 4.3 1 5.6 2.4zm-8.4 3.3h5c-.1-.6-.3-1-.7-1.3-.4-.3-.8-.5-1.3-.5-1.4-.1-2.4.5-3 1.8zM187.6 82.5c-.3.5-.4 1.2-.5 2l4.5.1-.3 5.3-4-.1.4 10.4h-6l-.1-10.5h-3l-.6-5.3 3.5.1v-2c-.1-2 .5-3.5 1.7-4.4 1.2-1 2.8-1.5 4.7-1.5 1 0 2 .1 2.8.4.9.3 1.6.7 2.2 1.3l-.2 4.2c-.1 0-.4-.2-.9-.5-.6-.3-1.3-.5-2.1-.5-.4 0-.7 0-1 .1-.5.1-.8.4-1.1.9zM203.3 100.3v-1.4c-.5.5-1.2.8-2 1.1-.8.3-1.6.4-2.4.4-1.3 0-2.5-.4-3.6-1.1-1.1-.7-2-1.7-2.6-2.9s-1-2.5-1-4 .3-2.8 1-4c.7-1.2 1.6-2.2 2.7-2.9 1.2-.7 2.5-1 3.9-1 .8 0 1.5.1 2.2.4.7.3 1.2.6 1.6 1.1v-1.3h4.9l.7 15.6h-5.4zm-1.9-5.2c.5-.3.8-.7 1.1-1.2.3-.5.4-1.1.4-1.7 0-.8-.3-1.5-.8-2s-1.2-.8-2-.8c-.9 0-1.6.3-2.3.9-.6.6-1 1.3-1 2.2 0 .5.1 1 .4 1.5.3.5.7.9 1.1 1.2.5.3.9.4 1.4.4.7-.1 1.2-.2 1.7-.5zM218.6 94.8c.5-.3.8-.7 1-1.1l4.9.5c0 1-.3 2-1 2.9s-1.5 1.7-2.5 2.3c-1 .6-2.1 1-3.3 1.1l-.1.5c.7-.1 1.4.1 1.9.5s.7 1 .7 1.6c0 .7-.2 1.4-.7 1.9-.5.5-1 .7-1.8.7-.7 0-1.3-.2-1.8-.7-.5-.5-.7-1-.6-1.7l1.6-.1c0 .5.3.8.7.8.2 0 .4-.1.5-.2.1-.1.2-.3.2-.6s-.1-.5-.3-.6c-.2-.1-.5-.2-.9-.2-.2 0-.8.1-1.8.2l.3-2.2c-1.3-.2-2.4-.7-3.4-1.5s-1.9-1.8-2.5-2.9c-.6-1.2-.9-2.4-.9-3.7 0-1.4.3-2.8 1-4 .7-1.2 1.6-2.2 2.8-2.9 1.2-.7 2.5-1.1 3.9-1.1 1.3 0 2.5.3 3.7.9 1.2.6 2.2 1.4 3 2.4.8 1 1.1 2.1 1.1 3.2l-4.9.4c-.2-.6-.5-1-1-1.4-.5-.3-1-.5-1.5-.5-.8 0-1.5.3-2.1.9-.6.6-.9 1.2-.9 2 0 .5.1 1 .4 1.4.3.5.7.9 1.2 1.1.5.3 1 .4 1.5.4.7.2 1.2 0 1.6-.3zM229 99.2c-1.3-.8-2.3-1.8-3-3.1-.7-1.3-1.1-2.6-1.1-4.1 0-1.6.4-3 1.2-4.2.8-1.2 1.9-2.1 3.1-2.7 1.3-.6 2.5-.9 3.8-.9 1.7 0 3.2.3 4.4 1 1.3.6 2.2 1.5 2.9 2.7.7 1.2 1 2.5 1 4.1 0 1.5-.4 3-1.1 4.2-.7 1.3-1.7 2.3-3 3-1.3.7-2.7 1.1-4.2 1.1-1.3.1-2.7-.3-4-1.1zm6.4-4.6c.5-.5.8-1.3.8-2.2 0-.9-.3-1.6-.8-2.2-.5-.6-1.3-.9-2.3-.9-.9 0-1.6.3-2.2.9-.6.6-.9 1.3-.9 2.2 0 .9.3 1.6.9 2.2s1.4.9 2.3.9c1-.1 1.7-.4 2.2-.9zM256.4 85.8c.8 1 1.2 2.3 1.2 4.1l-.2 10.4H252v-6.9c0-1.4-.2-2.4-.6-3.1-.4-.6-.9-.9-1.7-.9-.6 0-1.1.2-1.6.5-.4.4-.7.9-.8 1.8v8.5H242V84.6l5.3-.1V86c.7-.5 1.6-.9 2.6-1.2 1-.3 2-.5 2.9-.5 1.6 0 2.8.5 3.6 1.5zM283.8 77v23.3h-5.7v-1.6c-.6.5-1.4 1-2.3 1.3-.9.3-1.9.5-2.8.5-1.2 0-2.2-.4-3.2-1.1-1-.7-1.8-1.7-2.4-3-.6-1.3-.9-2.6-.9-4.1 0-1.3.3-2.6.9-3.8.6-1.2 1.4-2.2 2.4-3 1-.8 2-1.2 3.1-1.2 2.1-.1 3.7.4 5.1 1.4l-.1-9.1 5.9.4zm-7.4 18c.5-.3.9-.7 1.2-1.2.3-.5.5-1 .5-1.5 0-.8-.3-1.5-1-2.2-.6-.6-1.4-.9-2.2-.9-.8 0-1.5.3-2.1.9-.6.6-.9 1.3-.9 2.2 0 .5.1 1 .4 1.5s.7.9 1.1 1.2c.5.3 1 .5 1.5.5s1-.2 1.5-.5zM298.2 86.6c1.4 1.4 2 3.4 2 5.8v.9l-10.4.1c.2.6.6 1.2 1 1.6.4.4.9.7 1.5.7 1.6.1 2.7-.3 3.4-1.4l4.2 1.2c-.3.9-.7 1.7-1.5 2.5-.7.7-1.6 1.3-2.6 1.7-1 .4-2.1.6-3.1.6h-.6c-1.4-.1-2.6-.5-3.7-1.3s-2.1-1.8-2.7-3.1c-.7-1.3-1-2.7-1-4.2V91c.1-1.3.5-2.4 1.2-3.5.7-1 1.7-1.8 2.8-2.4 1.2-.6 2.5-.9 3.9-.9 2.3.3 4.2 1 5.6 2.4zm-8.4 3.3h5c-.1-.6-.3-1-.7-1.3-.4-.3-.8-.5-1.3-.5-1.5-.1-2.4.5-3 1.8zM309.1 106.3l1.8-5c.3.3.6.4 1 .4.1 0 .3 0 .5-.1.6-.1 1.1-.5 1.3-1 .3-.6.5-1.2.5-2 .1-.8.1-1.8.1-3.2v-.9l.1-10 5.8-.2.1 11.2c0 2.6-.2 4.8-.6 6.5-.4 1.7-1.2 3.1-2.2 4-1 .9-2.5 1.4-4.3 1.4-1.6 0-3-.3-4.1-1.1zm6.1-24.1c-.6-.7-.9-1.5-.9-2.4 0-.9.3-1.7.9-2.3.6-.6 1.4-.9 2.4-.9.9 0 1.7.3 2.2.8.5.5.8 1.3.8 2.2 0 1-.3 1.8-.9 2.5-.6.7-1.4 1-2.3 1-.9.1-1.6-.2-2.2-.9zM325.1 99.2c-1.3-.8-2.3-1.8-3-3.1-.7-1.3-1.1-2.6-1.1-4.1 0-1.6.4-3 1.2-4.2.8-1.2 1.9-2.1 3.1-2.7 1.3-.6 2.5-.9 3.8-.9 1.7 0 3.2.3 4.4 1 1.3.6 2.2 1.5 2.9 2.7.7 1.2 1 2.5 1 4.1 0 1.5-.4 3-1.1 4.2-.7 1.3-1.7 2.3-3 3-1.3.7-2.7 1.1-4.2 1.1-1.3.1-2.7-.3-4-1.1zm6.4-4.6c.5-.5.8-1.3.8-2.2 0-.9-.3-1.6-.8-2.2-.5-.6-1.3-.9-2.3-.9-.9 0-1.6.3-2.2.9-.6.6-.9 1.3-.9 2.2 0 .9.3 1.6.9 2.2.6.6 1.4.9 2.3.9 1-.1 1.7-.4 2.2-.9zM354.3 84.6v15.5h-5.6v-1.4c-.5.6-1.1 1-1.9 1.3-.8.3-1.6.5-2.5.5-2 0-3.5-.7-4.6-2-1-1.3-1.5-3.3-1.5-5.9l.1-8.1h5.4v7.8c0 .8.2 1.5.6 1.9.4.4 1 .7 1.7.7.8 0 1.4-.3 1.9-1 .5-.6.7-1.4.7-2.4v-6.9h5.7zM368.6 86.6c1.4 1.4 2 3.4 2 5.8v.9l-10.4.1c.2.6.6 1.2 1 1.6.4.4.9.7 1.5.7 1.6.1 2.7-.3 3.4-1.4l4.2 1.2c-.3.9-.7 1.7-1.5 2.5-.7.7-1.6 1.3-2.6 1.7s-2.1.6-3.1.6h-.6c-1.4-.1-2.6-.5-3.7-1.3s-2.1-1.8-2.7-3.1c-.7-1.3-1-2.7-1-4.2V91c.1-1.3.5-2.4 1.2-3.5.7-1 1.7-1.8 2.8-2.4 1.2-.6 2.5-.9 3.9-.9 2.3.3 4.2 1 5.6 2.4zm-8.4 3.3h5c-.1-.6-.3-1-.7-1.3-.4-.3-.8-.5-1.3-.5-1.5-.1-2.5.5-3 1.8zM382.7 85c.7.3 1.3.8 1.8 1.5l-2 4.6c-.6-.8-1.3-1.2-2.3-1.2-1.1 0-1.8.4-2.4 1.1-.5.8-.8 2-.9 3.7v5.6h-5.5V84.6h5.5V86c.5-.5 1.1-.8 1.8-1.1.7-.3 1.3-.4 2-.4s1.4.1 2 .5z" fill="#244296"></path>
    <path d="M24.2 48.2c2.9-.8 14.6-3.9 17.7-4.6.4.4.6 1 1 1.3 1.2 1.5 3.1 1.9 4.6 1.2 1.7-.8 2.7-2.7 2.1-4.4-.6-2.1-1.2-4.2-1.7-6.5-1.9-6.9-3.9-14.1-5.8-21v-.8c5.8-1.7 11.7-3.3 17.7-4.8 2.3 8.7 4.6 17.3 7.1 26.4C70.2 26.5 76 21.3 85 20.4c8.9-.8 15.6 3.1 20.4 10.8.8-2.7 1-5.4 1.5-8.1.6-2.5 1-5.2 1.3-7.9 5.2 1 15.6 2.5 15.6 2.5S122 30 121.3 34.6c-.2 1.2-.4 2.5.2 3.7.8 1.5 2.3 2.5 4 2.3 1.7-.2 3.3-1.3 3.7-3.1.4-2.1 3.3-18.5 3.3-18.5s10.2 1.7 15.4 2.5c-.6 3.5-1.2 6.7-1.5 10 2.1-2.1 3.9-4.2 6.4-6 2.5-1.5 5.2-2.5 8.1-3.3-1.7-2.1-3.5-4.2-5.2-6.4 3.9-3.3 7.5-6.4 11.4-9.6 2.5 3.1 5 6 7.7 9.1-2.7 2.3-5.2 4.4-8.1 6.9 4.8 1 9.1 2.7 12.5 6.4 2.7-11 9.1-18.3 20-21 6-1.5 11.9-.8 17.7 2.1-2.7 5.6-5.4 11-8.1 16.4-2.5-1-5-1.2-7.5 0-1.7 1-2.9 2.1-3.7 3.9-1.3 3.3-.6 7.5 2.9 9.8 3.3 2.3 7.3 1.5 11.2-2.3 3.5 2.3 6.9 4.6 10.6 6.9-.6-10.2-1.3-20-1.9-29.8 1.5-.4 14.4-1.3 16.8-1.2.4 4 .6 7.9 1 12.1 4.6-1.3 9.1-3.1 13.7-4.4 1 3.1 1.9 6 2.9 8.9 1 2.7 1.7 5.6 2.7 8.3.6 1.5 1.5 2.7 3.3 3.1 3.1.6 5.6-2.1 4.8-5.2-.8-2.5-1.5-5-2.3-7.3-1.2-3.3-2.1-6.5-3.3-10.2 5-1.7 9.8-3.3 14.8-4.8 1 1.7 5.8 16 7.1 22 1.3-3.3 2.1-6.5 3.1-9.6 1-3.3 1.9-6.4 2.9-9.6 1-3.1 1.9-6.4 2.9-9.6 5.2 1.5 10 3.1 15.2 4.6-1.2 4-2.3 7.7-3.7 11.9 7.1.8 12.9 4 16.6 10.2 2.5 4.2 3.5 8.9 2.7 13.7-1.3 8.9-8.5 17.3-20.2 17.7-5.4.2-10.2-1.7-14.4-5.4-4-3.7-6.2-8.5-6.7-13.9-1 1.5-1.7 2.9-2.7 4-9.2 12.1-28.3 9.8-34.1-4.2-1-2.5-1.7-5-2.5-7.5-.6-1.7-1.2-3.5-2.1-5.2.4 4.4.6 8.9 1 13.5.4 4.4.6 8.9.8 13.5l-16.8 1.2c-.2-2.7-.4-5.2-.6-8.1-7.1 6-15.2 8.3-24.1 6-8.9-2.1-14.8-7.7-18.3-16.2-7.3 1.9-14.4 3.9-21.8 5.8 2.5 3.5 7.1 3.5 11.6.2 3.1 2.7 6.2 5.6 9.4 8.5-4.8 5-10.6 7.5-17.3 6.7-10.6-1.3-16.6-7.7-18.9-18.3-4 6.9-9.8 11-17.7 11.2s-13.7-3.7-17.9-10.2c-3.7 9.8-10.4 15.4-21 15.4-7.9 0-14.4-4.6-18.7-13.1-.4.6-.6 1-.8 1.5-2.9 7.5-8.3 12.3-16.2 14.3-12 2-22.8-4.1-26.6-13.8 0-.7-.8-2.7-.8-2.9zM92 41.1c0-2.7-2.1-5.2-4.8-5.2-2.9 0-4.8 2.3-5 4.8 0 2.7 2.1 5 4.8 5 2.9.2 5-1.9 5-4.6zm208.6 7.7c2.5 0 5-2.3 4.8-4.8-.2-3.1-2.3-4.8-4.8-4.8-2.7 0-5 2.1-5 4.8s2.3 4.8 5 4.8zm-144.1-7.5c4.4-1.2 8.7-2.1 13.1-3.5-1.9-2.3-4.8-3.1-7.9-2.3-2.9.8-5 3.1-5.2 5.8z" fill="#ec1117"></path>
    <path d="M349.5 37.5l-16.8-4.8L339.8.2l21.4 6.2-11.7 31.1zM337.2 60.2c-5.8.2-11.2-4.8-11.2-11.2 0-6.2 5.2-11.4 11.4-11.4 6.4 0 11.4 5.4 11.2 11.6-.1 6.2-5.9 11.2-11.4 11z" fill="#244296"></path>
</svg>